<?xml version="1.0" encoding="UTF-8" standalone="no"?><!DOCTYPE svg PUBLIC "-//W3C//DTD SVG 1.1//EN" "http://www.w3.org/Graphics/SVG/1.1/DTD/svg11.dtd"><svg width="100%" height="100%" viewBox="0 0 61 61" version="1.1" xmlns="http://www.w3.org/2000/svg" xmlns:xlink="http://www.w3.org/1999/xlink" xml:space="preserve" xmlns:serif="http://www.serif.com/" style="fill-rule:evenodd;clip-rule:evenodd;stroke-linejoin:round;stroke-miterlimit:2;"><g><path d="M57.378,0.001l-54.026,0c-1.85,0 -3.352,1.499 -3.352,3.352l0,54.026c0,1.853 1.502,3.354 3.352,3.354l29.086,0l0,-23.519l-7.914,0l0,-9.167l7.914,0l0,-6.76c0,-7.843 4.789,-12.116 11.787,-12.116c3.355,0 6.232,0.251 7.071,0.36l0,8.198l-4.854,0.002c-3.805,0 -4.539,1.809 -4.539,4.462l0,5.851l9.078,0l-1.187,9.166l-7.892,0l0,23.52l15.475,0c1.852,0 3.355,-1.503 3.355,-3.351l0,-54.028c-0.001,-1.851 -1.502,-3.35 -3.354,-3.35Z" style="fill:#4267b2;fill-rule:nonzero;"/></g></svg>