<?xml version="1.0" encoding="UTF-8" standalone="no"?><!DOCTYPE svg PUBLIC "-//W3C//DTD SVG 1.1//EN" "http://www.w3.org/Graphics/SVG/1.1/DTD/svg11.dtd"><svg width="100%" height="100%" viewBox="0 0 500 200" version="1.1" xmlns="http://www.w3.org/2000/svg" xmlns:xlink="http://www.w3.org/1999/xlink" xml:space="preserve" xmlns:serif="http://www.serif.com/" style="fill-rule:evenodd;clip-rule:evenodd;stroke-linejoin:round;stroke-miterlimit:2;"><g><rect id="聯發科" x="490.967" y="129.347" width="0.923" height="44.771" style="fill:#6b6868;fill-opacity:0.7;"/><rect id="原相" x="430.024" y="129.347" width="0.923" height="44.771" style="fill:#6b6868;fill-opacity:0.7;"/><rect id="揚智" x="420.648" y="129.347" width="0.923" height="44.771" style="fill:#6b6868;fill-opacity:0.7;"/><rect id="群聯" x="383.885" y="129.347" width="0.923" height="44.771" style="fill:#6b6868;fill-opacity:0.7;"/><rect id="瑞昱" x="362.666" y="129.347" width="0.923" height="44.771" style="fill:#6b6868;fill-opacity:0.7;"/><rect id="創意" x="347.122" y="129.347" width="0.923" height="44.771" style="fill:#6b6868;fill-opacity:0.7;"/><rect id="力旺" x="340.954" y="129.347" width="0.923" height="44.771" style="fill:#6b6868;fill-opacity:0.7;"/><rect id="聯陽" x="336.266" y="129.347" width="0.923" height="44.771" style="fill:#6b6868;fill-opacity:0.7;"/><rect id="M31" x="335.525" y="129.347" width="0.923" height="44.771" style="fill:#6b6868;fill-opacity:0.7;"/><rect id="矽創" x="322.202" y="129.347" width="0.923" height="44.771" style="fill:#6b6868;fill-opacity:0.7;"/><rect id="義隆" x="307.151" y="129.347" width="0.923" height="44.771" style="fill:#6b6868;fill-opacity:0.7;"/><rect id="晶豪科" x="300.736" y="129.347" width="0.923" height="44.771" style="fill:#6b6868;fill-opacity:0.7;"/><rect id="致新" x="300.736" y="129.347" width="0.923" height="44.771" style="fill:#6b6868;fill-opacity:0.7;"/><rect id="凌通" x="300.242" y="129.347" width="0.923" height="44.771" style="fill:#6b6868;fill-opacity:0.7;"/><rect id="杰力" x="287.166" y="129.347" width="0.923" height="44.771" style="fill:#6b6868;fill-opacity:0.7;"/><rect id="九暘" x="277.79" y="129.347" width="0.923" height="44.771" style="fill:#6b6868;fill-opacity:0.7;"/><rect id="宏觀" x="276.063" y="129.347" width="0.923" height="44.771" style="fill:#6b6868;fill-opacity:0.7;"/><rect id="環球晶" x="274.089" y="129.347" width="0.923" height="44.771" style="fill:#6b6868;fill-opacity:0.7;"/><rect id="祥碩" x="267.427" y="129.347" width="0.923" height="44.771" style="fill:#6b6868;fill-opacity:0.7;"/><rect id="智原" x="258.298" y="129.347" width="0.923" height="44.771" style="fill:#6b6868;fill-opacity:0.7;"/><rect id="聚積" x="253.116" y="129.347" width="0.923" height="44.771" style="fill:#6b6868;fill-opacity:0.7;"/><rect id="創惟" x="250.156" y="129.347" width="0.923" height="44.771" style="fill:#6b6868;fill-opacity:0.7;"/><rect id="敦泰" x="249.415" y="129.347" width="0.923" height="44.771" style="fill:#6b6868;fill-opacity:0.7;"/><rect id="松翰" x="241.273" y="129.347" width="0.923" height="44.771" style="fill:#6b6868;fill-opacity:0.7;"/><rect id="愛普" x="237.572" y="129.347" width="0.923" height="44.771" style="fill:#6b6868;fill-opacity:0.7;"/><rect id="晶心科" x="236.092" y="129.347" width="0.923" height="44.771" style="fill:#6b6868;fill-opacity:0.7;"/><rect id="威盛" x="233.871" y="129.347" width="0.923" height="44.771" style="fill:#6b6868;fill-opacity:0.7;"/><rect id="神盾" x="230.664" y="129.347" width="0.923" height="44.771" style="fill:#6b6868;fill-opacity:0.7;"/><rect id="信驊" x="225.235" y="129.347" width="0.923" height="44.771" style="fill:#6b6868;fill-opacity:0.7;"/><rect id="凌陽" x="222.028" y="129.347" width="0.923" height="44.771" style="fill:#6b6868;fill-opacity:0.7;"/><rect id="通嘉" x="213.392" y="129.347" width="0.923" height="44.771" style="fill:#6b6868;fill-opacity:0.7;"/><rect id="華邦電" x="208.211" y="129.347" width="0.923" height="44.771" style="fill:#6b6868;fill-opacity:0.7;"/><rect id="晶相光" x="204.757" y="129.347" width="0.923" height="44.771" style="fill:#6b6868;fill-opacity:0.7;"/><rect id="天鈺" x="203.77" y="129.347" width="0.923" height="44.771" style="fill:#6b6868;fill-opacity:0.7;"/><rect id="大中" x="201.796" y="129.347" width="0.923" height="44.771" style="fill:#6b6868;fill-opacity:0.7;"/><rect id="南亞科" x="200.809" y="129.347" width="0.923" height="44.771" style="fill:#6b6868;fill-opacity:0.7;"/><rect id="金麗科" x="196.121" y="129.347" width="0.923" height="44.771" style="fill:#6b6868;fill-opacity:0.7;"/><rect id="迅杰" x="195.627" y="129.347" width="0.923" height="44.771" style="fill:#6b6868;fill-opacity:0.7;"/><rect id="應廣" x="190.199" y="129.347" width="0.923" height="44.771" style="fill:#6b6868;fill-opacity:0.7;"/><rect id="盛群" x="189.953" y="129.347" width="0.923" height="44.771" style="fill:#6b6868;fill-opacity:0.7;"/><rect id="展匯科" x="189.706" y="129.347" width="0.923" height="44.771" style="fill:#6b6868;fill-opacity:0.7;"/><rect id="矽統" x="188.966" y="129.347" width="0.923" height="44.771" style="fill:#6b6868;fill-opacity:0.7;"/><rect id="偉詮電" x="187.979" y="129.347" width="0.923" height="44.771" style="fill:#6b6868;fill-opacity:0.7;"/><rect id="九齊" x="187.979" y="129.347" width="0.923" height="44.771" style="fill:#6b6868;fill-opacity:0.7;"/><rect id="新唐" x="184.524" y="129.347" width="0.923" height="44.771" style="fill:#6b6868;fill-opacity:0.7;"/><rect id="立積" x="184.524" y="129.347" width="0.923" height="44.771" style="fill:#6b6868;fill-opacity:0.7;"/><rect id="聯傑" x="182.304" y="129.347" width="0.923" height="44.771" style="fill:#6b6868;fill-opacity:0.7;"/><rect id="茂達" x="178.109" y="129.347" width="0.923" height="44.771" style="fill:#6b6868;fill-opacity:0.7;"/><rect id="驊訊" x="172.435" y="129.347" width="0.923" height="44.771" style="fill:#6b6868;fill-opacity:0.7;"/><rect id="安國" x="166.513" y="129.347" width="0.923" height="44.771" style="fill:#6b6868;fill-opacity:0.7;"/><rect id="晶宏" x="166.266" y="129.347" width="0.923" height="44.771" style="fill:#6b6868;fill-opacity:0.7;"/><rect id="台勝科" x="166.019" y="129.347" width="0.923" height="44.771" style="fill:#6b6868;fill-opacity:0.7;"/><rect id="亞信" x="165.279" y="129.347" width="0.923" height="44.771" style="fill:#6b6868;fill-opacity:0.7;"/><rect id="通泰" x="161.578" y="129.347" width="0.923" height="44.771" style="fill:#6b6868;fill-opacity:0.7;"/><rect id="類比科" x="160.345" y="129.347" width="0.923" height="44.771" style="fill:#6b6868;fill-opacity:0.7;"/><rect id="紘康" x="157.631" y="129.347" width="0.923" height="44.771" style="fill:#6b6868;fill-opacity:0.7;"/><rect id="旺宏" x="156.89" y="129.347" width="0.923" height="44.771" style="fill:#6b6868;fill-opacity:0.7;"/><rect id="鈺創" x="154.67" y="129.347" width="0.923" height="44.771" style="fill:#6b6868;fill-opacity:0.7;"/><rect id="聯電" x="153.436" y="129.347" width="0.923" height="44.771" style="fill:#6b6868;fill-opacity:0.7;"/><rect id="旺玖" x="153.189" y="129.347" width="0.923" height="44.771" style="fill:#6b6868;fill-opacity:0.7;"/><rect id="禾瑞亞" x="152.449" y="129.347" width="0.923" height="44.771" style="fill:#6b6868;fill-opacity:0.7;"/><rect id="笙泉" x="150.969" y="129.347" width="0.923" height="44.771" style="fill:#6b6868;fill-opacity:0.7;"/><rect id="威剛" x="150.969" y="129.347" width="0.923" height="44.771" style="fill:#6b6868;fill-opacity:0.7;"/><rect id="笙科" x="150.475" y="129.347" width="0.923" height="44.771" style="fill:#6b6868;fill-opacity:0.7;"/><rect id="鑫創" x="148.748" y="129.347" width="0.923" height="44.771" style="fill:#6b6868;fill-opacity:0.7;"/><rect id="沛亨" x="147.268" y="129.347" width="0.923" height="44.771" style="fill:#6b6868;fill-opacity:0.7;"/><rect id="太欣" x="143.813" y="129.347" width="0.923" height="44.771" style="fill:#6b6868;fill-opacity:0.7;"/><rect id="世界" x="140.112" y="129.347" width="0.923" height="44.771" style="fill:#6b6868;fill-opacity:0.7;"/><rect id="京鼎" x="137.398" y="129.347" width="0.923" height="44.771" style="fill:#6b6868;fill-opacity:0.7;"/><rect id="穩懋" x="134.191" y="129.347" width="0.923" height="44.771" style="fill:#6b6868;fill-opacity:0.7;"/><rect id="旺矽" x="128.022" y="129.347" width="0.923" height="44.771" style="fill:#6b6868;fill-opacity:0.7;"/><rect id="凱鈺" x="127.036" y="129.347" width="0.923" height="44.771" style="fill:#6b6868;fill-opacity:0.7;"/><rect id="虹冠電" x="124.815" y="129.347" width="0.923" height="44.771" style="fill:#6b6868;fill-opacity:0.7;"/><rect id="尼克森" x="122.348" y="129.347" width="0.923" height="44.771" style="fill:#6b6868;fill-opacity:0.7;"/><rect id="富鼎" x="118.647" y="129.347" width="0.923" height="44.771" style="fill:#6b6868;fill-opacity:0.7;"/><rect id="鈺太" x="113.959" y="129.347" width="0.923" height="44.771" style="fill:#6b6868;fill-opacity:0.7;"/><rect id="凌泰" x="112.478" y="129.347" width="0.923" height="44.771" style="fill:#6b6868;fill-opacity:0.7;"/><rect id="晶焱" x="112.478" y="129.347" width="0.923" height="44.771" style="fill:#6b6868;fill-opacity:0.7;"/><rect id="研通" x="112.232" y="129.347" width="0.923" height="44.771" style="fill:#6b6868;fill-opacity:0.7;"/><rect id="佑華" x="111.985" y="129.347" width="0.923" height="44.771" style="fill:#6b6868;fill-opacity:0.7;"/><rect id="光罩" x="110.258" y="129.347" width="0.923" height="44.771" style="fill:#6b6868;fill-opacity:0.7;"/><rect id="南茂" x="108.531" y="129.347" width="0.923" height="44.771" style="fill:#6b6868;fill-opacity:0.7;"/><rect id="普誠" x="104.336" y="129.347" width="0.923" height="44.771" style="fill:#6b6868;fill-opacity:0.7;"/><rect id="中美晶" x="103.349" y="129.347" width="0.923" height="44.771" style="fill:#6b6868;fill-opacity:0.7;"/><rect id="達能" x="98.908" y="129.347" width="0.923" height="44.771" style="fill:#6b6868;fill-opacity:0.7;"/><rect id="宇瞻" x="96.934" y="129.347" width="0.923" height="44.771" style="fill:#6b6868;fill-opacity:0.7;"/><rect id="重鵬" x="93.727" y="129.347" width="0.923" height="44.771" style="fill:#6b6868;fill-opacity:0.7;"/><rect id="雍智科技" x="91.999" y="129.347" width="0.923" height="44.771" style="fill:#6b6868;fill-opacity:0.7;"/><rect id="立萬利" x="89.039" y="129.347" width="0.923" height="44.771" style="fill:#6b6868;fill-opacity:0.7;"/><rect id="倚強" x="88.792" y="129.347" width="0.923" height="44.771" style="fill:#6b6868;fill-opacity:0.7;"/><rect id="世紀" x="88.792" y="129.347" width="0.923" height="44.771" style="fill:#6b6868;fill-opacity:0.7;"/><rect id="博磊" x="88.052" y="129.347" width="0.923" height="44.771" style="fill:#6b6868;fill-opacity:0.7;"/><rect id="昇陽半導體" x="87.558" y="129.347" width="0.923" height="44.771" style="fill:#6b6868;fill-opacity:0.7;"/><rect id="敦南" x="84.104" y="129.347" width="0.923" height="44.771" style="fill:#6b6868;fill-opacity:0.7;"/><rect id="漢磊" x="83.857" y="129.347" width="0.923" height="44.771" style="fill:#6b6868;fill-opacity:0.7;"/><rect id="頎邦" x="83.61" y="129.347" width="0.923" height="44.771" style="fill:#6b6868;fill-opacity:0.7;"/><rect id="台星科" x="81.637" y="129.347" width="0.923" height="44.771" style="fill:#6b6868;fill-opacity:0.7;"/><rect id="嘉晶" x="80.896" y="129.347" width="0.923" height="44.771" style="fill:#6b6868;fill-opacity:0.7;"/><rect id="欣銓" x="80.896" y="129.347" width="0.923" height="44.771" style="fill:#6b6868;fill-opacity:0.7;"/><rect id="均華" x="80.65" y="129.347" width="0.923" height="44.771" style="fill:#6b6868;fill-opacity:0.7;"/><rect id="合邦" x="78.676" y="129.347" width="0.923" height="44.771" style="fill:#6b6868;fill-opacity:0.7;"/><rect id="辛耘" x="78.182" y="129.347" width="0.923" height="44.771" style="fill:#6b6868;fill-opacity:0.7;"/><rect id="宏捷科" x="77.195" y="129.347" width="0.923" height="44.771" style="fill:#6b6868;fill-opacity:0.7;"/><rect id="久元" x="74.481" y="129.347" width="0.923" height="44.771" style="fill:#6b6868;fill-opacity:0.7;"/><rect id="合晶" x="73.494" y="129.347" width="0.923" height="44.771" style="fill:#6b6868;fill-opacity:0.7;"/><rect id="日月光投控" x="68.56" y="129.347" width="0.923" height="44.771" style="fill:#6b6868;fill-opacity:0.7;"/><rect id="力成" x="68.066" y="129.347" width="0.923" height="44.771" style="fill:#6b6868;fill-opacity:0.7;"/><rect id="茂矽" x="66.092" y="129.347" width="0.923" height="44.771" style="fill:#6b6868;fill-opacity:0.7;"/><rect id="超豐" x="65.352" y="129.347" width="0.923" height="44.771" style="fill:#6b6868;fill-opacity:0.7;"/><rect id="精材" x="64.859" y="129.347" width="0.923" height="44.771" style="fill:#6b6868;fill-opacity:0.7;"/><rect id="京元電子" x="60.171" y="129.347" width="0.923" height="44.771" style="fill:#6b6868;fill-opacity:0.7;"/><rect id="創見" x="57.21" y="129.347" width="0.923" height="44.771" style="fill:#6b6868;fill-opacity:0.7;"/><rect id="矽格" x="52.769" y="129.347" width="0.923" height="44.771" style="fill:#6b6868;fill-opacity:0.7;"/><rect id="瑞耘" x="51.535" y="129.347" width="0.923" height="44.771" style="fill:#6b6868;fill-opacity:0.7;"/><rect id="同欣電" x="50.548" y="129.347" width="0.923" height="44.771" style="fill:#6b6868;fill-opacity:0.7;"/><rect id="海德威" x="50.055" y="129.347" width="0.923" height="44.771" style="fill:#6b6868;fill-opacity:0.7;"/><rect id="點序" x="49.561" y="129.347" width="0.923" height="44.771" style="fill:#6b6868;fill-opacity:0.7;"/><rect id="廣穎" x="48.081" y="129.347" width="0.923" height="44.771" style="fill:#6b6868;fill-opacity:0.7;"/><rect id="天方能源" x="47.094" y="129.347" width="0.923" height="44.771" style="fill:#6b6868;fill-opacity:0.7;"/><rect id="商丞" x="45.613" y="129.347" width="0.923" height="44.771" style="fill:#6b6868;fill-opacity:0.7;"/><rect id="台半" x="44.873" y="129.347" width="0.923" height="44.771" style="fill:#6b6868;fill-opacity:0.7;"/><rect id="景碩" x="42.406" y="129.347" width="0.923" height="44.771" style="fill:#6b6868;fill-opacity:0.7;"/><rect id="順德" x="41.419" y="129.347" width="0.923" height="44.771" style="fill:#6b6868;fill-opacity:0.7;"/><rect id="德微" x="39.692" y="129.347" width="0.923" height="44.771" style="fill:#6b6868;fill-opacity:0.7;"/><rect id="福懋科" x="36.731" y="129.347" width="0.923" height="44.771" style="fill:#6b6868;fill-opacity:0.7;"/><rect id="立衛" x="35.497" y="129.347" width="0.923" height="44.771" style="fill:#6b6868;fill-opacity:0.7;"/><rect id="統懋" x="34.757" y="129.347" width="0.923" height="44.771" style="fill:#6b6868;fill-opacity:0.7;"/><rect id="十銓" x="33.524" y="129.347" width="0.923" height="44.771" style="fill:#6b6868;fill-opacity:0.7;"/><rect id="長科" x="33.277" y="129.347" width="0.923" height="44.771" style="fill:#6b6868;fill-opacity:0.7;"/><rect id="界霖" x="32.783" y="129.347" width="0.923" height="44.771" style="fill:#6b6868;fill-opacity:0.7;"/><rect id="逸昌" x="31.55" y="129.347" width="0.923" height="44.771" style="fill:#6b6868;fill-opacity:0.7;"/><rect id="強茂" x="30.563" y="129.347" width="0.923" height="44.771" style="fill:#6b6868;fill-opacity:0.7;"/><rect id="易華電" x="28.342" y="129.347" width="0.923" height="44.771" style="fill:#6b6868;fill-opacity:0.7;"/><rect id="華泰" x="26.615" y="129.347" width="0.923" height="44.771" style="fill:#6b6868;fill-opacity:0.7;"/><rect id="誠創" x="26.615" y="129.347" width="0.923" height="44.771" style="fill:#6b6868;fill-opacity:0.7;"/><rect id="菱生" x="23.654" y="129.347" width="0.923" height="44.771" style="fill:#6b6868;fill-opacity:0.7;"/><rect id="典範" x="20.94" y="129.347" width="0.923" height="44.771" style="fill:#6b6868;fill-opacity:0.7;"/><rect id="家登" x="19.953" y="129.347" width="0.923" height="44.771" style="fill:#6b6868;fill-opacity:0.7;"/><rect id="華東" x="15.759" y="129.347" width="0.923" height="44.771" style="fill:#6b6868;fill-opacity:0.7;"/><rect id="元隆" x="10.824" y="129.347" width="0.923" height="44.771" style="fill:#6b6868;fill-opacity:0.7;"/><rect id="麗正" x="8.11" y="129.347" width="0.923" height="44.771" style="fill:#6b6868;fill-opacity:0.7;"/></g><g id="scanner"><animateTransform attributeName="transform" attributeType="XML" dur="2.5s" keyTimes="0;0.1;0.8;0.9;1" repeatCount="indefinite" type="translate" values="0 0;0 5;0 30;0 5;0 0;" calcMode="linear"></animateTransform><path d="M2.617,135.285l494.35,0" style="fill:none;stroke:#ff0008;stroke-opacity:0.56;stroke-width:1.98px;"/></g><path d="M35.408,57.379l11.187,0l0,3.222l-11.187,0l0,-3.222Zm11.187,-8.314l0,3.292l-11.187,0l0,-3.292l11.187,0Zm3.21,28.574c0.279,0.699 0.628,1.467 0.837,2.236l-4.327,0.419c3.211,-2.305 6.351,-5.237 9.074,-8.096l-4.049,-2.798c-0.837,1.049 -1.675,2.168 -2.582,3.218l-3.632,0.139c1.678,-1.468 3.423,-3.357 4.818,-5.176l-2.582,-1.399l7.048,0l0,-22.697l-26.958,0l0,62.589l7.956,0l0,-39.892l9.229,0c-1.399,2.448 -3.426,4.407 -4.125,4.967c-0.7,0.769 -1.539,1.119 -2.308,1.259c0.63,1.325 1.399,3.695 1.678,4.742l0,0.07c0.63,-0.279 1.678,-0.559 4.965,-0.838c-1.329,1.257 -2.448,2.166 -3.007,2.585c-1.398,1.048 -2.657,1.746 -3.636,1.886c0.49,1.258 1.189,3.633 1.399,4.611l0,0.07c1.122,-0.48 2.796,-0.83 12.367,-2.017c0.139,0.628 0.279,1.257 0.418,1.746l-3.069,0l0,7.126l-4.2,0l0,-5.938l-5.022,0l0,10.541l7.892,0c-1.12,1.676 -3.149,3.143 -6.776,4.121c1.186,1.048 2.929,3.284 3.557,4.611c8.804,-3.074 10.199,-8.243 10.199,-13.754l0,-6.707l-1.046,0l2.798,-0.978c-0.561,-1.956 -1.821,-5.17 -2.937,-7.685l-3.979,1.039Zm23.678,8.812l-5.301,0l0,5.938l-4.2,0l0,-7.13l-4.604,0c1.395,-0.35 4.115,-0.839 11.385,-1.748c0.209,0.839 0.488,1.678 0.698,2.307l4.122,-1.608c-0.63,-1.887 -2.03,-5.172 -3.286,-7.688l-3.905,1.258c0.348,0.699 0.627,1.468 0.976,2.236l-4.266,0.42c3.15,-2.447 6.219,-5.379 9.011,-8.308l-3.978,-2.868c-0.837,1.119 -1.813,2.238 -2.863,3.358l-3.43,0.139c1.68,-1.468 3.29,-3.287 4.689,-5.106l-2.729,-1.469l12.65,0l0,30.255c0,0.908 -0.28,1.258 -1.19,1.258c-0.629,0.069 -2.099,0.069 -3.779,0l0,-11.244Zm4.969,-37.386l0,3.292l-11.536,0l0,-3.292l11.536,0Zm-11.536,8.314l11.536,0l0,3.222l-11.536,0l0,-3.222Zm19.562,-13.894l-27.448,0l0,22.697l4.254,0c-1.465,2.518 -3.488,4.477 -4.116,5.107c-0.697,0.699 -1.535,1.049 -2.304,1.259c0.629,1.255 1.398,3.625 1.677,4.742c0.627,-0.279 1.674,-0.559 4.952,-0.838c-1.325,1.258 -2.371,2.167 -2.929,2.586c-1.396,1.118 -2.582,1.817 -3.7,1.887c0.489,1.188 1.118,3.215 1.467,4.334l-0.139,0l0,19.911l5.79,0l0,-8.178l4.2,0l0,1.96l3.348,0c0.837,2.166 1.535,4.96 1.744,6.777c4.688,0 7.97,-0.14 10.273,-1.537c2.373,-1.397 2.931,-3.703 2.931,-7.685l0,-53.022Z" style="fill:#333;fill-rule:nonzero;"/><path d="M156.699,51.999l0,3.223l-3.641,0l0,-3.223l3.641,0Zm0,12.585l-3.641,0l0,-3.363l3.641,0l0,3.363Zm-9.85,-9.362l-9.576,0l0,5.999l9.576,0l0,3.363l-7.06,0l0,5.929l7.06,0l0,3.153l-7.34,0l0,6.488l7.34,0l0,3.363l-8.668,0l0,6.418l8.668,0l0,6.288l6.209,0l0,-6.288l11.318,0l0,-6.418l-11.318,0l0,-3.363l9.99,0l0,-6.488l-9.99,0l0,-3.153l9.292,0l0,-9.292l3.633,0l0,-5.999l-3.633,0l0,-9.152l-9.292,0l0,-5.24l-6.209,0l0,5.24l-7.06,0l0,5.929l7.06,0l0,3.223Zm-12.021,10.265l-0.978,0.07l-1.956,0c2.165,-6.287 4.611,-13.903 6.567,-20.33l-13.833,0l0,7.056l5.239,0c-2.026,6.987 -4.541,14.462 -6.637,19.632l9.083,0c-0.35,4.052 -0.909,7.825 -1.677,11.108c-0.629,-1.607 -1.258,-3.493 -1.747,-5.589l-5.31,2.096c1.258,4.681 2.725,8.593 4.542,11.737c-1.328,3.004 -2.934,5.449 -4.891,7.336l-0.42,-6.428l-6.361,1.398l0,-16.139l6.358,0l0,-7.056l-6.358,0l0,-5.1l4.406,0l0,-6.917l-11.593,0c1.537,-2.096 2.932,-4.261 4.258,-6.637c3.489,2.655 6.984,6.009 9.22,8.663l2.866,-6.916c-2.097,-2.306 -5.522,-5.31 -9.087,-7.755c0.42,-0.838 0.769,-1.677 1.119,-2.515l-5.025,-2.795c-2.652,6.358 -7.193,12.436 -11.595,16.209c0.839,2.096 2.166,6.707 2.515,8.523c0.769,-0.699 1.467,-1.467 2.236,-2.305l0,2.445l5.1,0l0,5.1l-8.384,0l0,7.057l8.384,0l0,17.329c-3.493,0.699 -6.637,1.328 -9.152,1.817l1.327,7.468c5.659,-1.535 13.057,-3.419 20.116,-5.373c-0.769,0.768 -1.608,1.465 -2.517,2.024c1.328,1.255 2.866,3.837 3.775,5.583c3.214,-2.374 5.799,-5.304 7.825,-9.143c5.589,5.932 12.855,7.606 21.518,7.606l10.689,0c0.349,-1.953 1.327,-5.163 2.236,-6.768c-2.795,0.07 -10.34,0.07 -12.436,0.07c-7.545,0 -14.322,-1.537 -19.352,-7.407c2.096,-6.435 3.283,-14.539 3.702,-24.802l-3.772,-0.352Zm-31.089,15.855c0.838,3.843 1.676,8.803 1.886,12.156l4.541,-1.607c-0.349,-3.283 -1.188,-8.174 -2.166,-11.946l-4.261,1.397Zm17.116,11.248c0.837,-2.934 1.882,-7.545 3,-11.667l-4.952,-1.607c-0.349,3.493 -1.258,8.523 -2.027,11.737l3.979,1.537Z" style="fill:#333;fill-rule:nonzero;"/><path d="M220.131,55.847l8.244,0l0,-3.708l13.484,0l0,-6.558l-13.484,0l0,-4.751l-8.244,0l0,4.751l-8.174,0l0,6.558l8.174,0l0,3.708Zm-36.538,32.97c-1.258,3.773 -3.284,7.755 -5.799,10.41c1.537,0.908 4.122,2.795 5.309,3.843c2.585,-3.074 5.31,-7.965 6.777,-12.576l-6.287,-1.677Zm16.348,-23.753c-0.489,2.098 -1.468,4.896 -2.306,7.065l-4.471,0l0.768,-0.28c-0.489,-1.889 -1.816,-4.687 -3.213,-6.785l9.222,0Zm11.667,22.636l0,-6.209l-11.528,0l0,-3.293l12.226,0l0,-6.069l-7.615,0c0.769,-1.679 1.607,-3.568 2.515,-5.596l-6.008,-1.469l9.991,0l0,-6.07l-10.689,0c-0.629,-1.538 -1.398,-3.147 -2.096,-4.546l2.794,0l0,-2.309l8.244,0l0,-6.558l-8.244,0l0,-4.751l-8.244,0l0,4.751l-13.344,0l0,6.558l13.344,0l0,2.309l3.144,0l-6.008,1.538c0.419,0.91 0.838,1.959 1.257,3.008l-11.597,0l0,6.07l9.432,0l-4.961,1.679c1.048,1.609 1.956,3.567 2.515,5.386l-7.824,0l0,6.069l13.274,0l0,3.293l-12.226,0l0,6.209l12.226,0l0,17.815l7.894,0l0,-17.815l11.528,0Zm-10.48,3.213c1.747,2.795 3.773,6.777 4.751,9.222l5.589,-3.423c-1.048,-2.375 -3.074,-5.938 -5.03,-8.803l-5.31,3.004Zm41.15,-17.81l-20.33,0l0,-7.755c6.776,-1.048 13.972,-2.585 19.631,-4.472l-6.008,-5.938c-5.1,2.026 -13.554,3.982 -21.169,5.1l0,18.654c0,6.986 -0.349,15.789 -4.681,22.007c1.468,0.978 4.611,3.842 5.729,5.309c5.17,-6.707 6.358,-17.466 6.498,-25.779l5.449,0l0,25.5l7.825,0l0,-25.5l7.056,0l0,-7.126Z" style="fill:#333;fill-rule:nonzero;"/><path d="M274.834,44.253l-17.885,0l0,6.07l17.885,0l0,-6.07Zm-2.305,42.049l30.251,0l0,3.153l-30.251,0l0,-3.153Zm0,-7.685l30.251,0l0,3.013l-30.251,0l0,-3.013Zm0,-7.685l30.251,0l0,3.013l-30.251,0l0,-3.013Zm38.704,23.405l0,-28.356l-46.739,0l0,28.356l10.061,0c-4.891,2.445 -12.366,4.541 -19.073,5.798c1.817,1.398 4.751,4.472 6.148,6.078c7.056,-1.956 16.069,-5.449 21.798,-9.082l-6.079,-2.794l19.702,0l-4.262,3.423c6.917,2.515 14.183,5.938 18.165,8.244l7.475,-4.471c-4.122,-2.026 -10.968,-4.821 -17.396,-7.196l10.2,0Zm-12.086,-41.073l0,-2.168l7.755,0c-0.769,1.468 -1.677,2.937 -2.446,4.056l6.428,2.372c2.236,-2.792 4.611,-7.197 6.427,-11.039l-5.659,-1.747l-1.257,0.349l-19.841,0c0.419,-0.978 0.838,-2.026 1.187,-3.074l-7.266,-1.607c-1.606,4.751 -4.471,9.362 -8.174,12.438c1.747,0.979 4.821,3.005 6.148,4.261c1.747,-1.604 3.424,-3.701 4.891,-6.009l4.192,0l0,1.049c0,2.587 -1.747,5.728 -15.091,7.123l0,-4.256l-21.099,0l0,6.349l18.514,0c1.118,1.47 2.236,3.22 2.795,4.55c11.737,-1.33 17.536,-4.06 20.19,-7.131c4.402,3.841 10.48,6.081 18.305,7.061c0.978,-2.03 2.934,-5.038 4.611,-6.643c-9.432,-0.488 -16.838,-2.232 -20.61,-5.934Z" style="fill:#333;fill-rule:nonzero;"/><path d="M344.069,40.895c-2.934,10.131 -7.964,20.331 -13.414,26.898c1.328,2.166 3.354,6.986 4.052,8.942c1.258,-1.537 2.585,-3.353 3.843,-5.239l0,34.512l7.894,0l0,-49.044c2.026,-4.541 3.843,-9.222 5.31,-13.763l-7.685,-2.306Zm39.473,12.436c-1.747,2.445 -3.843,4.541 -6.288,6.428c-2.515,-2.026 -4.541,-4.192 -6.148,-6.428l12.436,0Zm-26.478,3.284c1.537,1.537 3.702,4.261 4.541,5.659c1.677,-1.258 3.283,-2.725 4.89,-4.332c1.328,1.886 2.865,3.773 4.751,5.519c-4.122,2.096 -8.873,3.703 -13.973,4.891c1.467,1.607 3.773,5.03 4.541,6.777c5.729,-1.677 10.969,-3.913 15.58,-6.637c4.332,2.724 9.432,5.1 15.37,6.497c1.118,-2.026 3.144,-5.17 4.751,-6.707c-5.31,-0.908 -9.851,-2.445 -13.694,-4.401c3.424,-2.935 6.428,-6.498 8.663,-10.55l3.354,0l0,-6.288l-21.518,0c0.768,-1.397 1.397,-2.864 2.026,-4.261l-7.406,-2.026c-2.375,5.938 -6.776,11.387 -11.876,15.02l0,-4.89l-6.987,0l0,43.385l6.987,0l0,-37.656Zm6.707,31.089c-2.026,3.982 -5.31,8.104 -8.943,10.899c1.747,0.908 4.89,2.864 6.218,4.052c3.563,-3.144 7.475,-8.174 9.851,-12.995l-7.126,-1.956Zm31.019,-1.956l0,-7.196l-14.182,0l0,-5.939l-7.685,0l0,5.939l-12.925,0l0,7.196l12.925,0l0,20.051l7.685,0l0,-20.051l14.182,0Zm-11.877,4.541c3.074,3.563 6.497,8.523 7.895,11.877l6.427,-3.493c-1.537,-3.214 -5.03,-7.965 -8.244,-11.318l-6.078,2.934Z" style="fill:#333;fill-rule:nonzero;"/><path d="M426.233,90.429l-5.528,0l0,-17.746l5.528,0l0,17.746Zm7.187,7.196l0,-32.068l-12.295,0c1.189,-4.681 2.099,-9.641 2.799,-14.671l11.526,0l0,-7.475l-26.403,0l0,7.475l7.122,0c-1.465,11.388 -4.048,22.007 -8.939,28.923c1.467,1.887 3.773,6.009 4.471,7.965c0.629,-0.838 1.258,-1.747 1.817,-2.725l0,18.025l7.187,0l0,-5.449l12.715,0Zm4.41,5.309c3.14,-4.052 4.327,-10.549 4.955,-16.767l-6.007,-1.467c-0.629,5.659 -1.956,11.527 -4.681,15.09l5.733,3.144Zm5.725,-15.304c0.768,3.982 1.048,9.292 0.908,12.785l5.729,-0.908c0.07,-3.424 -0.419,-8.663 -1.258,-12.646l-5.379,0.769Zm7.335,-0.419c1.048,3.283 2.166,7.754 2.446,10.549l5.309,-1.537c-0.279,-2.795 -1.467,-7.056 -2.794,-10.41l-4.961,1.398Zm-5.663,-15.929l6.855,0l0,4.27l-6.855,0l0,-4.27Zm6.855,-20.82l0,3.852l-6.855,0l0,-3.852l6.855,0Zm0,14.401l-6.855,0l0,-4.061l6.855,0l0,4.061Zm7.327,10.689l0,-4.27l9.995,0l0,-6.419l-9.995,0l0,-4.061l9.995,0l0,-6.488l-9.995,0l0,-3.852l12.091,0l0,-7.117l-33.809,0l0,39.324l27.382,0c-0.14,2.517 -0.28,4.614 -0.42,6.501c-0.769,-1.677 -1.748,-3.495 -2.796,-4.963l-4.053,1.678c1.466,2.516 3.004,5.941 3.633,8.178l2.937,-1.258c-0.42,3.355 -0.839,5.033 -1.399,5.662c-0.629,0.699 -1.188,0.839 -2.167,0.839c-1.119,0 -3.352,0 -5.865,-0.28c1.187,1.954 1.954,4.955 2.094,7.118c3.002,0.069 5.938,0.069 7.616,-0.21c1.957,-0.279 3.424,-0.837 4.821,-2.581c1.817,-2.233 2.585,-8.661 3.214,-24.8c0.07,-0.977 0.14,-3.001 0.14,-3.001l-13.419,0Z" style="fill:#333;fill-rule:nonzero;"/></svg>