<?xml version="1.0" encoding="UTF-8" standalone="no"?><!DOCTYPE svg PUBLIC "-//W3C//DTD SVG 1.1//EN" "http://www.w3.org/Graphics/SVG/1.1/DTD/svg11.dtd"><svg width="100%" height="100%" viewBox="0 0 1200 630" version="1.1" xmlns="http://www.w3.org/2000/svg" xmlns:xlink="http://www.w3.org/1999/xlink" xml:space="preserve" xmlns:serif="http://www.serif.com/" style="fill-rule:evenodd;clip-rule:evenodd;stroke-linecap:round;stroke-linejoin:round;stroke-miterlimit:1.5;"><g id="TNLlogo"><g><path d="M1073.39,544.994l-6.251,0l0,1.387l6.251,0l0,-1.387Zm-6.251,-1.603l6.251,0l0,-1.223l-6.251,0l0,1.223Zm3.072,18.376l2.257,0.134c0.614,0 0.922,-0.28 0.922,-0.842l0,-12.911l-8.534,0l0,-7.746l10.928,0l0,21.309c0,0.779 -0.168,1.383 -0.504,1.808c-0.335,0.426 -1.018,0.638 -2.051,0.638l-2.203,0l-0.815,-2.39Zm-3.289,-5.138l0,2.229l2.338,0l0,-1.985l2.037,0l0,3.751l-4.375,0l0,3.425l-2.121,0l0,-7.42l2.121,0Zm1.876,-8.047c-0.491,0.617 -0.907,1.088 -1.252,1.414l-1.303,1.25l2.555,0l0.597,-0.544l0.515,-0.57l1.768,0.626c-1.358,1.449 -2.771,2.627 -4.24,3.533c-0.109,0.055 -0.243,0.136 -0.407,0.245l1.629,-0.109c0.671,0 1.116,-0.055 1.333,-0.163l-0.191,-0.354l-0.217,-0.489l1.441,-0.326l0.626,1.414c0.073,0.199 0.208,0.616 0.407,1.25c0.017,0.072 0.055,0.173 0.107,0.299l-1.602,0.38l-0.218,-0.707l-2.936,0.246l-2.826,0.107l-0.463,-1.657l0.654,0c0.216,-0.126 0.388,-0.227 0.514,-0.299c0.383,-0.218 0.682,-0.417 0.899,-0.599l1.332,-1.004l-1.821,0.108l-1.63,0.027l-0.383,-1.522l0.599,0.027c0.996,-0.851 1.856,-1.821 2.582,-2.908l1.931,0.325Zm-10.764,15.522l-1.115,-1.876c2.555,-0.236 3.922,-0.924 4.104,-2.066l-4.431,0l0,-3.289l2.039,0l0,1.604l2.474,0l0,-1.848l2.121,0l0,2.881c0,2.464 -1.733,3.995 -5.192,4.594m3.559,-15.548l-1.413,1.468c-0.325,0.326 -0.761,0.706 -1.303,1.141l1.168,0.028l1.06,0.027c0.38,-0.273 0.635,-0.472 0.761,-0.599l0.517,-0.544l1.738,0.544c-1.974,1.83 -3.677,3.08 -5.109,3.751l1.495,-0.026l1.332,-0.082l-0.164,-0.408l-0.19,-0.462l1.495,-0.191c0.363,0.834 0.697,1.777 1.007,2.827l-1.767,0.3l-0.083,-0.599l-2.99,0.136l-3.126,0.082l-0.38,-1.713l0.816,0.083c0.216,-0.11 0.389,-0.191 0.515,-0.246c0.907,-0.416 1.732,-0.87 2.476,-1.358c0.07,-0.055 0.17,-0.118 0.298,-0.19l-1.603,0.053l-1.741,0.028l-0.326,-1.604l0.761,0.054c0.217,-0.199 0.39,-0.354 0.516,-0.461c1.051,-0.942 1.803,-1.749 2.256,-2.42l1.984,0.381Zm-6.848,-2.175l6.005,0l0,-1.387l-6.005,0l0,1.387Zm6.005,-4.213l-6.005,0l0,1.223l6.005,0l0,-1.223Zm2.257,5.98l-8.262,0l0,16.281l-2.393,0l0,-24.027l10.655,0l0,7.746Z" style="fill:#046eb7;fill-rule:nonzero;"/></g><g><path d="M1100.68,547.305l-1.794,0l0,2.094l1.794,0l0,-2.094Zm-0.026,-3.914l-1.768,0l0,2.039l1.768,0l0,-2.039Zm-12.992,10.682l-0.11,2.257c-0.071,0.869 -0.173,1.657 -0.299,2.365l-1.739,-0.218c0.018,-0.163 0.036,-0.299 0.054,-0.407c0.145,-0.834 0.236,-1.469 0.271,-1.904l0.164,-2.174l1.659,0.081Zm-7.394,5.681l-0.299,-2.718c-0.164,-1.359 -0.29,-2.247 -0.381,-2.664l1.738,-0.244l0.437,2.556c0.055,0.416 0.144,1.15 0.271,2.201c0,0.144 0.018,0.326 0.054,0.543l-1.82,0.326Zm6.903,2.229c-2.175,0.797 -4.82,1.45 -7.936,1.959l-0.273,-2.34l2.149,-0.325l1.602,-0.299l0,-8.291l-3.532,0l0,-2.038l3.532,0l0,-2.365l-2.229,0l0,-1.386l-0.84,0.897l-0.925,-2.257c0.29,-0.307 0.532,-0.561 0.734,-0.76c1.414,-1.487 2.527,-3.226 3.343,-5.219l2.174,0l1.63,2.337l1.795,2.528l-1.657,1.522l-1.443,-2.283l-1.25,-1.903c-0.561,1.486 -1.53,2.973 -2.908,4.458l6.007,0l0,2.066l-2.309,0l0,2.365l2.555,0l0,2.038l-2.555,0l0,7.855l1.195,-0.353l1.386,-0.408l0,1.986c0.67,-0.671 1.315,-1.55 1.929,-2.638c0.056,-0.108 0.138,-0.253 0.246,-0.434c-0.346,-0.78 -0.671,-1.695 -0.977,-2.746l-0.79,-2.799l1.711,-0.625l0.463,1.576c0.254,0.942 0.471,1.622 0.653,2.038c0.254,-0.96 0.418,-1.975 0.489,-3.044l0.219,-2.637l-2.964,0l0,-1.684c1.014,-1.849 1.731,-3.634 2.147,-5.355c0.055,-0.254 0.126,-0.561 0.217,-0.925l-2.988,0l0,-1.902l5.055,0l0,1.739c-0.11,0.453 -0.2,0.824 -0.273,1.114c-0.454,1.994 -1.033,3.697 -1.738,5.111l2.581,0l0,1.603c-0.126,3.66 -0.615,6.497 -1.467,8.508c1.124,1.595 2.761,2.464 4.92,2.61l0,-2.501l-3.425,0l0,-1.985l3.425,0l0,-1.847l-2.991,0l0,-1.985l2.991,0l0,-1.631l-2.991,0l0,-1.929l2.991,0l0,-2.094l-3.696,0l0,-1.875l3.696,0l0,-2.039l-2.991,0l0,-1.93l2.991,0l0,-2.012l2.037,0l0,2.012l3.698,0l0,3.969l1.168,0l0,1.875l-1.168,0l0,4.023l-3.698,0l0,1.631l4.188,0l0,1.985l-4.188,0l0,1.847l4.404,0l0,1.985l-4.404,0l0,2.664l2.121,0c1.051,0 1.967,-0.074 2.745,-0.217l-0.435,2.282l-4.022,0c-2.175,0 -3.897,-0.212 -5.165,-0.639c-1.267,-0.425 -2.346,-1.191 -3.234,-2.296c-0.943,1.486 -2.002,2.773 -3.181,3.859l-1.196,-1.848l0.652,-0.598Z" style="fill:#046eb7;fill-rule:nonzero;"/></g><g><path d="M1130.42,544.858c-0.673,2.791 -1.425,5.174 -2.257,7.149l-2.31,-1.087c0.778,-1.703 1.448,-3.534 2.01,-5.491c0.073,-0.29 0.181,-0.67 0.328,-1.141l2.229,0.57Zm-12.206,6.959c-0.108,-0.471 -0.199,-0.86 -0.273,-1.169c-0.47,-2.21 -1.003,-4.086 -1.602,-5.626l2.229,-0.626c0.525,1.341 0.896,2.401 1.115,3.181l1.005,3.615l-2.474,0.625Zm6.389,1.984l6.306,0l0,2.365l-6.306,0l0,8.262l-2.473,0l0,-8.262l-6.28,0l0,-2.365l6.28,0l0,-11.063l-5.9,0l0,-2.364l14.325,0l0,2.364l-5.952,0l0,11.063Zm-12.07,3.126l-3.643,0l0,3.941l3.643,0l0,-3.941Zm-5.952,-2.065l8.264,0l0,9.295l-2.312,0l0,-1.223l-3.642,0l0,1.494l-2.31,0l0,-9.566Zm-0.082,-4.241l8.291,0l0,2.094l-8.291,0l0,-2.094Zm0,-3.995l8.291,0l0,2.12l-8.291,0l0,-2.12Zm8.779,-1.794l-9.405,0l0,-2.256l3.725,0l-0.462,-1.387c-0.217,-0.525 -0.445,-1.006 -0.679,-1.44l2.473,-0.327l0.217,0.435c0.325,0.707 0.652,1.612 0.98,2.719l3.151,0l0,2.256Z" style="fill:#3e3a39;fill-rule:nonzero;"/></g><g><path d="M1154.06,561.956c0.416,0 0.626,-0.227 0.626,-0.68l0,-3.669l-1.931,0l0,4.293l1.305,0.056Zm0.626,-10.193l-1.931,0l0,3.724l1.931,0l0,-3.724Zm-4.105,-0.054l-1.765,0l0,3.751l1.765,0l0,-3.751Zm3.344,-6.307c-1.343,-0.924 -2.727,-2.156 -4.159,-3.696c-0.889,1.142 -2.221,2.373 -3.996,3.696l8.155,0Zm-7.258,6.307l-1.74,0l0,3.751l1.74,0l0,-3.751Zm6.088,11.551l-2.174,0l0,-5.68l-1.765,0l0,5.68l-2.149,0l0,-5.68l-1.74,0l0,6.849l-2.257,0l0,-14.841l14.273,0l0,11.824c0,0.925 -0.168,1.616 -0.505,2.079c-0.334,0.463 -1.018,0.694 -2.051,0.694l-1.441,0l-0.191,-0.925Zm-7.91,-17.178l-0.325,0.244c-0.29,0.218 -0.535,0.381 -0.734,0.489l-1.224,0.735l-1.358,-2.229c1.104,-0.452 2.351,-1.204 3.736,-2.257c1.387,-1.049 2.542,-2.219 3.466,-3.505l2.584,0c1.648,1.92 4.012,3.707 7.093,5.354l-0.977,2.365c-0.163,-0.091 -0.292,-0.154 -0.383,-0.19c-0.325,-0.163 -0.597,-0.307 -0.813,-0.436l-1.089,-0.651l0,1.684l-9.976,0l0,-1.603Zm-6.114,10.791l-2.61,0l0,3.914l2.61,0l0,-3.914Zm2.174,7.284l-2.174,0l0,-1.277l-2.61,0l0,1.549l-2.175,0l0,-9.621l6.959,0l0,9.349Zm-7.04,-13.617l7.067,0l0,2.146l-7.067,0l0,-2.146Zm0,-3.996l7.202,0l0,2.175l-7.202,0l0,-2.175Zm-0.817,-1.767l0,-2.256l3.319,0l-0.437,-1.196c-0.217,-0.615 -0.453,-1.141 -0.705,-1.576l2.336,-0.326c0.254,0.399 0.488,0.95 0.708,1.657l0.488,1.441l2.827,0l0,2.256l-8.536,0Z" style="fill:#3e3a39;fill-rule:nonzero;"/></g><g><path d="M1059.62,572.526c0.562,1.07 1.088,1.926 1.577,2.568c0.489,0.644 1.147,1.364 1.971,2.161l-1.088,1.034c-1.133,-1.133 -2.192,-2.642 -3.179,-4.527l-2.557,0l0,-1.236l3.276,0Zm1.469,4.675c-0.119,3.633 -0.341,5.75 -0.666,6.347c-0.166,0.317 -0.394,0.547 -0.695,0.694c-0.298,0.144 -0.995,0.217 -2.092,0.217c-0.38,0 -0.607,-0.005 -0.681,-0.013l-0.379,-1.265c0.934,0.027 1.626,0.042 2.077,0.042c0.401,0 0.659,-0.272 0.783,-0.816c0.124,-0.544 0.226,-1.871 0.305,-3.983l-3.125,0c-0.19,1.079 -0.513,2.037 -0.971,2.874c-0.458,0.84 -1.119,1.613 -1.984,2.325c-0.865,0.712 -1.385,1.067 -1.556,1.067l-0.871,-1.129c1.306,-0.696 2.254,-1.451 2.849,-2.263c0.594,-0.81 0.989,-1.768 1.188,-2.874l-2.201,0l0,-1.223l8.019,0Zm-6.7,-4.798l1.154,0.572c-0.778,1.993 -2.11,3.85 -3.994,5.572l-0.911,-1.155c1.058,-0.934 1.862,-1.795 2.403,-2.583c0.545,-0.788 0.994,-1.59 1.348,-2.406" style="fill:#595857;fill-rule:nonzero;"/></g><g><path d="M1073.93,576.102l-6.864,0l0,0.966l6.864,0l0,-0.966Zm-8.236,-1.033l9.607,0l0,3.044l-9.607,0l0,-3.044Zm-1.334,-0.666l0,-1.197l5.192,0l-0.19,-0.366l-0.271,-0.448l1.494,-0.178l0.285,0.518l0.233,0.474l5.476,0l0,1.197l-12.219,0Zm7.516,6.795l4.852,0l0,1.196l-5.205,0l0,0.803c0,0.524 -0.102,0.889 -0.306,1.093c-0.203,0.204 -0.612,0.306 -1.229,0.306l-1.945,0l-0.269,-1.236l1.928,0.04c0.298,0 0.449,-0.142 0.449,-0.422l0,-0.584l-5.939,0l0,-1.196l5.939,0l0,-0.503l1.181,-0.299l1.551,-0.462l-7.639,0l0,-1.168l10.043,0l0,1.045c-0.851,0.455 -1.829,0.861 -2.935,1.224c-0.126,0.045 -0.285,0.1 -0.476,0.163" style="fill:#595857;fill-rule:nonzero;"/></g><g><path d="M1086.2,579.499l2.432,0l0,-1.427l-2.432,0l0,1.427Zm0,-2.405l2.432,0l0,-1.319l-2.432,0l0,1.319Zm2.434,-3.48l-2.434,0l0,1.196l2.434,0l0,-1.196Zm-5.125,2.025l-0.991,0l0,1.032l0.991,0l0,-1.032Zm-1.89,6.645l-1.849,0l0,0.952l1.849,0l0,-0.952Zm0,-1.616l-1.849,0l0,0.815l1.849,0l0,-0.815Zm0,-1.522l-1.849,0l0,0.707l1.849,0l0,-0.707Zm-1.521,-3.507l-0.951,0l0,1.032l0.951,0l0,-1.032Zm0.937,-0.775l0,2.583l-2.827,0l0,-2.583l1.142,0l0,-0.761l-1.48,0l0,-0.924l1.48,0l0,-0.965l1.019,0l0,0.965l0.83,0l0,0.924l-0.83,0l0,0.761l0.666,0Zm3.345,9.297l-4.607,0l0,0.557l-1.06,0l0,-4.552l-0.219,0.299l-0.299,0.353l-0.367,-1.265c0.597,-0.552 1.075,-1.24 1.427,-2.065l1.062,0.135l-0.288,0.626l1.536,0l-0.175,-0.381l-0.217,-0.394l0.406,-0.164l0,-2.446l0.666,0l0,-0.761l-0.76,0l0,-0.924l0.76,0l0,-0.965l1.018,0l0,0.965l1.43,0l0,0.924l-1.43,0l0,0.761l1.183,0l0,2.583l-2.145,0l0.19,0.394l0.162,0.408l1.888,0l0,0.897l-1.86,0l0,0.707l1.725,0l0,0.815l-1.725,0l0,0.816l1.725,0l0,0.8l-1.725,0l0,0.952l1.889,0l0,0.205c0.796,-0.625 1.224,-1.591 1.277,-2.896l-0.748,0l0,-7.976l4.647,0l0,7.976l-1.302,0l0,2.461c0,0.244 0.026,0.397 0.08,0.461c0.054,0.065 0.181,0.097 0.382,0.097c0.244,0 0.365,-0.238 0.365,-0.708l0,-0.097l-0.013,-1.222l0.979,0.327l-0.028,1.413c0,0.833 -0.463,1.251 -1.385,1.251c-0.553,0 -0.926,-0.093 -1.122,-0.279c-0.194,-0.186 -0.292,-0.514 -0.292,-0.985l0,-2.719l-0.517,0c-0.109,1.849 -0.761,3.239 -1.957,4.173l-0.556,-0.557Z" style="fill:#595857;fill-rule:nonzero;"/></g><g><path d="M1102.26,579.268l-2.325,0l0,3.412l2.325,0l0,-3.412Zm-1.971,-1.101l0,-5.953l1.197,0l0,2.27l2.431,0l0,1.115l-2.431,0l0,2.568l1.928,0l0,6.551l-1.154,0l0,-0.939l-2.325,0l0,0.939l-1.154,0l0,-6.551l1.508,0Zm-2.758,5.79l-0.069,-0.341c-0.053,-0.254 -0.122,-0.502 -0.203,-0.746l-0.368,-1.087l0.804,-0.19c0.38,0.814 0.628,1.484 0.745,2.011l-0.909,0.353Zm-1.292,-8.997l0.177,-0.897l0.653,0.163l-0.164,1.033c-0.091,0.498 -0.163,0.816 -0.217,0.952l-0.748,-0.219l0.108,-0.325c0.1,-0.318 0.164,-0.554 0.191,-0.707m-0.639,1.686l1.767,0l0,-3.099l-1.767,0l0,3.099Zm0.055,7.677c-0.055,-0.932 -0.172,-1.73 -0.354,-2.39l0.885,-0.138c0.217,0.698 0.369,1.463 0.46,2.298l-0.991,0.23Zm-1.957,0.231c0.037,-0.307 0.054,-0.746 0.054,-1.318c0,-0.497 -0.017,-0.918 -0.054,-1.263l0.923,-0.069c0.083,0.409 0.123,0.807 0.123,1.197c0,0.723 0.003,1.173 0.013,1.345l-1.059,0.108Zm-0.572,-10.274l0.626,-0.177l0.273,0.844c0.061,0.207 0.131,0.489 0.203,0.843c0.009,0.044 0.022,0.107 0.04,0.19l-0.708,0.216l-0.175,-0.951c-0.091,-0.426 -0.177,-0.748 -0.259,-0.965m-0.258,2.366l1.715,0l0,-3.099l-1.715,0l0,3.099Zm0.34,5.34c-0.035,0.189 -0.064,0.348 -0.082,0.476c-0.163,0.869 -0.388,1.617 -0.678,2.243l-1.007,-0.436c0.372,-0.66 0.643,-1.467 0.816,-2.419l0.951,0.136Zm1.374,-2.541l-2.557,0l0,-1.02l2.557,0l0,-0.802l-2.679,0l0,-5.068l6.428,0l0,5.068l-2.731,0l0,0.802l2.609,0l0,1.02l-2.609,0l0,0.829l1.537,-0.108c0.434,0 0.843,-0.047 1.224,-0.138l0,1.007l-3.224,0.257c-1.439,0 -2.59,0.066 -3.45,0.192l-0.246,-1.102l1.347,-0.013l1.794,-0.053l0,-0.871Z" style="fill:#595857;fill-rule:nonzero;"/></g><g><path d="M1114.66,572.472c0.02,-0.063 0.042,-0.137 0.068,-0.219l1.237,0.286l-0.069,0.272c-0.134,0.5 -0.311,1.001 -0.528,1.509l1.086,0.747l0.967,0.667l-0.79,1.195c-0.661,-0.616 -1.268,-1.123 -1.821,-1.521c-0.325,0.543 -0.688,1.032 -1.087,1.466l-0.775,-1.14l-0.652,0.978l-0.815,-0.91c-0.064,-0.073 -0.199,-0.2 -0.409,-0.382c-0.054,-0.045 -0.131,-0.112 -0.23,-0.204c-0.036,0.055 -0.064,0.1 -0.082,0.137c-0.281,0.434 -0.63,0.879 -1.046,1.332c-0.035,0.036 -0.082,0.086 -0.135,0.149l-1.007,-0.937c0.554,-0.445 0.984,-0.916 1.299,-1.413c0.311,-0.499 0.603,-1.246 0.876,-2.243l1.196,0.19l-0.219,0.87c-0.061,0.253 -0.157,0.525 -0.285,0.816l0.857,0.707l0.789,0.691c0.814,-0.933 1.341,-1.947 1.575,-3.043m-0.869,4.539l0,1.739l2.908,0l0,1.224l-2.908,0l0,2.99c0.553,0.073 1.074,0.11 1.563,0.11l0.135,0l1.998,-0.029l-0.217,1.278l-1.265,0c-1.947,0 -3.232,-0.158 -3.851,-0.476c-0.622,-0.317 -1.235,-0.88 -1.843,-1.686l-0.463,1.169c-0.19,0.454 -0.419,0.898 -0.692,1.332l-0.964,-1.033c1.086,-1.875 1.679,-3.964 1.781,-6.264l1.236,0.041c-0.055,1.295 -0.199,2.405 -0.436,3.329c0.409,0.87 1.002,1.517 1.782,1.944l0,-5.668l1.236,0Zm-4.824,-3.819c-0.998,1.16 -2.04,2.183 -3.126,3.071l-0.68,-1.209c0.996,-0.725 1.898,-1.59 2.704,-2.596l1.102,0.734Zm-3.943,5.979c0.355,-0.235 0.77,-0.672 1.252,-1.311c0.481,-0.638 0.883,-1.301 1.208,-1.991l1.142,0.666l-0.395,0.708l-0.434,0.719l0,6.754l-1.222,0l0,-5.191l-0.489,0.557c-0.19,0.217 -0.418,0.44 -0.681,0.665l-0.381,-1.576Z" style="fill:#595857;fill-rule:nonzero;"/></g><g><path d="M1129.03,580.028l-4.46,0l0,1.128l4.46,0l0,-1.128Zm-5.667,-1.072l6.875,0l0,3.262l-6.875,0l0,-3.262Zm-0.164,-1.878l7.12,0l0,1.074l-7.12,0l0,-1.074Zm0,-1.819l7.12,0l0,1.072l-7.12,0l0,-1.072Zm3.437,-3.045c0.018,0.037 0.033,0.068 0.042,0.095c0.208,0.381 0.348,0.69 0.42,0.925c0.01,0.045 0.026,0.109 0.056,0.19l3.804,0l0,1.154l-8.534,0l0,-1.154l3.438,0l-0.191,-0.476c-0.126,-0.29 -0.229,-0.475 -0.311,-0.556l1.276,-0.178Zm-5.802,2.733c-0.734,-0.789 -1.379,-1.392 -1.931,-1.808l0.79,-0.788c0.696,0.48 1.302,0.977 1.82,1.495l0.164,0.162l-0.843,0.939Zm-1.863,3.914c0.626,-0.708 1.228,-1.554 1.808,-2.542l-2.093,0l0,-1.129l3.453,0l0,0.965c-0.436,0.824 -0.932,1.614 -1.482,2.366c-0.046,0.054 -0.1,0.127 -0.164,0.216l1.617,0l0,0.79c-0.053,0.343 -0.126,0.661 -0.216,0.95l-0.325,1.007c0.433,0.724 0.979,1.192 1.636,1.398c0.657,0.209 2.027,0.315 4.11,0.315c1.089,0 2.131,-0.023 3.128,-0.07c0.179,0 0.398,-0.013 0.65,-0.04l-0.217,1.265l-3.261,0c-2.545,0 -4.171,-0.123 -4.872,-0.368c-0.702,-0.245 -1.29,-0.71 -1.761,-1.399c-0.553,0.932 -1.06,1.624 -1.522,2.078l-0.869,-0.95c1.042,-0.961 1.803,-2.256 2.282,-3.888l-1.902,0l0,-0.964Z" style="fill:#595857;fill-rule:nonzero;"/></g><g><path d="M1143.04,575.314l-2.962,0l0,0.869l2.962,0l0,-0.869Zm-2.962,-0.843l2.962,0l0,-0.814l-2.962,0l0,0.814Zm2.5,8.902c0.308,0 0.462,-0.141 0.462,-0.422l0,-5.748l-4.158,0l0,-4.553l5.408,0l0,10.627c0,0.833 -0.425,1.251 -1.276,1.251l-1.482,0l-0.312,-1.209l1.358,0.054Zm-3.371,-4.377l-1.535,0l0,1.373l1.535,0l0,-1.373Zm1.144,1.373l1.929,0l0,1.073l-1.929,0l0,2.896l-1.144,0l0,-2.896l-1.577,0c-0.045,1.243 -0.764,2.246 -2.159,3.016l-0.925,-0.854c0.117,-0.065 0.217,-0.118 0.299,-0.163c0.96,-0.508 1.491,-1.174 1.59,-1.999l-1.944,0l0,-1.073l2.04,0l0,-1.373l-1.63,0l0,-1.047l6.971,0l0,1.047l-1.521,0l0,1.373Zm-6.566,-4.187l2.896,0l0,-0.869l-2.896,0l0,0.869Zm2.896,-2.528l-2.896,0l0,0.815l2.896,0l0,-0.815Zm1.208,3.549l-4.104,0l0,7.515l-1.252,0l0,-12.068l5.356,0l0,4.553Z" style="fill:#595857;fill-rule:nonzero;"/></g><g><path d="M1156.27,580.057l-3.684,0l0,2.785l3.684,0l0,-2.785Zm-4.893,-1.155l6.103,0l0,5.816l-1.21,0l0,-0.72l-3.684,0l0,0.72l-1.209,0l0,-5.816Zm4.716,-4.934l0.354,0.529c0.67,0.997 1.278,2.075 1.821,3.236l-1.142,0.665l-0.23,-0.543l-0.259,-0.502c-0.977,0.216 -1.911,0.326 -2.8,0.326c-1.013,0 -1.98,0.058 -2.894,0.176l-0.15,-1.291l0.394,0.027l0.367,-0.014c0.708,-1.323 1.278,-2.767 1.712,-4.336l1.348,0.191c-0.103,0.28 -0.182,0.512 -0.246,0.693c-0.471,1.414 -0.943,2.56 -1.413,3.439l1.576,-0.109c0.797,-0.083 1.319,-0.144 1.562,-0.19l-0.489,-0.885c-0.234,-0.406 -0.44,-0.733 -0.61,-0.977l1.099,-0.435Zm-7.99,5.816c0.252,0.164 0.447,0.313 0.584,0.45c0.442,-1.178 0.748,-2.505 0.909,-3.983c0.011,-0.109 0.026,-0.245 0.056,-0.407l-1.168,0l-0.381,1.698c-0.19,0.715 -0.387,1.331 -0.586,1.848l0.586,0.394Zm-0.639,-5.095l0.148,-1.184l0.124,-1.264l1.21,0.041l-0.137,1.332l-0.136,1.075l2.175,0l0,0.922c-0.164,2.022 -0.553,3.812 -1.17,5.37c0.427,0.317 0.911,0.769 1.455,1.358l-0.803,1.021l-0.652,-0.707l-0.597,-0.584c-0.67,1.013 -1.387,1.838 -2.148,2.472l-1.033,-0.87c0.916,-0.66 1.664,-1.453 2.243,-2.379l-0.951,-0.747l-1.088,-0.775c0.435,-1.059 0.82,-2.367 1.156,-3.926l-1.495,0l0,-1.155l1.699,0Z" style="fill:#595857;fill-rule:nonzero;"/></g><g><path d="M1040.8,561.122l0,2.01l-7.98,0l-6.299,13.25l-6.521,-14.58l-4.2,9.33l-25,0l0,-2.031l23.02,0l6.3,-13.75l6.51,15.661l5.18,-9.89l8.99,0Z" style="fill:#fff;fill-rule:nonzero;"/></g><g><path d="M1040.8,540.684l0,21.641l-8.99,0l-5.18,9.889l-6.51,-15.66l-6.3,13.75l-23.02,0l0,-29.62c0,-1.13 0.811,-2.08 1.88,-2.3c0.15,-0.04 0.309,-0.05 0.47,-0.05l45.3,0c0.161,0 0.321,0.01 0.47,0.05c1.069,0.22 1.88,1.17 1.88,2.3" style="fill:#009fdb;fill-rule:nonzero;"/></g><g><path d="M1040.8,563.132l0,21.64c0,1.3 -1.061,2.36 -2.35,2.36l-45.3,0c-1.289,0 -2.35,-1.06 -2.35,-2.36l0,-13.64l25,0l4.2,-9.33l6.521,14.58l6.299,-13.25l7.98,0Z" style="fill:#009fdb;fill-rule:nonzero;"/></g><path d="M793.339,484.829l23.544,7.848l-23.544,7.848l0,-15.696Z" style="fill:#f58600;"/><path d="M383.117,492.677l414.93,0" style="fill:none;stroke:#f58600;stroke-width:5.23px;"/></g><g id="companyMedian"></g><g id="companyRank"></g><g id="barcode"><g><g id="barcode1" serif:id="barcode"><rect id="聯詠" x="1124.02" y="185.635" width="3.951" height="168.907" style="fill:#007099;fill-opacity:0.7;"/><rect id="聯發科" x="1092.85" y="185.635" width="1.976" height="168.907" style="fill:#cdcaca;fill-opacity:0.49;"/><rect id="原相" x="962.339" y="185.635" width="1.976" height="168.907" style="fill:#cdcaca;fill-opacity:0.49;"/><rect id="揚智" x="942.261" y="185.635" width="1.976" height="168.907" style="fill:#cdcaca;fill-opacity:0.49;"/><rect id="群聯" x="863.534" y="185.635" width="1.976" height="168.907" style="fill:#cdcaca;fill-opacity:0.49;"/><rect id="瑞昱" x="818.094" y="185.635" width="1.976" height="168.907" style="fill:#cdcaca;fill-opacity:0.49;"/><rect id="創意" x="784.807" y="185.635" width="1.976" height="168.907" style="fill:#cdcaca;fill-opacity:0.49;"/><rect id="力旺" x="771.598" y="185.635" width="1.976" height="168.907" style="fill:#cdcaca;fill-opacity:0.49;"/><rect id="聯陽" x="761.559" y="185.635" width="1.976" height="168.907" style="fill:#cdcaca;fill-opacity:0.49;"/><rect id="M31" x="759.973" y="185.635" width="1.976" height="168.907" style="fill:#cdcaca;fill-opacity:0.49;"/><rect id="矽創" x="731.441" y="185.635" width="1.976" height="168.907" style="fill:#cdcaca;fill-opacity:0.49;"/><rect id="台積電" x="700.268" y="185.635" width="3.951" height="168.907" style="fill:#007099;fill-opacity:0.7;"/><rect id="義隆" x="699.211" y="185.635" width="1.976" height="168.907" style="fill:#cdcaca;fill-opacity:0.49;"/><rect id="晶豪科" x="685.473" y="185.635" width="1.976" height="168.907" style="fill:#cdcaca;fill-opacity:0.49;"/><rect id="致新" x="685.473" y="185.635" width="1.976" height="168.907" style="fill:#cdcaca;fill-opacity:0.49;"/><rect id="凌通" x="684.416" y="185.635" width="1.976" height="168.907" style="fill:#cdcaca;fill-opacity:0.49;"/><rect id="杰力" x="656.413" y="185.635" width="1.976" height="168.907" style="fill:#cdcaca;fill-opacity:0.49;"/><rect id="九暘" x="636.335" y="185.635" width="1.976" height="168.907" style="fill:#cdcaca;fill-opacity:0.49;"/><rect id="宏觀" x="632.636" y="185.635" width="1.976" height="168.907" style="fill:#cdcaca;fill-opacity:0.49;"/><rect id="環球晶" x="628.409" y="185.635" width="1.976" height="168.907" style="fill:#cdcaca;fill-opacity:0.49;"/><rect id="祥碩" x="614.143" y="185.635" width="1.976" height="168.907" style="fill:#cdcaca;fill-opacity:0.49;"/><rect id="智原" x="594.593" y="185.635" width="1.976" height="168.907" style="fill:#cdcaca;fill-opacity:0.49;"/><rect id="聚積" x="583.498" y="185.635" width="1.976" height="168.907" style="fill:#cdcaca;fill-opacity:0.49;"/><rect id="創惟" x="577.157" y="185.635" width="1.976" height="168.907" style="fill:#cdcaca;fill-opacity:0.49;"/><rect id="敦泰" x="575.572" y="185.635" width="1.976" height="168.907" style="fill:#cdcaca;fill-opacity:0.49;"/><rect id="松翰" x="558.136" y="185.635" width="1.976" height="168.907" style="fill:#cdcaca;fill-opacity:0.49;"/><rect id="愛普" x="550.21" y="185.635" width="1.976" height="168.907" style="fill:#cdcaca;fill-opacity:0.49;"/><rect id="晶心科" x="547.04" y="185.635" width="1.976" height="168.907" style="fill:#cdcaca;fill-opacity:0.49;"/><rect id="威盛" x="542.285" y="185.635" width="1.976" height="168.907" style="fill:#cdcaca;fill-opacity:0.49;"/><rect id="神盾" x="535.416" y="185.635" width="1.976" height="168.907" style="fill:#cdcaca;fill-opacity:0.49;"/><rect id="信驊" x="523.792" y="185.635" width="1.976" height="168.907" style="fill:#cdcaca;fill-opacity:0.49;"/><rect id="凌陽" x="516.923" y="185.635" width="1.976" height="168.907" style="fill:#cdcaca;fill-opacity:0.49;"/><rect id="通嘉" x="498.43" y="185.635" width="1.976" height="168.907" style="fill:#cdcaca;fill-opacity:0.49;"/><rect id="華邦電" x="487.334" y="185.635" width="1.976" height="168.907" style="fill:#cdcaca;fill-opacity:0.49;"/><rect id="晶相光" x="479.937" y="185.635" width="1.976" height="168.907" style="fill:#cdcaca;fill-opacity:0.49;"/><rect id="天鈺" x="477.824" y="185.635" width="1.976" height="168.907" style="fill:#cdcaca;fill-opacity:0.49;"/><rect id="大中" x="473.597" y="185.635" width="1.976" height="168.907" style="fill:#cdcaca;fill-opacity:0.49;"/><rect id="南亞科" x="471.483" y="185.635" width="1.976" height="168.907" style="fill:#cdcaca;fill-opacity:0.49;"/><rect id="金麗科" x="461.444" y="185.635" width="1.976" height="168.907" style="fill:#cdcaca;fill-opacity:0.49;"/><rect id="迅杰" x="460.387" y="185.635" width="1.976" height="168.907" style="fill:#cdcaca;fill-opacity:0.49;"/><rect id="應廣" x="448.763" y="185.635" width="1.976" height="168.907" style="fill:#cdcaca;fill-opacity:0.49;"/><rect id="盛群" x="448.235" y="185.635" width="1.976" height="168.907" style="fill:#cdcaca;fill-opacity:0.49;"/><rect id="展匯科" x="447.706" y="185.635" width="1.976" height="168.907" style="fill:#cdcaca;fill-opacity:0.49;"/><rect id="矽統" x="446.121" y="185.635" width="1.976" height="168.907" style="fill:#cdcaca;fill-opacity:0.49;"/><rect id="偉詮電" x="444.008" y="185.635" width="1.976" height="168.907" style="fill:#cdcaca;fill-opacity:0.49;"/><rect id="九齊" x="444.008" y="185.635" width="1.976" height="168.907" style="fill:#cdcaca;fill-opacity:0.49;"/><rect id="新唐" x="436.611" y="185.635" width="1.976" height="168.907" style="fill:#cdcaca;fill-opacity:0.49;"/><rect id="立積" x="436.611" y="185.635" width="1.976" height="168.907" style="fill:#cdcaca;fill-opacity:0.49;"/><rect id="聯傑" x="431.855" y="185.635" width="1.976" height="168.907" style="fill:#cdcaca;fill-opacity:0.49;"/><rect id="茂達" x="422.873" y="185.635" width="1.976" height="168.907" style="fill:#cdcaca;fill-opacity:0.49;"/><rect id="驊訊" x="410.721" y="185.635" width="1.976" height="168.907" style="fill:#cdcaca;fill-opacity:0.49;"/><rect id="安國" x="398.04" y="185.635" width="1.976" height="168.907" style="fill:#cdcaca;fill-opacity:0.49;"/><rect id="晶宏" x="397.511" y="185.635" width="1.976" height="168.907" style="fill:#cdcaca;fill-opacity:0.49;"/><rect id="台勝科" x="396.983" y="185.635" width="1.976" height="168.907" style="fill:#cdcaca;fill-opacity:0.49;"/><rect id="亞信" x="395.398" y="185.635" width="1.976" height="168.907" style="fill:#cdcaca;fill-opacity:0.49;"/><rect id="通泰" x="387.472" y="185.635" width="1.976" height="168.907" style="fill:#cdcaca;fill-opacity:0.49;"/><rect id="類比科" x="384.83" y="185.635" width="1.976" height="168.907" style="fill:#cdcaca;fill-opacity:0.49;"/><rect id="紘康" x="379.018" y="185.635" width="1.976" height="168.907" style="fill:#cdcaca;fill-opacity:0.49;"/><rect id="旺宏" x="377.433" y="185.635" width="1.976" height="168.907" style="fill:#cdcaca;fill-opacity:0.49;"/><rect id="鈺創" x="372.678" y="185.635" width="1.976" height="168.907" style="fill:#cdcaca;fill-opacity:0.49;"/><rect id="聯電" x="370.036" y="185.635" width="1.976" height="168.907" style="fill:#cdcaca;fill-opacity:0.49;"/><rect id="旺玖" x="369.508" y="185.635" width="1.976" height="168.907" style="fill:#cdcaca;fill-opacity:0.49;"/><rect id="禾瑞亞" x="367.923" y="185.635" width="1.976" height="168.907" style="fill:#cdcaca;fill-opacity:0.49;"/><rect id="笙泉" x="364.752" y="185.635" width="1.976" height="168.907" style="fill:#cdcaca;fill-opacity:0.49;"/><rect id="威剛" x="364.752" y="185.635" width="1.976" height="168.907" style="fill:#cdcaca;fill-opacity:0.49;"/><rect id="笙科" x="363.696" y="185.635" width="1.976" height="168.907" style="fill:#cdcaca;fill-opacity:0.49;"/><rect id="鑫創" x="359.997" y="185.635" width="1.976" height="168.907" style="fill:#cdcaca;fill-opacity:0.49;"/><rect id="沛亨" x="356.827" y="185.635" width="1.976" height="168.907" style="fill:#cdcaca;fill-opacity:0.49;"/><rect id="太欣" x="349.43" y="185.635" width="1.976" height="168.907" style="fill:#cdcaca;fill-opacity:0.49;"/><rect id="世界" x="341.504" y="185.635" width="1.976" height="168.907" style="fill:#cdcaca;fill-opacity:0.49;"/><rect id="京鼎" x="335.692" y="185.635" width="1.976" height="168.907" style="fill:#cdcaca;fill-opacity:0.49;"/><rect id="穩懋" x="328.823" y="185.635" width="1.976" height="168.907" style="fill:#cdcaca;fill-opacity:0.49;"/><rect id="精測" x="325.653" y="185.635" width="4.158" height="168.907" style="fill:#f8333c;fill-opacity:0.7;"/><rect id="旺矽" x="315.614" y="185.635" width="1.976" height="168.907" style="fill:#cdcaca;fill-opacity:0.49;"/><rect id="凱鈺" x="313.5" y="185.635" width="1.976" height="168.907" style="fill:#cdcaca;fill-opacity:0.49;"/><rect id="虹冠電" x="308.745" y="185.635" width="1.976" height="168.907" style="fill:#cdcaca;fill-opacity:0.49;"/><rect id="尼克森" x="303.461" y="185.635" width="1.976" height="168.907" style="fill:#cdcaca;fill-opacity:0.49;"/><rect id="富鼎" x="295.536" y="185.635" width="1.976" height="168.907" style="fill:#cdcaca;fill-opacity:0.49;"/><rect id="鈺太" x="285.497" y="185.635" width="1.976" height="168.907" style="fill:#cdcaca;fill-opacity:0.49;"/><rect id="凌泰" x="282.327" y="185.635" width="1.976" height="168.907" style="fill:#cdcaca;fill-opacity:0.49;"/><rect id="晶焱" x="282.327" y="185.635" width="1.976" height="168.907" style="fill:#cdcaca;fill-opacity:0.49;"/><rect id="研通" x="281.798" y="185.635" width="1.976" height="168.907" style="fill:#cdcaca;fill-opacity:0.49;"/><rect id="佑華" x="281.27" y="185.635" width="1.976" height="168.907" style="fill:#cdcaca;fill-opacity:0.49;"/><rect id="光罩" x="277.571" y="185.635" width="1.976" height="168.907" style="fill:#cdcaca;fill-opacity:0.49;"/><rect id="南茂" x="273.873" y="185.635" width="1.976" height="168.907" style="fill:#cdcaca;fill-opacity:0.49;"/><rect id="普誠" x="264.89" y="185.635" width="1.976" height="168.907" style="fill:#cdcaca;fill-opacity:0.49;"/><rect id="中美晶" x="262.777" y="185.635" width="1.976" height="168.907" style="fill:#cdcaca;fill-opacity:0.49;"/><rect id="達能" x="253.266" y="185.635" width="1.976" height="168.907" style="fill:#cdcaca;fill-opacity:0.49;"/><rect id="宇瞻" x="249.039" y="185.635" width="1.976" height="168.907" style="fill:#cdcaca;fill-opacity:0.49;"/><rect id="重鵬" x="242.17" y="185.635" width="1.976" height="168.907" style="fill:#cdcaca;fill-opacity:0.49;"/><rect id="雍智科技" x="238.472" y="185.635" width="1.976" height="168.907" style="fill:#cdcaca;fill-opacity:0.49;"/><rect id="立萬利" x="232.131" y="185.635" width="1.976" height="168.907" style="fill:#cdcaca;fill-opacity:0.49;"/><rect id="倚強" x="231.603" y="185.635" width="1.976" height="168.907" style="fill:#cdcaca;fill-opacity:0.49;"/><rect id="世紀" x="231.603" y="185.635" width="1.976" height="168.907" style="fill:#cdcaca;fill-opacity:0.49;"/><rect id="博磊" x="230.018" y="185.635" width="1.976" height="168.907" style="fill:#cdcaca;fill-opacity:0.49;"/><rect id="昇陽半導體" x="228.961" y="185.635" width="1.976" height="168.907" style="fill:#cdcaca;fill-opacity:0.49;"/><rect id="敦南" x="221.564" y="185.635" width="1.976" height="168.907" style="fill:#cdcaca;fill-opacity:0.49;"/><rect id="漢磊" x="221.036" y="185.635" width="1.976" height="168.907" style="fill:#cdcaca;fill-opacity:0.49;"/><rect id="頎邦" x="220.507" y="185.635" width="1.976" height="168.907" style="fill:#cdcaca;fill-opacity:0.49;"/><rect id="台星科" x="216.28" y="185.635" width="1.976" height="168.907" style="fill:#cdcaca;fill-opacity:0.49;"/><rect id="嘉晶" x="214.695" y="185.635" width="1.976" height="168.907" style="fill:#cdcaca;fill-opacity:0.49;"/><rect id="欣銓" x="214.695" y="185.635" width="1.976" height="168.907" style="fill:#cdcaca;fill-opacity:0.49;"/><rect id="均華" x="214.167" y="185.635" width="1.976" height="168.907" style="fill:#cdcaca;fill-opacity:0.49;"/><rect id="合邦" x="209.94" y="185.635" width="1.976" height="168.907" style="fill:#cdcaca;fill-opacity:0.49;"/><rect id="辛耘" x="208.883" y="185.635" width="1.976" height="168.907" style="fill:#cdcaca;fill-opacity:0.49;"/><rect id="宏捷科" x="206.77" y="185.635" width="1.976" height="168.907" style="fill:#cdcaca;fill-opacity:0.49;"/><rect id="久元" x="200.957" y="185.635" width="1.976" height="168.907" style="fill:#cdcaca;fill-opacity:0.49;"/><rect id="合晶" x="198.844" y="185.635" width="1.976" height="168.907" style="fill:#cdcaca;fill-opacity:0.49;"/><rect id="日月光投控" x="188.277" y="185.635" width="1.976" height="168.907" style="fill:#cdcaca;fill-opacity:0.49;"/><rect id="力成" x="187.22" y="185.635" width="1.976" height="168.907" style="fill:#cdcaca;fill-opacity:0.49;"/><rect id="茂矽" x="182.993" y="185.635" width="1.976" height="168.907" style="fill:#cdcaca;fill-opacity:0.49;"/><rect id="超豐" x="181.408" y="185.635" width="1.976" height="168.907" style="fill:#cdcaca;fill-opacity:0.49;"/><rect id="精材" x="180.351" y="185.635" width="1.976" height="168.907" style="fill:#cdcaca;fill-opacity:0.49;"/><rect id="京元電子" x="170.312" y="185.635" width="1.976" height="168.907" style="fill:#cdcaca;fill-opacity:0.49;"/><rect id="創見" x="163.972" y="185.635" width="1.976" height="168.907" style="fill:#cdcaca;fill-opacity:0.49;"/><rect id="矽格" x="154.461" y="185.635" width="1.976" height="168.907" style="fill:#cdcaca;fill-opacity:0.49;"/><rect id="瑞耘" x="151.819" y="185.635" width="1.976" height="168.907" style="fill:#cdcaca;fill-opacity:0.49;"/><rect id="同欣電" x="149.706" y="185.635" width="1.976" height="168.907" style="fill:#cdcaca;fill-opacity:0.49;"/><rect id="海德威" x="148.649" y="185.635" width="1.976" height="168.907" style="fill:#cdcaca;fill-opacity:0.49;"/><rect id="點序" x="147.592" y="185.635" width="1.976" height="168.907" style="fill:#cdcaca;fill-opacity:0.49;"/><rect id="廣穎" x="144.422" y="185.635" width="1.976" height="168.907" style="fill:#cdcaca;fill-opacity:0.49;"/><rect id="天方能源" x="142.308" y="185.635" width="1.976" height="168.907" style="fill:#cdcaca;fill-opacity:0.49;"/><rect id="商丞" x="139.138" y="185.635" width="1.976" height="168.907" style="fill:#cdcaca;fill-opacity:0.49;"/><rect id="台半" x="137.553" y="185.635" width="1.976" height="168.907" style="fill:#cdcaca;fill-opacity:0.49;"/><rect id="景碩" x="132.269" y="185.635" width="1.976" height="168.907" style="fill:#cdcaca;fill-opacity:0.49;"/><rect id="順德" x="130.156" y="185.635" width="1.976" height="168.907" style="fill:#cdcaca;fill-opacity:0.49;"/><rect id="德微" x="126.457" y="185.635" width="1.976" height="168.907" style="fill:#cdcaca;fill-opacity:0.49;"/><rect id="福懋科" x="120.117" y="185.635" width="1.976" height="168.907" style="fill:#cdcaca;fill-opacity:0.49;"/><rect id="立衛" x="117.475" y="185.635" width="1.976" height="168.907" style="fill:#cdcaca;fill-opacity:0.49;"/><rect id="統懋" x="115.89" y="185.635" width="1.976" height="168.907" style="fill:#cdcaca;fill-opacity:0.49;"/><rect id="十銓" x="113.248" y="185.635" width="1.976" height="168.907" style="fill:#cdcaca;fill-opacity:0.49;"/><rect id="長科" x="112.72" y="185.635" width="1.976" height="168.907" style="fill:#cdcaca;fill-opacity:0.49;"/><rect id="界霖" x="111.663" y="185.635" width="1.976" height="168.907" style="fill:#cdcaca;fill-opacity:0.49;"/><rect id="逸昌" x="109.021" y="185.635" width="1.976" height="168.907" style="fill:#cdcaca;fill-opacity:0.49;"/><rect id="強茂" x="106.908" y="185.635" width="1.976" height="168.907" style="fill:#cdcaca;fill-opacity:0.49;"/><rect id="易華電" x="102.152" y="185.635" width="1.976" height="168.907" style="fill:#cdcaca;fill-opacity:0.49;"/><rect id="華泰" x="98.454" y="185.635" width="1.976" height="168.907" style="fill:#cdcaca;fill-opacity:0.49;"/><rect id="誠創" x="98.454" y="185.635" width="1.976" height="168.907" style="fill:#cdcaca;fill-opacity:0.49;"/><rect id="菱生" x="92.113" y="185.635" width="1.976" height="168.907" style="fill:#cdcaca;fill-opacity:0.49;"/><rect id="典範" x="86.301" y="185.635" width="1.976" height="168.907" style="fill:#cdcaca;fill-opacity:0.49;"/><rect id="家登" x="84.188" y="185.635" width="1.976" height="168.907" style="fill:#cdcaca;fill-opacity:0.49;"/><rect id="華東" x="75.205" y="185.635" width="1.976" height="168.907" style="fill:#cdcaca;fill-opacity:0.49;"/><rect id="元隆" x="64.638" y="185.635" width="1.976" height="168.907" style="fill:#cdcaca;fill-opacity:0.49;"/><rect id="麗正" x="58.826" y="185.635" width="1.976" height="168.907" style="fill:#cdcaca;fill-opacity:0.49;"/><rect id="品安" x="57.241" y="185.635" width="3.951" height="168.907" style="fill:#007099;fill-opacity:0.7;"/></g><g><path d="M69.571,165.88l0,207.429" style="fill:none;stroke:#999;stroke-opacity:0.62;stroke-width:0.99px;stroke-linecap:butt;stroke-miterlimit:2;"/><path d="M175.245,165.88l0,207.429" style="fill:none;stroke:#999;stroke-opacity:0.62;stroke-width:0.99px;stroke-linecap:butt;stroke-miterlimit:2;"/><path d="M280.919,165.88l0,207.429" style="fill:none;stroke:#999;stroke-opacity:0.62;stroke-width:0.99px;stroke-linecap:butt;stroke-miterlimit:2;"/><path d="M386.593,165.88l0,207.429" style="fill:none;stroke:#999;stroke-opacity:0.62;stroke-width:0.99px;stroke-linecap:butt;stroke-miterlimit:2;"/><path d="M492.268,165.88l0,207.429" style="fill:none;stroke:#999;stroke-opacity:0.62;stroke-width:0.99px;stroke-linecap:butt;stroke-miterlimit:2;"/><path d="M597.942,165.88l0,207.429" style="fill:none;stroke:#999;stroke-opacity:0.62;stroke-width:0.99px;stroke-linecap:butt;stroke-miterlimit:2;"/><path d="M703.616,165.88l0,207.429" style="fill:none;stroke:#999;stroke-opacity:0.62;stroke-width:0.99px;stroke-linecap:butt;stroke-miterlimit:2;"/><path d="M809.29,165.88l0,207.429" style="fill:none;stroke:#999;stroke-opacity:0.62;stroke-width:0.99px;stroke-linecap:butt;stroke-miterlimit:2;"/><path d="M914.964,165.88l0,207.429" style="fill:none;stroke:#999;stroke-opacity:0.62;stroke-width:0.99px;stroke-linecap:butt;stroke-miterlimit:2;"/><path d="M1020.64,165.88l0,207.429" style="fill:none;stroke:#999;stroke-opacity:0.62;stroke-width:0.99px;stroke-linecap:butt;stroke-miterlimit:2;"/></g><text x="54.785px" y="156.99px" style="font-family:'NotoSansTC-Regular', 'Noto Sans TC', sans-serif;font-size:17.78px;fill:#4d4d4d;stroke:#4d4d4d;stroke-width:0.14px;stroke-linecap:butt;stroke-miterlimit:2;">400 k</text><text x="160.444px" y="156.99px" style="font-family:'NotoSansTC-Regular', 'Noto Sans TC', sans-serif;font-size:17.78px;fill:#4d4d4d;stroke:#4d4d4d;stroke-width:0.14px;stroke-linecap:butt;stroke-miterlimit:2;">600</text><text x="266.118px" y="156.99px" style="font-family:'NotoSansTC-Regular', 'Noto Sans TC', sans-serif;font-size:17.78px;fill:#4d4d4d;stroke:#4d4d4d;stroke-width:0.14px;stroke-linecap:butt;stroke-miterlimit:2;">800</text><text x="364.387px" y="156.99px" style="font-family:'NotoSansTC-Regular', 'Noto Sans TC', sans-serif;font-size:17.78px;fill:#4d4d4d;stroke:#4d4d4d;stroke-width:0.14px;stroke-linecap:butt;stroke-miterlimit:2;">1,000</text><text x="470.061px" y="156.99px" style="font-family:'NotoSansTC-Regular', 'Noto Sans TC', sans-serif;font-size:17.78px;fill:#4d4d4d;stroke:#4d4d4d;stroke-width:0.14px;stroke-linecap:butt;stroke-miterlimit:2;">1,200</text><text x="575.735px" y="156.99px" style="font-family:'NotoSansTC-Regular', 'Noto Sans TC', sans-serif;font-size:17.78px;fill:#4d4d4d;stroke:#4d4d4d;stroke-width:0.14px;stroke-linecap:butt;stroke-miterlimit:2;">1,400</text><text x="681.409px" y="156.99px" style="font-family:'NotoSansTC-Regular', 'Noto Sans TC', sans-serif;font-size:17.78px;fill:#4d4d4d;stroke:#4d4d4d;stroke-width:0.14px;stroke-linecap:butt;stroke-miterlimit:2;">1,600</text><text x="787.083px" y="156.99px" style="font-family:'NotoSansTC-Regular', 'Noto Sans TC', sans-serif;font-size:17.78px;fill:#4d4d4d;stroke:#4d4d4d;stroke-width:0.14px;stroke-linecap:butt;stroke-miterlimit:2;">1,800</text><text x="892.757px" y="156.99px" style="font-family:'NotoSansTC-Regular', 'Noto Sans TC', sans-serif;font-size:17.78px;fill:#4d4d4d;stroke:#4d4d4d;stroke-width:0.14px;stroke-linecap:butt;stroke-miterlimit:2;">2,000</text><text x="998.431px" y="156.99px" style="font-family:'NotoSansTC-Regular', 'Noto Sans TC', sans-serif;font-size:17.78px;fill:#4d4d4d;stroke:#4d4d4d;stroke-width:0.14px;stroke-linecap:butt;stroke-miterlimit:2;">2,200</text><g><g><path d="M57.982,270.088l1066.78,0" style="fill:none;stroke:#8c8c8c;stroke-opacity:0.57;stroke-width:0.99px;stroke-linecap:butt;stroke-miterlimit:2;"/></g></g></g><text x="442.297px" y="537.393px" style="font-family:'NotoSansTC-Bold', 'Noto Sans TC', sans-serif;font-weight:700;font-size:24px;fill:#f58600;">薪<tspan x="468.697px 495.097px 521.497px 547.897px 574.297px 600.697px 627.097px 653.497px 679.897px 706.297px 732.697px " y="537.393px 537.393px 537.393px 537.393px 537.393px 537.393px 537.393px 537.393px 537.393px 537.393px 537.393px ">資中位數高、名次較前面</tspan></text></g><g transform="matrix(0.987759,0,0,0.987759,1104.27,399.859)"><text x="0px" y="0px" style="font-family:'NotoSansTC-Regular', 'Noto Sans TC', sans-serif;font-size:24px;fill:#007099;">聯詠</text><text x="-8.31px" y="26px" style="font-family:'NotoSansTC-Regular', 'Noto Sans TC', sans-serif;font-size:20px;fill:#007099;">(第1名)</text></g><g transform="matrix(0.987759,0,0,0.987759,678.521,399.859)"><text x="-12px" y="0px" style="font-family:'NotoSansTC-Regular', 'Noto Sans TC', sans-serif;font-size:24px;fill:#007099;">台積電</text><text x="-13.86px" y="26px" style="font-family:'NotoSansTC-Regular', 'Noto Sans TC', sans-serif;font-size:20px;fill:#007099;">(第12名)</text></g><g transform="matrix(0.987759,0,0,0.987759,304.016,399.859)"><text x="0px" y="0px" style="font-family:'NotoSansTC-Regular', 'Noto Sans TC', sans-serif;font-size:24px;fill:#f8333c;">精測</text><text x="-32.76px" y="26px" style="font-family:'NotoSansTC-Regular', 'Noto Sans TC', sans-serif;font-size:20px;fill:#f8333c;">(產業中位數)</text></g><g transform="matrix(0.987759,0,0,0.987759,35.3328,399.859)"><text x="0px" y="0px" style="font-family:'NotoSansTC-Regular', 'Noto Sans TC', sans-serif;font-size:24px;fill:#007099;">品安</text><text x="-19.41px" y="26px" style="font-family:'NotoSansTC-Regular', 'Noto Sans TC', sans-serif;font-size:20px;fill:#007099;">(第145名)</text></g><text x="49.848px" y="90.345px" style="font-family:'NotoSansTC-Bold', 'Noto Sans TC', sans-serif;font-weight:700;font-size:40px;fill:#4d4d4d;stroke:#4d4d4d;stroke-width:0.14px;stroke-linecap:butt;stroke-miterlimit:2;">每一條垂線代表一家公司（以半導體產業為例）</text></svg>