<?xml version="1.0" encoding="UTF-8" standalone="no"?><!DOCTYPE svg PUBLIC "-//W3C//DTD SVG 1.1//EN" "http://www.w3.org/Graphics/SVG/1.1/DTD/svg11.dtd"><svg width="100%" height="100%" viewBox="0 0 1200 630" version="1.1" xmlns="http://www.w3.org/2000/svg" xmlns:xlink="http://www.w3.org/1999/xlink" xml:space="preserve" xmlns:serif="http://www.serif.com/" style="fill-rule:evenodd;clip-rule:evenodd;stroke-linecap:round;stroke-linejoin:round;stroke-miterlimit:1.5;"><g id="TNLlogo"><g><path d="M1073.39,544.994l-6.251,0l0,1.387l6.251,0l0,-1.387Zm-6.251,-1.603l6.251,0l0,-1.223l-6.251,0l0,1.223Zm3.072,18.376l2.257,0.134c0.614,0 0.922,-0.28 0.922,-0.842l0,-12.911l-8.534,0l0,-7.746l10.928,0l0,21.309c0,0.779 -0.168,1.383 -0.504,1.808c-0.335,0.426 -1.018,0.638 -2.051,0.638l-2.203,0l-0.815,-2.39Zm-3.289,-5.138l0,2.229l2.338,0l0,-1.985l2.037,0l0,3.751l-4.375,0l0,3.425l-2.121,0l0,-7.42l2.121,0Zm1.876,-8.047c-0.491,0.617 -0.907,1.088 -1.252,1.414l-1.303,1.25l2.555,0l0.597,-0.544l0.515,-0.57l1.768,0.626c-1.358,1.449 -2.771,2.627 -4.24,3.533c-0.109,0.055 -0.243,0.136 -0.407,0.245l1.629,-0.109c0.671,0 1.116,-0.055 1.333,-0.163l-0.191,-0.354l-0.217,-0.489l1.441,-0.326l0.626,1.414c0.073,0.199 0.208,0.616 0.407,1.25c0.017,0.072 0.055,0.173 0.107,0.299l-1.602,0.38l-0.218,-0.707l-2.936,0.246l-2.826,0.107l-0.463,-1.657l0.654,0c0.216,-0.126 0.388,-0.227 0.514,-0.299c0.383,-0.218 0.682,-0.417 0.899,-0.599l1.332,-1.004l-1.821,0.108l-1.63,0.027l-0.383,-1.522l0.599,0.027c0.996,-0.851 1.856,-1.821 2.582,-2.908l1.931,0.325Zm-10.764,15.522l-1.115,-1.876c2.555,-0.236 3.922,-0.924 4.104,-2.066l-4.431,0l0,-3.289l2.039,0l0,1.604l2.474,0l0,-1.848l2.121,0l0,2.881c0,2.464 -1.733,3.995 -5.192,4.594m3.559,-15.548l-1.413,1.468c-0.325,0.326 -0.761,0.706 -1.303,1.141l1.168,0.028l1.06,0.027c0.38,-0.273 0.635,-0.472 0.761,-0.599l0.517,-0.544l1.738,0.544c-1.974,1.83 -3.677,3.08 -5.109,3.751l1.495,-0.026l1.332,-0.082l-0.164,-0.408l-0.19,-0.462l1.495,-0.191c0.363,0.834 0.697,1.777 1.007,2.827l-1.767,0.3l-0.083,-0.599l-2.99,0.136l-3.126,0.082l-0.38,-1.713l0.816,0.083c0.216,-0.11 0.389,-0.191 0.515,-0.246c0.907,-0.416 1.732,-0.87 2.476,-1.358c0.07,-0.055 0.17,-0.118 0.298,-0.19l-1.603,0.053l-1.741,0.028l-0.326,-1.604l0.761,0.054c0.217,-0.199 0.39,-0.354 0.516,-0.461c1.051,-0.942 1.803,-1.749 2.256,-2.42l1.984,0.381Zm-6.848,-2.175l6.005,0l0,-1.387l-6.005,0l0,1.387Zm6.005,-4.213l-6.005,0l0,1.223l6.005,0l0,-1.223Zm2.257,5.98l-8.262,0l0,16.281l-2.393,0l0,-24.027l10.655,0l0,7.746Z" style="fill:#046eb7;fill-rule:nonzero;"/></g><g><path d="M1100.68,547.305l-1.794,0l0,2.094l1.794,0l0,-2.094Zm-0.026,-3.914l-1.768,0l0,2.039l1.768,0l0,-2.039Zm-12.992,10.682l-0.11,2.257c-0.071,0.869 -0.173,1.657 -0.299,2.365l-1.739,-0.218c0.018,-0.163 0.036,-0.299 0.054,-0.407c0.145,-0.834 0.236,-1.469 0.271,-1.904l0.164,-2.174l1.659,0.081Zm-7.394,5.681l-0.299,-2.718c-0.164,-1.359 -0.29,-2.247 -0.381,-2.664l1.738,-0.244l0.437,2.556c0.055,0.416 0.144,1.15 0.271,2.201c0,0.144 0.018,0.326 0.054,0.543l-1.82,0.326Zm6.903,2.229c-2.175,0.797 -4.82,1.45 -7.936,1.959l-0.273,-2.34l2.149,-0.325l1.602,-0.299l0,-8.291l-3.532,0l0,-2.038l3.532,0l0,-2.365l-2.229,0l0,-1.386l-0.84,0.897l-0.925,-2.257c0.29,-0.307 0.532,-0.561 0.734,-0.76c1.414,-1.487 2.527,-3.226 3.343,-5.219l2.174,0l1.63,2.337l1.795,2.528l-1.657,1.522l-1.443,-2.283l-1.25,-1.903c-0.561,1.486 -1.53,2.973 -2.908,4.458l6.007,0l0,2.066l-2.309,0l0,2.365l2.555,0l0,2.038l-2.555,0l0,7.855l1.195,-0.353l1.386,-0.408l0,1.986c0.67,-0.671 1.315,-1.55 1.929,-2.638c0.056,-0.108 0.138,-0.253 0.246,-0.434c-0.346,-0.78 -0.671,-1.695 -0.977,-2.746l-0.79,-2.799l1.711,-0.625l0.463,1.576c0.254,0.942 0.471,1.622 0.653,2.038c0.254,-0.96 0.418,-1.975 0.489,-3.044l0.219,-2.637l-2.964,0l0,-1.684c1.014,-1.849 1.731,-3.634 2.147,-5.355c0.055,-0.254 0.126,-0.561 0.217,-0.925l-2.988,0l0,-1.902l5.055,0l0,1.739c-0.11,0.453 -0.2,0.824 -0.273,1.114c-0.454,1.994 -1.033,3.697 -1.738,5.111l2.581,0l0,1.603c-0.126,3.66 -0.615,6.497 -1.467,8.508c1.124,1.595 2.761,2.464 4.92,2.61l0,-2.501l-3.425,0l0,-1.985l3.425,0l0,-1.847l-2.991,0l0,-1.985l2.991,0l0,-1.631l-2.991,0l0,-1.929l2.991,0l0,-2.094l-3.696,0l0,-1.875l3.696,0l0,-2.039l-2.991,0l0,-1.93l2.991,0l0,-2.012l2.037,0l0,2.012l3.698,0l0,3.969l1.168,0l0,1.875l-1.168,0l0,4.023l-3.698,0l0,1.631l4.188,0l0,1.985l-4.188,0l0,1.847l4.404,0l0,1.985l-4.404,0l0,2.664l2.121,0c1.051,0 1.967,-0.074 2.745,-0.217l-0.435,2.282l-4.022,0c-2.175,0 -3.897,-0.212 -5.165,-0.639c-1.267,-0.425 -2.346,-1.191 -3.234,-2.296c-0.943,1.486 -2.002,2.773 -3.181,3.859l-1.196,-1.848l0.652,-0.598Z" style="fill:#046eb7;fill-rule:nonzero;"/></g><g><path d="M1130.42,544.858c-0.673,2.791 -1.425,5.174 -2.257,7.149l-2.31,-1.087c0.778,-1.703 1.448,-3.534 2.01,-5.491c0.073,-0.29 0.181,-0.67 0.328,-1.141l2.229,0.57Zm-12.206,6.959c-0.108,-0.471 -0.199,-0.86 -0.273,-1.169c-0.47,-2.21 -1.003,-4.086 -1.602,-5.626l2.229,-0.626c0.525,1.341 0.896,2.401 1.115,3.181l1.005,3.615l-2.474,0.625Zm6.389,1.984l6.306,0l0,2.365l-6.306,0l0,8.262l-2.473,0l0,-8.262l-6.28,0l0,-2.365l6.28,0l0,-11.063l-5.9,0l0,-2.364l14.325,0l0,2.364l-5.952,0l0,11.063Zm-12.07,3.126l-3.643,0l0,3.941l3.643,0l0,-3.941Zm-5.952,-2.065l8.264,0l0,9.295l-2.312,0l0,-1.223l-3.642,0l0,1.494l-2.31,0l0,-9.566Zm-0.082,-4.241l8.291,0l0,2.094l-8.291,0l0,-2.094Zm0,-3.995l8.291,0l0,2.12l-8.291,0l0,-2.12Zm8.779,-1.794l-9.405,0l0,-2.256l3.725,0l-0.462,-1.387c-0.217,-0.525 -0.445,-1.006 -0.679,-1.44l2.473,-0.327l0.217,0.435c0.325,0.707 0.652,1.612 0.98,2.719l3.151,0l0,2.256Z" style="fill:#3e3a39;fill-rule:nonzero;"/></g><g><path d="M1154.06,561.956c0.416,0 0.626,-0.227 0.626,-0.68l0,-3.669l-1.931,0l0,4.293l1.305,0.056Zm0.626,-10.193l-1.931,0l0,3.724l1.931,0l0,-3.724Zm-4.105,-0.054l-1.765,0l0,3.751l1.765,0l0,-3.751Zm3.344,-6.307c-1.343,-0.924 -2.727,-2.156 -4.159,-3.696c-0.889,1.142 -2.221,2.373 -3.996,3.696l8.155,0Zm-7.258,6.307l-1.74,0l0,3.751l1.74,0l0,-3.751Zm6.088,11.551l-2.174,0l0,-5.68l-1.765,0l0,5.68l-2.149,0l0,-5.68l-1.74,0l0,6.849l-2.257,0l0,-14.841l14.273,0l0,11.824c0,0.925 -0.168,1.616 -0.505,2.079c-0.334,0.463 -1.018,0.694 -2.051,0.694l-1.441,0l-0.191,-0.925Zm-7.91,-17.178l-0.325,0.244c-0.29,0.218 -0.535,0.381 -0.734,0.489l-1.224,0.735l-1.358,-2.229c1.104,-0.452 2.351,-1.204 3.736,-2.257c1.387,-1.049 2.542,-2.219 3.466,-3.505l2.584,0c1.648,1.92 4.012,3.707 7.093,5.354l-0.977,2.365c-0.163,-0.091 -0.292,-0.154 -0.383,-0.19c-0.325,-0.163 -0.597,-0.307 -0.813,-0.436l-1.089,-0.651l0,1.684l-9.976,0l0,-1.603Zm-6.114,10.791l-2.61,0l0,3.914l2.61,0l0,-3.914Zm2.174,7.284l-2.174,0l0,-1.277l-2.61,0l0,1.549l-2.175,0l0,-9.621l6.959,0l0,9.349Zm-7.04,-13.617l7.067,0l0,2.146l-7.067,0l0,-2.146Zm0,-3.996l7.202,0l0,2.175l-7.202,0l0,-2.175Zm-0.817,-1.767l0,-2.256l3.319,0l-0.437,-1.196c-0.217,-0.615 -0.453,-1.141 -0.705,-1.576l2.336,-0.326c0.254,0.399 0.488,0.95 0.708,1.657l0.488,1.441l2.827,0l0,2.256l-8.536,0Z" style="fill:#3e3a39;fill-rule:nonzero;"/></g><g><path d="M1059.62,572.526c0.562,1.07 1.088,1.926 1.577,2.568c0.489,0.644 1.147,1.364 1.971,2.161l-1.088,1.034c-1.133,-1.133 -2.192,-2.642 -3.179,-4.527l-2.557,0l0,-1.236l3.276,0Zm1.469,4.675c-0.119,3.633 -0.341,5.75 -0.666,6.347c-0.166,0.317 -0.394,0.547 -0.695,0.694c-0.298,0.144 -0.995,0.217 -2.092,0.217c-0.38,0 -0.607,-0.005 -0.681,-0.013l-0.379,-1.265c0.934,0.027 1.626,0.042 2.077,0.042c0.401,0 0.659,-0.272 0.783,-0.816c0.124,-0.544 0.226,-1.871 0.305,-3.983l-3.125,0c-0.19,1.079 -0.513,2.037 -0.971,2.874c-0.458,0.84 -1.119,1.613 -1.984,2.325c-0.865,0.712 -1.385,1.067 -1.556,1.067l-0.871,-1.129c1.306,-0.696 2.254,-1.451 2.849,-2.263c0.594,-0.81 0.989,-1.768 1.188,-2.874l-2.201,0l0,-1.223l8.019,0Zm-6.7,-4.798l1.154,0.572c-0.778,1.993 -2.11,3.85 -3.994,5.572l-0.911,-1.155c1.058,-0.934 1.862,-1.795 2.403,-2.583c0.545,-0.788 0.994,-1.59 1.348,-2.406" style="fill:#595857;fill-rule:nonzero;"/></g><g><path d="M1073.93,576.102l-6.864,0l0,0.966l6.864,0l0,-0.966Zm-8.236,-1.033l9.607,0l0,3.044l-9.607,0l0,-3.044Zm-1.334,-0.666l0,-1.197l5.192,0l-0.19,-0.366l-0.271,-0.448l1.494,-0.178l0.285,0.518l0.233,0.474l5.476,0l0,1.197l-12.219,0Zm7.516,6.795l4.852,0l0,1.196l-5.205,0l0,0.803c0,0.524 -0.102,0.889 -0.306,1.093c-0.203,0.204 -0.612,0.306 -1.229,0.306l-1.945,0l-0.269,-1.236l1.928,0.04c0.298,0 0.449,-0.142 0.449,-0.422l0,-0.584l-5.939,0l0,-1.196l5.939,0l0,-0.503l1.181,-0.299l1.551,-0.462l-7.639,0l0,-1.168l10.043,0l0,1.045c-0.851,0.455 -1.829,0.861 -2.935,1.224c-0.126,0.045 -0.285,0.1 -0.476,0.163" style="fill:#595857;fill-rule:nonzero;"/></g><g><path d="M1086.2,579.499l2.432,0l0,-1.427l-2.432,0l0,1.427Zm0,-2.405l2.432,0l0,-1.319l-2.432,0l0,1.319Zm2.434,-3.48l-2.434,0l0,1.196l2.434,0l0,-1.196Zm-5.125,2.025l-0.991,0l0,1.032l0.991,0l0,-1.032Zm-1.89,6.645l-1.849,0l0,0.952l1.849,0l0,-0.952Zm0,-1.616l-1.849,0l0,0.815l1.849,0l0,-0.815Zm0,-1.522l-1.849,0l0,0.707l1.849,0l0,-0.707Zm-1.521,-3.507l-0.951,0l0,1.032l0.951,0l0,-1.032Zm0.937,-0.775l0,2.583l-2.827,0l0,-2.583l1.142,0l0,-0.761l-1.48,0l0,-0.924l1.48,0l0,-0.965l1.019,0l0,0.965l0.83,0l0,0.924l-0.83,0l0,0.761l0.666,0Zm3.345,9.297l-4.607,0l0,0.557l-1.06,0l0,-4.552l-0.219,0.299l-0.299,0.353l-0.367,-1.265c0.597,-0.552 1.075,-1.24 1.427,-2.065l1.062,0.135l-0.288,0.626l1.536,0l-0.175,-0.381l-0.217,-0.394l0.406,-0.164l0,-2.446l0.666,0l0,-0.761l-0.76,0l0,-0.924l0.76,0l0,-0.965l1.018,0l0,0.965l1.43,0l0,0.924l-1.43,0l0,0.761l1.183,0l0,2.583l-2.145,0l0.19,0.394l0.162,0.408l1.888,0l0,0.897l-1.86,0l0,0.707l1.725,0l0,0.815l-1.725,0l0,0.816l1.725,0l0,0.8l-1.725,0l0,0.952l1.889,0l0,0.205c0.796,-0.625 1.224,-1.591 1.277,-2.896l-0.748,0l0,-7.976l4.647,0l0,7.976l-1.302,0l0,2.461c0,0.244 0.026,0.397 0.08,0.461c0.054,0.065 0.181,0.097 0.382,0.097c0.244,0 0.365,-0.238 0.365,-0.708l0,-0.097l-0.013,-1.222l0.979,0.327l-0.028,1.413c0,0.833 -0.463,1.251 -1.385,1.251c-0.553,0 -0.926,-0.093 -1.122,-0.279c-0.194,-0.186 -0.292,-0.514 -0.292,-0.985l0,-2.719l-0.517,0c-0.109,1.849 -0.761,3.239 -1.957,4.173l-0.556,-0.557Z" style="fill:#595857;fill-rule:nonzero;"/></g><g><path d="M1102.26,579.268l-2.325,0l0,3.412l2.325,0l0,-3.412Zm-1.971,-1.101l0,-5.953l1.197,0l0,2.27l2.431,0l0,1.115l-2.431,0l0,2.568l1.928,0l0,6.551l-1.154,0l0,-0.939l-2.325,0l0,0.939l-1.154,0l0,-6.551l1.508,0Zm-2.758,5.79l-0.069,-0.341c-0.053,-0.254 -0.122,-0.502 -0.203,-0.746l-0.368,-1.087l0.804,-0.19c0.38,0.814 0.628,1.484 0.745,2.011l-0.909,0.353Zm-1.292,-8.997l0.177,-0.897l0.653,0.163l-0.164,1.033c-0.091,0.498 -0.163,0.816 -0.217,0.952l-0.748,-0.219l0.108,-0.325c0.1,-0.318 0.164,-0.554 0.191,-0.707m-0.639,1.686l1.767,0l0,-3.099l-1.767,0l0,3.099Zm0.055,7.677c-0.055,-0.932 -0.172,-1.73 -0.354,-2.39l0.885,-0.138c0.217,0.698 0.369,1.463 0.46,2.298l-0.991,0.23Zm-1.957,0.231c0.037,-0.307 0.054,-0.746 0.054,-1.318c0,-0.497 -0.017,-0.918 -0.054,-1.263l0.923,-0.069c0.083,0.409 0.123,0.807 0.123,1.197c0,0.723 0.003,1.173 0.013,1.345l-1.059,0.108Zm-0.572,-10.274l0.626,-0.177l0.273,0.844c0.061,0.207 0.131,0.489 0.203,0.843c0.009,0.044 0.022,0.107 0.04,0.19l-0.708,0.216l-0.175,-0.951c-0.091,-0.426 -0.177,-0.748 -0.259,-0.965m-0.258,2.366l1.715,0l0,-3.099l-1.715,0l0,3.099Zm0.34,5.34c-0.035,0.189 -0.064,0.348 -0.082,0.476c-0.163,0.869 -0.388,1.617 -0.678,2.243l-1.007,-0.436c0.372,-0.66 0.643,-1.467 0.816,-2.419l0.951,0.136Zm1.374,-2.541l-2.557,0l0,-1.02l2.557,0l0,-0.802l-2.679,0l0,-5.068l6.428,0l0,5.068l-2.731,0l0,0.802l2.609,0l0,1.02l-2.609,0l0,0.829l1.537,-0.108c0.434,0 0.843,-0.047 1.224,-0.138l0,1.007l-3.224,0.257c-1.439,0 -2.59,0.066 -3.45,0.192l-0.246,-1.102l1.347,-0.013l1.794,-0.053l0,-0.871Z" style="fill:#595857;fill-rule:nonzero;"/></g><g><path d="M1114.66,572.472c0.02,-0.063 0.042,-0.137 0.068,-0.219l1.237,0.286l-0.069,0.272c-0.134,0.5 -0.311,1.001 -0.528,1.509l1.086,0.747l0.967,0.667l-0.79,1.195c-0.661,-0.616 -1.268,-1.123 -1.821,-1.521c-0.325,0.543 -0.688,1.032 -1.087,1.466l-0.775,-1.14l-0.652,0.978l-0.815,-0.91c-0.064,-0.073 -0.199,-0.2 -0.409,-0.382c-0.054,-0.045 -0.131,-0.112 -0.23,-0.204c-0.036,0.055 -0.064,0.1 -0.082,0.137c-0.281,0.434 -0.63,0.879 -1.046,1.332c-0.035,0.036 -0.082,0.086 -0.135,0.149l-1.007,-0.937c0.554,-0.445 0.984,-0.916 1.299,-1.413c0.311,-0.499 0.603,-1.246 0.876,-2.243l1.196,0.19l-0.219,0.87c-0.061,0.253 -0.157,0.525 -0.285,0.816l0.857,0.707l0.789,0.691c0.814,-0.933 1.341,-1.947 1.575,-3.043m-0.869,4.539l0,1.739l2.908,0l0,1.224l-2.908,0l0,2.99c0.553,0.073 1.074,0.11 1.563,0.11l0.135,0l1.998,-0.029l-0.217,1.278l-1.265,0c-1.947,0 -3.232,-0.158 -3.851,-0.476c-0.622,-0.317 -1.235,-0.88 -1.843,-1.686l-0.463,1.169c-0.19,0.454 -0.419,0.898 -0.692,1.332l-0.964,-1.033c1.086,-1.875 1.679,-3.964 1.781,-6.264l1.236,0.041c-0.055,1.295 -0.199,2.405 -0.436,3.329c0.409,0.87 1.002,1.517 1.782,1.944l0,-5.668l1.236,0Zm-4.824,-3.819c-0.998,1.16 -2.04,2.183 -3.126,3.071l-0.68,-1.209c0.996,-0.725 1.898,-1.59 2.704,-2.596l1.102,0.734Zm-3.943,5.979c0.355,-0.235 0.77,-0.672 1.252,-1.311c0.481,-0.638 0.883,-1.301 1.208,-1.991l1.142,0.666l-0.395,0.708l-0.434,0.719l0,6.754l-1.222,0l0,-5.191l-0.489,0.557c-0.19,0.217 -0.418,0.44 -0.681,0.665l-0.381,-1.576Z" style="fill:#595857;fill-rule:nonzero;"/></g><g><path d="M1129.03,580.028l-4.46,0l0,1.128l4.46,0l0,-1.128Zm-5.667,-1.072l6.875,0l0,3.262l-6.875,0l0,-3.262Zm-0.164,-1.878l7.12,0l0,1.074l-7.12,0l0,-1.074Zm0,-1.819l7.12,0l0,1.072l-7.12,0l0,-1.072Zm3.437,-3.045c0.018,0.037 0.033,0.068 0.042,0.095c0.208,0.381 0.348,0.69 0.42,0.925c0.01,0.045 0.026,0.109 0.056,0.19l3.804,0l0,1.154l-8.534,0l0,-1.154l3.438,0l-0.191,-0.476c-0.126,-0.29 -0.229,-0.475 -0.311,-0.556l1.276,-0.178Zm-5.802,2.733c-0.734,-0.789 -1.379,-1.392 -1.931,-1.808l0.79,-0.788c0.696,0.48 1.302,0.977 1.82,1.495l0.164,0.162l-0.843,0.939Zm-1.863,3.914c0.626,-0.708 1.228,-1.554 1.808,-2.542l-2.093,0l0,-1.129l3.453,0l0,0.965c-0.436,0.824 -0.932,1.614 -1.482,2.366c-0.046,0.054 -0.1,0.127 -0.164,0.216l1.617,0l0,0.79c-0.053,0.343 -0.126,0.661 -0.216,0.95l-0.325,1.007c0.433,0.724 0.979,1.192 1.636,1.398c0.657,0.209 2.027,0.315 4.11,0.315c1.089,0 2.131,-0.023 3.128,-0.07c0.179,0 0.398,-0.013 0.65,-0.04l-0.217,1.265l-3.261,0c-2.545,0 -4.171,-0.123 -4.872,-0.368c-0.702,-0.245 -1.29,-0.71 -1.761,-1.399c-0.553,0.932 -1.06,1.624 -1.522,2.078l-0.869,-0.95c1.042,-0.961 1.803,-2.256 2.282,-3.888l-1.902,0l0,-0.964Z" style="fill:#595857;fill-rule:nonzero;"/></g><g><path d="M1143.04,575.314l-2.962,0l0,0.869l2.962,0l0,-0.869Zm-2.962,-0.843l2.962,0l0,-0.814l-2.962,0l0,0.814Zm2.5,8.902c0.308,0 0.462,-0.141 0.462,-0.422l0,-5.748l-4.158,0l0,-4.553l5.408,0l0,10.627c0,0.833 -0.425,1.251 -1.276,1.251l-1.482,0l-0.312,-1.209l1.358,0.054Zm-3.371,-4.377l-1.535,0l0,1.373l1.535,0l0,-1.373Zm1.144,1.373l1.929,0l0,1.073l-1.929,0l0,2.896l-1.144,0l0,-2.896l-1.577,0c-0.045,1.243 -0.764,2.246 -2.159,3.016l-0.925,-0.854c0.117,-0.065 0.217,-0.118 0.299,-0.163c0.96,-0.508 1.491,-1.174 1.59,-1.999l-1.944,0l0,-1.073l2.04,0l0,-1.373l-1.63,0l0,-1.047l6.971,0l0,1.047l-1.521,0l0,1.373Zm-6.566,-4.187l2.896,0l0,-0.869l-2.896,0l0,0.869Zm2.896,-2.528l-2.896,0l0,0.815l2.896,0l0,-0.815Zm1.208,3.549l-4.104,0l0,7.515l-1.252,0l0,-12.068l5.356,0l0,4.553Z" style="fill:#595857;fill-rule:nonzero;"/></g><g><path d="M1156.27,580.057l-3.684,0l0,2.785l3.684,0l0,-2.785Zm-4.893,-1.155l6.103,0l0,5.816l-1.21,0l0,-0.72l-3.684,0l0,0.72l-1.209,0l0,-5.816Zm4.716,-4.934l0.354,0.529c0.67,0.997 1.278,2.075 1.821,3.236l-1.142,0.665l-0.23,-0.543l-0.259,-0.502c-0.977,0.216 -1.911,0.326 -2.8,0.326c-1.013,0 -1.98,0.058 -2.894,0.176l-0.15,-1.291l0.394,0.027l0.367,-0.014c0.708,-1.323 1.278,-2.767 1.712,-4.336l1.348,0.191c-0.103,0.28 -0.182,0.512 -0.246,0.693c-0.471,1.414 -0.943,2.56 -1.413,3.439l1.576,-0.109c0.797,-0.083 1.319,-0.144 1.562,-0.19l-0.489,-0.885c-0.234,-0.406 -0.44,-0.733 -0.61,-0.977l1.099,-0.435Zm-7.99,5.816c0.252,0.164 0.447,0.313 0.584,0.45c0.442,-1.178 0.748,-2.505 0.909,-3.983c0.011,-0.109 0.026,-0.245 0.056,-0.407l-1.168,0l-0.381,1.698c-0.19,0.715 -0.387,1.331 -0.586,1.848l0.586,0.394Zm-0.639,-5.095l0.148,-1.184l0.124,-1.264l1.21,0.041l-0.137,1.332l-0.136,1.075l2.175,0l0,0.922c-0.164,2.022 -0.553,3.812 -1.17,5.37c0.427,0.317 0.911,0.769 1.455,1.358l-0.803,1.021l-0.652,-0.707l-0.597,-0.584c-0.67,1.013 -1.387,1.838 -2.148,2.472l-1.033,-0.87c0.916,-0.66 1.664,-1.453 2.243,-2.379l-0.951,-0.747l-1.088,-0.775c0.435,-1.059 0.82,-2.367 1.156,-3.926l-1.495,0l0,-1.155l1.699,0Z" style="fill:#595857;fill-rule:nonzero;"/></g><g><path d="M1040.8,561.122l0,2.01l-7.98,0l-6.299,13.25l-6.521,-14.58l-4.2,9.33l-25,0l0,-2.031l23.02,0l6.3,-13.75l6.51,15.661l5.18,-9.89l8.99,0Z" style="fill:#fff;fill-rule:nonzero;"/></g><g><path d="M1040.8,540.684l0,21.641l-8.99,0l-5.18,9.889l-6.51,-15.66l-6.3,13.75l-23.02,0l0,-29.62c0,-1.13 0.811,-2.08 1.88,-2.3c0.15,-0.04 0.309,-0.05 0.47,-0.05l45.3,0c0.161,0 0.321,0.01 0.47,0.05c1.069,0.22 1.88,1.17 1.88,2.3" style="fill:#009fdb;fill-rule:nonzero;"/></g><g><path d="M1040.8,563.132l0,21.64c0,1.3 -1.061,2.36 -2.35,2.36l-45.3,0c-1.289,0 -2.35,-1.06 -2.35,-2.36l0,-13.64l25,0l4.2,-9.33l6.521,14.58l6.299,-13.25l7.98,0Z" style="fill:#009fdb;fill-rule:nonzero;"/></g><path d="M793.339,484.829l23.544,7.848l-23.544,7.848l0,-15.696Z" style="fill:#f58600;"/><path d="M383.117,492.677l414.93,0" style="fill:none;stroke:#f58600;stroke-width:5.23px;"/></g><g id="companyMedian"></g><g id="companyRank"></g><g id="barcode"><g><g id="barcode1" serif:id="barcode"><rect id="聯詠" x="1124.02" y="185.635" width="3.951" height="168.907" style="fill:#007099;fill-opacity:0.7;"/><rect id="聯發科" x="1092.85" y="185.635" width="1.976" height="168.907" style="fill:#cdcaca;fill-opacity:0.49;"/><rect id="原相" x="962.339" y="185.635" width="1.976" height="168.907" style="fill:#cdcaca;fill-opacity:0.49;"/><rect id="揚智" x="942.261" y="185.635" width="1.976" height="168.907" style="fill:#cdcaca;fill-opacity:0.49;"/><rect id="群聯" x="863.534" y="185.635" width="1.976" height="168.907" style="fill:#cdcaca;fill-opacity:0.49;"/><rect id="瑞昱" x="818.094" y="185.635" width="1.976" height="168.907" style="fill:#cdcaca;fill-opacity:0.49;"/><rect id="創意" x="784.807" y="185.635" width="1.976" height="168.907" style="fill:#cdcaca;fill-opacity:0.49;"/><rect id="力旺" x="771.598" y="185.635" width="1.976" height="168.907" style="fill:#cdcaca;fill-opacity:0.49;"/><rect id="聯陽" x="761.559" y="185.635" width="1.976" height="168.907" style="fill:#cdcaca;fill-opacity:0.49;"/><rect id="M31" x="759.973" y="185.635" width="1.976" height="168.907" style="fill:#cdcaca;fill-opacity:0.49;"/><rect id="矽創" x="731.441" y="185.635" width="1.976" height="168.907" style="fill:#cdcaca;fill-opacity:0.49;"/><rect id="台積電" x="700.268" y="185.635" width="3.951" height="168.907" style="fill:#007099;fill-opacity:0.7;"/><rect id="義隆" x="699.211" y="185.635" width="1.976" height="168.907" style="fill:#cdcaca;fill-opacity:0.49;"/><rect id="晶豪科" x="685.473" y="185.635" width="1.976" height="168.907" style="fill:#cdcaca;fill-opacity:0.49;"/><rect id="致新" x="685.473" y="185.635" width="1.976" height="168.907" style="fill:#cdcaca;fill-opacity:0.49;"/><rect id="凌通" x="684.416" y="185.635" width="1.976" height="168.907" style="fill:#cdcaca;fill-opacity:0.49;"/><rect id="杰力" x="656.413" y="185.635" width="1.976" height="168.907" style="fill:#cdcaca;fill-opacity:0.49;"/><rect id="九暘" x="636.335" y="185.635" width="1.976" height="168.907" style="fill:#cdcaca;fill-opacity:0.49;"/><rect id="宏觀" x="632.636" y="185.635" width="1.976" height="168.907" style="fill:#cdcaca;fill-opacity:0.49;"/><rect id="環球晶" x="628.409" y="185.635" width="1.976" height="168.907" style="fill:#cdcaca;fill-opacity:0.49;"/><rect id="祥碩" x="614.143" y="185.635" width="1.976" height="168.907" style="fill:#cdcaca;fill-opacity:0.49;"/><rect id="智原" x="594.593" y="185.635" width="1.976" height="168.907" style="fill:#cdcaca;fill-opacity:0.49;"/><rect id="聚積" x="583.498" y="185.635" width="1.976" height="168.907" style="fill:#cdcaca;fill-opacity:0.49;"/><rect id="創惟" x="577.157" y="185.635" width="1.976" height="168.907" style="fill:#cdcaca;fill-opacity:0.49;"/><rect id="敦泰" x="575.572" y="185.635" width="1.976" height="168.907" style="fill:#cdcaca;fill-opacity:0.49;"/><rect id="松翰" x="558.136" y="185.635" width="1.976" height="168.907" style="fill:#cdcaca;fill-opacity:0.49;"/><rect id="愛普" x="550.21" y="185.635" width="1.976" height="168.907" style="fill:#cdcaca;fill-opacity:0.49;"/><rect id="晶心科" x="547.04" y="185.635" width="1.976" height="168.907" style="fill:#cdcaca;fill-opacity:0.49;"/><rect id="威盛" x="542.285" y="185.635" width="1.976" height="168.907" style="fill:#cdcaca;fill-opacity:0.49;"/><rect id="神盾" x="535.416" y="185.635" width="1.976" height="168.907" style="fill:#cdcaca;fill-opacity:0.49;"/><rect id="信驊" x="523.792" y="185.635" width="1.976" height="168.907" style="fill:#cdcaca;fill-opacity:0.49;"/><rect id="凌陽" x="516.923" y="185.635" width="1.976" height="168.907" style="fill:#cdcaca;fill-opacity:0.49;"/><rect id="通嘉" x="498.43" y="185.635" width="1.976" height="168.907" style="fill:#cdcaca;fill-opacity:0.49;"/><rect id="華邦電" x="487.334" y="185.635" width="1.976" height="168.907" style="fill:#cdcaca;fill-opacity:0.49;"/><rect id="晶相光" x="479.937" y="185.635" width="1.976" height="168.907" style="fill:#cdcaca;fill-opacity:0.49;"/><rect id="天鈺" x="477.824" y="185.635" width="1.976" height="168.907" style="fill:#cdcaca;fill-opacity:0.49;"/><rect id="大中" x="473.597" y="185.635" width="1.976" height="168.907" style="fill:#cdcaca;fill-opacity:0.49;"/><rect id="南亞科" x="471.483" y="185.635" width="1.976" height="168.907" style="fill:#cdcaca;fill-opacity:0.49;"/><rect id="金麗科" x="461.444" y="185.635" width="1.976" height="168.907" style="fill:#cdcaca;fill-opacity:0.49;"/><rect id="迅杰" x="460.387" y="185.635" width="1.976" height="168.907" style="fill:#cdcaca;fill-opacity:0.49;"/><rect id="應廣" x="448.763" y="185.635" width="1.976" height="168.907" style="fill:#cdcaca;fill-opacity:0.49;"/><rect id="盛群" x="448.235" y="185.635" width="1.976" height="168.907" style="fill:#cdcaca;fill-opacity:0.49;"/><rect id="展匯科" x="447.706" y="185.635" width="1.976" height="168.907" style="fill:#cdcaca;fill-opacity:0.49;"/><rect id="矽統" x="446.121" y="185.635" width="1.976" height="168.907" style="fill:#cdcaca;fill-opacity:0.49;"/><rect id="偉詮電" x="444.008" y="185.635" width="1.976" height="168.907" style="fill:#cdcaca;fill-opacity:0.49;"/><rect id="九齊" x="444.008" y="185.635" width="1.976" height="168.907" style="fill:#cdcaca;fill-opacity:0.49;"/><rect id="新唐" x="436.611" y="185.635" width="1.976" height="168.907" style="fill:#cdcaca;fill-opacity:0.49;"/><rect id="立積" x="436.611" y="185.635" width="1.976" height="168.907" style="fill:#cdcaca;fill-opacity:0.49;"/><rect id="聯傑" x="431.855" y="185.635" width="1.976" height="168.907" style="fill:#cdcaca;fill-opacity:0.49;"/><rect id="茂達" x="422.873" y="185.635" width="1.976" height="168.907" style="fill:#cdcaca;fill-opacity:0.49;"/><rect id="驊訊" x="410.721" y="185.635" width="1.976" height="168.907" style="fill:#cdcaca;fill-opacity:0.49;"/><rect id="安國" x="398.04" y="185.635" width="1.976" height="168.907" style="fill:#cdcaca;fill-opacity:0.49;"/><rect id="晶宏" x="397.511" y="185.635" width="1.976" height="168.907" style="fill:#cdcaca;fill-opacity:0.49;"/><rect id="台勝科" x="396.983" y="185.635" width="1.976" height="168.907" style="fill:#cdcaca;fill-opacity:0.49;"/><rect id="亞信" x="395.398" y="185.635" width="1.976" height="168.907" style="fill:#cdcaca;fill-opacity:0.49;"/><rect id="通泰" x="387.472" y="185.635" width="1.976" height="168.907" style="fill:#cdcaca;fill-opacity:0.49;"/><rect id="類比科" x="384.83" y="185.635" width="1.976" height="168.907" style="fill:#cdcaca;fill-opacity:0.49;"/><rect id="紘康" x="379.018" y="185.635" width="1.976" height="168.907" style="fill:#cdcaca;fill-opacity:0.49;"/><rect id="旺宏" x="377.433" y="185.635" width="1.976" height="168.907" style="fill:#cdcaca;fill-opacity:0.49;"/><rect id="鈺創" x="372.678" y="185.635" width="1.976" height="168.907" style="fill:#cdcaca;fill-opacity:0.49;"/><rect id="聯電" x="370.036" y="185.635" width="1.976" height="168.907" style="fill:#cdcaca;fill-opacity:0.49;"/><rect id="旺玖" x="369.508" y="185.635" width="1.976" height="168.907" style="fill:#cdcaca;fill-opacity:0.49;"/><rect id="禾瑞亞" x="367.923" y="185.635" width="1.976" height="168.907" style="fill:#cdcaca;fill-opacity:0.49;"/><rect id="笙泉" x="364.752" y="185.635" width="1.976" height="168.907" style="fill:#cdcaca;fill-opacity:0.49;"/><rect id="威剛" x="364.752" y="185.635" width="1.976" height="168.907" style="fill:#cdcaca;fill-opacity:0.49;"/><rect id="笙科" x="363.696" y="185.635" width="1.976" height="168.907" style="fill:#cdcaca;fill-opacity:0.49;"/><rect id="鑫創" x="359.997" y="185.635" width="1.976" height="168.907" style="fill:#cdcaca;fill-opacity:0.49;"/><rect id="沛亨" x="356.827" y="185.635" width="1.976" height="168.907" style="fill:#cdcaca;fill-opacity:0.49;"/><rect id="太欣" x="349.43" y="185.635" width="1.976" height="168.907" style="fill:#cdcaca;fill-opacity:0.49;"/><rect id="世界" x="341.504" y="185.635" width="1.976" height="168.907" style="fill:#cdcaca;fill-opacity:0.49;"/><rect id="京鼎" x="335.692" y="185.635" width="1.976" height="168.907" style="fill:#cdcaca;fill-opacity:0.49;"/><rect id="穩懋" x="328.823" y="185.635" width="1.976" height="168.907" style="fill:#cdcaca;fill-opacity:0.49;"/><rect id="精測" x="325.653" y="185.635" width="4.158" height="168.907" style="fill:#261b1b;fill-opacity:0.7;"/><rect id="旺矽" x="315.614" y="185.635" width="1.976" height="168.907" style="fill:#cdcaca;fill-opacity:0.49;"/><rect id="凱鈺" x="313.5" y="185.635" width="1.976" height="168.907" style="fill:#cdcaca;fill-opacity:0.49;"/><rect id="虹冠電" x="308.745" y="185.635" width="1.976" height="168.907" style="fill:#cdcaca;fill-opacity:0.49;"/><rect id="尼克森" x="303.461" y="185.635" width="1.976" height="168.907" style="fill:#cdcaca;fill-opacity:0.49;"/><rect id="富鼎" x="295.536" y="185.635" width="1.976" height="168.907" style="fill:#cdcaca;fill-opacity:0.49;"/><rect id="鈺太" x="285.497" y="185.635" width="1.976" height="168.907" style="fill:#cdcaca;fill-opacity:0.49;"/><rect id="凌泰" x="282.327" y="185.635" width="1.976" height="168.907" style="fill:#cdcaca;fill-opacity:0.49;"/><rect id="晶焱" x="282.327" y="185.635" width="1.976" height="168.907" style="fill:#cdcaca;fill-opacity:0.49;"/><rect id="研通" x="281.798" y="185.635" width="1.976" height="168.907" style="fill:#cdcaca;fill-opacity:0.49;"/><rect id="佑華" x="281.27" y="185.635" width="1.976" height="168.907" style="fill:#cdcaca;fill-opacity:0.49;"/><rect id="光罩" x="277.571" y="185.635" width="1.976" height="168.907" style="fill:#cdcaca;fill-opacity:0.49;"/><rect id="南茂" x="273.873" y="185.635" width="1.976" height="168.907" style="fill:#cdcaca;fill-opacity:0.49;"/><rect id="普誠" x="264.89" y="185.635" width="1.976" height="168.907" style="fill:#cdcaca;fill-opacity:0.49;"/><rect id="中美晶" x="262.777" y="185.635" width="1.976" height="168.907" style="fill:#cdcaca;fill-opacity:0.49;"/><rect id="達能" x="253.266" y="185.635" width="1.976" height="168.907" style="fill:#cdcaca;fill-opacity:0.49;"/><rect id="宇瞻" x="249.039" y="185.635" width="1.976" height="168.907" style="fill:#cdcaca;fill-opacity:0.49;"/><rect id="重鵬" x="242.17" y="185.635" width="1.976" height="168.907" style="fill:#cdcaca;fill-opacity:0.49;"/><rect id="雍智科技" x="238.472" y="185.635" width="1.976" height="168.907" style="fill:#cdcaca;fill-opacity:0.49;"/><rect id="立萬利" x="232.131" y="185.635" width="1.976" height="168.907" style="fill:#cdcaca;fill-opacity:0.49;"/><rect id="倚強" x="231.603" y="185.635" width="1.976" height="168.907" style="fill:#cdcaca;fill-opacity:0.49;"/><rect id="世紀" x="231.603" y="185.635" width="1.976" height="168.907" style="fill:#cdcaca;fill-opacity:0.49;"/><rect id="博磊" x="230.018" y="185.635" width="1.976" height="168.907" style="fill:#cdcaca;fill-opacity:0.49;"/><rect id="昇陽半導體" x="228.961" y="185.635" width="1.976" height="168.907" style="fill:#cdcaca;fill-opacity:0.49;"/><rect id="敦南" x="221.564" y="185.635" width="1.976" height="168.907" style="fill:#cdcaca;fill-opacity:0.49;"/><rect id="漢磊" x="221.036" y="185.635" width="1.976" height="168.907" style="fill:#cdcaca;fill-opacity:0.49;"/><rect id="頎邦" x="220.507" y="185.635" width="1.976" height="168.907" style="fill:#cdcaca;fill-opacity:0.49;"/><rect id="台星科" x="216.28" y="185.635" width="1.976" height="168.907" style="fill:#cdcaca;fill-opacity:0.49;"/><rect id="嘉晶" x="214.695" y="185.635" width="1.976" height="168.907" style="fill:#cdcaca;fill-opacity:0.49;"/><rect id="欣銓" x="214.695" y="185.635" width="1.976" height="168.907" style="fill:#cdcaca;fill-opacity:0.49;"/><rect id="均華" x="214.167" y="185.635" width="1.976" height="168.907" style="fill:#cdcaca;fill-opacity:0.49;"/><rect id="合邦" x="209.94" y="185.635" width="1.976" height="168.907" style="fill:#cdcaca;fill-opacity:0.49;"/><rect id="辛耘" x="208.883" y="185.635" width="1.976" height="168.907" style="fill:#cdcaca;fill-opacity:0.49;"/><rect id="宏捷科" x="206.77" y="185.635" width="1.976" height="168.907" style="fill:#cdcaca;fill-opacity:0.49;"/><rect id="久元" x="200.957" y="185.635" width="1.976" height="168.907" style="fill:#cdcaca;fill-opacity:0.49;"/><rect id="合晶" x="198.844" y="185.635" width="1.976" height="168.907" style="fill:#cdcaca;fill-opacity:0.49;"/><rect id="日月光投控" x="188.277" y="185.635" width="1.976" height="168.907" style="fill:#cdcaca;fill-opacity:0.49;"/><rect id="力成" x="187.22" y="185.635" width="1.976" height="168.907" style="fill:#cdcaca;fill-opacity:0.49;"/><rect id="茂矽" x="182.993" y="185.635" width="1.976" height="168.907" style="fill:#cdcaca;fill-opacity:0.49;"/><rect id="超豐" x="181.408" y="185.635" width="1.976" height="168.907" style="fill:#cdcaca;fill-opacity:0.49;"/><rect id="精材" x="180.351" y="185.635" width="1.976" height="168.907" style="fill:#cdcaca;fill-opacity:0.49;"/><rect id="京元電子" x="170.312" y="185.635" width="1.976" height="168.907" style="fill:#cdcaca;fill-opacity:0.49;"/><rect id="創見" x="163.972" y="185.635" width="1.976" height="168.907" style="fill:#cdcaca;fill-opacity:0.49;"/><rect id="矽格" x="154.461" y="185.635" width="1.976" height="168.907" style="fill:#cdcaca;fill-opacity:0.49;"/><rect id="瑞耘" x="151.819" y="185.635" width="1.976" height="168.907" style="fill:#cdcaca;fill-opacity:0.49;"/><rect id="同欣電" x="149.706" y="185.635" width="1.976" height="168.907" style="fill:#cdcaca;fill-opacity:0.49;"/><rect id="海德威" x="148.649" y="185.635" width="1.976" height="168.907" style="fill:#cdcaca;fill-opacity:0.49;"/><rect id="點序" x="147.592" y="185.635" width="1.976" height="168.907" style="fill:#cdcaca;fill-opacity:0.49;"/><rect id="廣穎" x="144.422" y="185.635" width="1.976" height="168.907" style="fill:#cdcaca;fill-opacity:0.49;"/><rect id="天方能源" x="142.308" y="185.635" width="1.976" height="168.907" style="fill:#cdcaca;fill-opacity:0.49;"/><rect id="商丞" x="139.138" y="185.635" width="1.976" height="168.907" style="fill:#cdcaca;fill-opacity:0.49;"/><rect id="台半" x="137.553" y="185.635" width="1.976" height="168.907" style="fill:#cdcaca;fill-opacity:0.49;"/><rect id="景碩" x="132.269" y="185.635" width="1.976" height="168.907" style="fill:#cdcaca;fill-opacity:0.49;"/><rect id="順德" x="130.156" y="185.635" width="1.976" height="168.907" style="fill:#cdcaca;fill-opacity:0.49;"/><rect id="德微" x="126.457" y="185.635" width="1.976" height="168.907" style="fill:#cdcaca;fill-opacity:0.49;"/><rect id="福懋科" x="120.117" y="185.635" width="1.976" height="168.907" style="fill:#cdcaca;fill-opacity:0.49;"/><rect id="立衛" x="117.475" y="185.635" width="1.976" height="168.907" style="fill:#cdcaca;fill-opacity:0.49;"/><rect id="統懋" x="115.89" y="185.635" width="1.976" height="168.907" style="fill:#cdcaca;fill-opacity:0.49;"/><rect id="十銓" x="113.248" y="185.635" width="1.976" height="168.907" style="fill:#cdcaca;fill-opacity:0.49;"/><rect id="長科" x="112.72" y="185.635" width="1.976" height="168.907" style="fill:#cdcaca;fill-opacity:0.49;"/><rect id="界霖" x="111.663" y="185.635" width="1.976" height="168.907" style="fill:#cdcaca;fill-opacity:0.49;"/><rect id="逸昌" x="109.021" y="185.635" width="1.976" height="168.907" style="fill:#cdcaca;fill-opacity:0.49;"/><rect id="強茂" x="106.908" y="185.635" width="1.976" height="168.907" style="fill:#cdcaca;fill-opacity:0.49;"/><rect id="易華電" x="102.152" y="185.635" width="1.976" height="168.907" style="fill:#cdcaca;fill-opacity:0.49;"/><rect id="華泰" x="98.454" y="185.635" width="1.976" height="168.907" style="fill:#cdcaca;fill-opacity:0.49;"/><rect id="誠創" x="98.454" y="185.635" width="1.976" height="168.907" style="fill:#cdcaca;fill-opacity:0.49;"/><rect id="菱生" x="92.113" y="185.635" width="1.976" height="168.907" style="fill:#cdcaca;fill-opacity:0.49;"/><rect id="典範" x="86.301" y="185.635" width="1.976" height="168.907" style="fill:#cdcaca;fill-opacity:0.49;"/><rect id="家登" x="84.188" y="185.635" width="1.976" height="168.907" style="fill:#cdcaca;fill-opacity:0.49;"/><rect id="華東" x="75.205" y="185.635" width="1.976" height="168.907" style="fill:#cdcaca;fill-opacity:0.49;"/><rect id="元隆" x="64.638" y="185.635" width="1.976" height="168.907" style="fill:#cdcaca;fill-opacity:0.49;"/><rect id="麗正" x="58.826" y="185.635" width="1.976" height="168.907" style="fill:#cdcaca;fill-opacity:0.49;"/><rect id="品安" x="57.241" y="185.635" width="3.951" height="168.907" style="fill:#007099;fill-opacity:0.7;"/></g><g><path d="M69.571,165.88l0,207.429" style="fill:none;stroke:#999;stroke-opacity:0.62;stroke-width:0.99px;stroke-linecap:butt;stroke-miterlimit:2;"/><path d="M175.245,165.88l0,207.429" style="fill:none;stroke:#999;stroke-opacity:0.62;stroke-width:0.99px;stroke-linecap:butt;stroke-miterlimit:2;"/><path d="M280.919,165.88l0,207.429" style="fill:none;stroke:#999;stroke-opacity:0.62;stroke-width:0.99px;stroke-linecap:butt;stroke-miterlimit:2;"/><path d="M386.593,165.88l0,207.429" style="fill:none;stroke:#999;stroke-opacity:0.62;stroke-width:0.99px;stroke-linecap:butt;stroke-miterlimit:2;"/><path d="M492.268,165.88l0,207.429" style="fill:none;stroke:#999;stroke-opacity:0.62;stroke-width:0.99px;stroke-linecap:butt;stroke-miterlimit:2;"/><path d="M597.942,165.88l0,207.429" style="fill:none;stroke:#999;stroke-opacity:0.62;stroke-width:0.99px;stroke-linecap:butt;stroke-miterlimit:2;"/><path d="M703.616,165.88l0,207.429" style="fill:none;stroke:#999;stroke-opacity:0.62;stroke-width:0.99px;stroke-linecap:butt;stroke-miterlimit:2;"/><path d="M809.29,165.88l0,207.429" style="fill:none;stroke:#999;stroke-opacity:0.62;stroke-width:0.99px;stroke-linecap:butt;stroke-miterlimit:2;"/><path d="M914.964,165.88l0,207.429" style="fill:none;stroke:#999;stroke-opacity:0.62;stroke-width:0.99px;stroke-linecap:butt;stroke-miterlimit:2;"/><path d="M1020.64,165.88l0,207.429" style="fill:none;stroke:#999;stroke-opacity:0.62;stroke-width:0.99px;stroke-linecap:butt;stroke-miterlimit:2;"/></g><path d="M62.028,152.525l2.969,-4.446c0.374,-0.64 0.729,-1.281 1.049,-1.921l0.071,0c-0.035,0.676 -0.106,1.725 -0.106,2.365l0,4.002l-3.983,0Zm7.252,0l-1.725,0l0,-8.143l-1.793,0l-5.423,8.374l0,1.065l5.672,0l0,3.591l1.544,0l0,-3.591l1.725,0l0,-1.296Z" style="fill:#4d4d4d;fill-rule:nonzero;stroke:#4d4d4d;stroke-width:0.14px;stroke-linecap:butt;stroke-miterlimit:2;"/><path d="M74.793,157.644c2.472,0 4.052,-2.256 4.052,-6.791c0,-4.517 -1.58,-6.72 -4.052,-6.72c-2.491,0 -4.071,2.185 -4.071,6.72c0,4.535 1.58,6.791 4.071,6.791Zm0,-1.296c-1.494,0 -2.491,-1.654 -2.491,-5.495c0,-3.806 0.997,-5.406 2.491,-5.406c1.476,0 2.472,1.6 2.472,5.406c0,3.841 -0.996,5.495 -2.472,5.495Z" style="fill:#4d4d4d;fill-rule:nonzero;stroke:#4d4d4d;stroke-width:0.14px;stroke-linecap:butt;stroke-miterlimit:2;"/><path d="M88.785,145.858l1.298,0l0,-1.105l2.169,0l0,-1.118l-2.169,0l0,-1.102l-1.298,0l0,1.102l-3.965,0l0,1.118l3.965,0l0,1.105Zm-0.693,4.676l0,-1.282l3.84,0l0,1.282l-3.84,0Zm0,-3.469l3.84,0l0,1.282l-3.84,0l0,-1.282Zm9.014,1.282l-3.911,0l0,-1.282l3.911,0l0,1.282Zm0,2.187l-3.911,0l0,-1.282l3.911,0l0,1.282Zm2.507,2.045l-6.418,0l0,-1.087l5.209,0l0,-5.385l-11.574,0l0,5.385l5.102,0l0,1.087l-4.96,0l0,-0.64l-1.28,0l0,0.64l-0.712,0l0,1.1l0.712,0l0,5.086l1.28,0l0,-5.086l4.96,0l0,1.939c-1.458,0.053 -2.809,0.107 -3.84,0.142l0.107,1.156c2.009,-0.107 4.925,-0.249 7.787,-0.445c0.196,0.392 0.338,0.73 0.427,1.05l1.031,-0.373c-0.249,-0.91 -1.049,-2.212 -1.831,-3.168l-0.978,0.318c0.267,0.337 0.533,0.726 0.782,1.133l-2.222,0.089l0,-1.841l5.138,0l0,3.735c0,0.196 -0.071,0.25 -0.284,0.267c-0.196,0.018 -0.872,0.018 -1.707,0c0.16,0.32 0.32,0.746 0.391,1.083c1.138,0 1.867,0 2.311,-0.195c0.462,-0.213 0.569,-0.515 0.569,-1.137l0,-4.853Zm-3.325,-8.944l0,-1.102l-1.298,0l0,1.102l-2.08,0l0,1.118l2.08,0l0,1.121l1.298,0l0,-1.121l4.036,0l0,-1.118l-4.036,0Z" style="fill:#4d4d4d;fill-rule:nonzero;stroke:#4d4d4d;stroke-width:0.14px;stroke-linecap:butt;stroke-miterlimit:2;"/><path d="M116.682,143.937l-12.517,0l0,1.262l12.517,0l0,-1.262Zm-2.667,13.263c-0.694,0 -0.836,-0.124 -0.836,-0.729l0,-6.312l4.996,0l0,-1.28l-15.557,0l0,1.28l4.498,0c-0.267,3.325 -0.924,6.099 -4.711,7.539c0.302,0.231 0.675,0.711 0.835,1.031c4.09,-1.653 4.943,-4.765 5.281,-8.57l3.325,0l0,6.33c0,1.511 0.426,1.974 2.009,1.974l2.542,0c1.547,0 1.903,-0.836 2.045,-3.859c-0.356,-0.106 -0.925,-0.337 -1.227,-0.586c-0.089,2.72 -0.196,3.182 -0.907,3.182l-2.293,0Z" style="fill:#4d4d4d;fill-rule:nonzero;stroke:#4d4d4d;stroke-width:0.14px;stroke-linecap:butt;stroke-miterlimit:2;"/><path d="M171.577,156.144c-1.637,0 -2.615,-1.476 -2.811,-4.18c0.854,-1.209 1.85,-1.672 2.669,-1.672c1.583,0 2.347,1.121 2.347,2.882c0,1.778 -0.96,2.97 -2.205,2.97Zm3.502,-10.919c-0.711,-0.763 -1.688,-1.331 -3.04,-1.331c-2.526,0 -4.817,1.954 -4.817,7.056c0,4.305 1.847,6.454 4.355,6.454c2.028,0 3.732,-1.705 3.732,-4.23c0,-2.722 -1.402,-4.089 -3.608,-4.089c-1.031,0 -2.17,0.604 -2.97,1.581c0.071,-4.053 1.583,-5.423 3.362,-5.423c0.8,0 1.583,0.373 2.098,0.996l0.888,-1.014Z" style="fill:#4d4d4d;fill-rule:nonzero;stroke:#4d4d4d;stroke-width:0.14px;stroke-linecap:butt;stroke-miterlimit:2;"/><path d="M181.035,157.404c2.473,0 4.053,-2.256 4.053,-6.791c0,-4.516 -1.58,-6.719 -4.053,-6.719c-2.49,0 -4.07,2.185 -4.07,6.719c0,4.535 1.58,6.791 4.07,6.791Zm0,-1.296c-1.494,0 -2.49,-1.653 -2.49,-5.495c0,-3.805 0.996,-5.406 2.49,-5.406c1.477,0 2.473,1.601 2.473,5.406c0,3.842 -0.996,5.495 -2.473,5.495Z" style="fill:#4d4d4d;fill-rule:nonzero;stroke:#4d4d4d;stroke-width:0.14px;stroke-linecap:butt;stroke-miterlimit:2;"/><path d="M276.012,157.22c2.455,0 4.088,-1.474 4.088,-3.376c0,-1.779 -1.065,-2.757 -2.202,-3.415l0,-0.089c0.782,-0.604 1.74,-1.778 1.74,-3.147c0,-2.01 -1.349,-3.43 -3.572,-3.43c-2.046,0 -3.573,1.313 -3.573,3.305c0,1.369 0.799,2.348 1.758,3.006l0,0.088c-1.191,0.641 -2.398,1.85 -2.398,3.593c0,2.009 1.758,3.465 4.159,3.465Zm0.89,-7.307c-1.53,-0.604 -2.936,-1.28 -2.936,-2.845c0,-1.262 0.872,-2.116 2.064,-2.116c1.405,0 2.224,1.049 2.224,2.33c0,0.96 -0.463,1.849 -1.352,2.631Zm-0.854,6.1c-1.565,0 -2.722,-1.014 -2.722,-2.401c0,-1.244 0.73,-2.276 1.779,-2.952c1.85,0.747 3.451,1.405 3.451,3.148c0,1.298 -1.014,2.205 -2.508,2.205Z" style="fill:#4d4d4d;fill-rule:nonzero;stroke:#4d4d4d;stroke-width:0.14px;stroke-linecap:butt;stroke-miterlimit:2;"/><path d="M285.862,157.22c2.473,0 4.053,-2.256 4.053,-6.791c0,-4.517 -1.58,-6.719 -4.053,-6.719c-2.49,0 -4.07,2.184 -4.07,6.719c0,4.535 1.58,6.791 4.07,6.791Zm0,-1.296c-1.494,0 -2.49,-1.654 -2.49,-5.495c0,-3.805 0.996,-5.406 2.49,-5.406c1.476,0 2.473,1.601 2.473,5.406c0,3.841 -0.997,5.495 -2.473,5.495Z" style="fill:#4d4d4d;fill-rule:nonzero;stroke:#4d4d4d;stroke-width:0.14px;stroke-linecap:butt;stroke-miterlimit:2;"/><path d="M373.358,156.989l7.145,0l0,-1.349l-2.614,0l0,-11.681l-1.243,0c-0.71,0.408 -1.546,0.71 -2.702,0.923l0,1.03l2.312,0l0,9.728l-2.898,0l0,1.349Z" style="fill:#4d4d4d;fill-rule:nonzero;stroke:#4d4d4d;stroke-width:0.14px;stroke-linecap:butt;stroke-miterlimit:2;"/><path d="M386.602,157.22c2.473,0 4.053,-2.256 4.053,-6.791c0,-4.517 -1.58,-6.719 -4.053,-6.719c-2.49,0 -4.07,2.184 -4.07,6.719c0,4.535 1.58,6.791 4.07,6.791Zm0,-1.296c-1.494,0 -2.49,-1.654 -2.49,-5.495c0,-3.805 0.996,-5.406 2.49,-5.406c1.477,0 2.473,1.601 2.473,5.406c0,3.841 -0.996,5.495 -2.473,5.495Z" style="fill:#4d4d4d;fill-rule:nonzero;stroke:#4d4d4d;stroke-width:0.14px;stroke-linecap:butt;stroke-miterlimit:2;"/><path d="M396.47,157.22c2.473,0 4.053,-2.256 4.053,-6.791c0,-4.517 -1.58,-6.719 -4.053,-6.719c-2.49,0 -4.07,2.184 -4.07,6.719c0,4.535 1.58,6.791 4.07,6.791Zm0,-1.296c-1.494,0 -2.49,-1.654 -2.49,-5.495c0,-3.805 0.996,-5.406 2.49,-5.406c1.476,0 2.473,1.601 2.473,5.406c0,3.841 -0.997,5.495 -2.473,5.495Z" style="fill:#4d4d4d;fill-rule:nonzero;stroke:#4d4d4d;stroke-width:0.14px;stroke-linecap:butt;stroke-miterlimit:2;"/><path d="M479.032,156.989l7.145,0l0,-1.349l-2.614,0l0,-11.681l-1.243,0c-0.71,0.408 -1.546,0.71 -2.702,0.923l0,1.03l2.312,0l0,9.728l-2.898,0l0,1.349Z" style="fill:#4d4d4d;fill-rule:nonzero;stroke:#4d4d4d;stroke-width:0.14px;stroke-linecap:butt;stroke-miterlimit:2;"/><path d="M488.117,156.989l8.194,0l0,-1.403l-3.607,0c-0.658,0 -1.458,0.071 -2.133,0.125c3.058,-2.899 5.1,-5.549 5.1,-8.145c0,-2.33 -1.456,-3.856 -3.785,-3.856c-1.653,0 -2.773,0.763 -3.84,1.918l0.942,0.924c0.712,-0.853 1.636,-1.511 2.703,-1.511c1.618,0 2.4,1.085 2.4,2.578c0,2.241 -1.885,4.838 -5.974,8.411l0,0.959Z" style="fill:#4d4d4d;fill-rule:nonzero;stroke:#4d4d4d;stroke-width:0.14px;stroke-linecap:butt;stroke-miterlimit:2;"/><path d="M502.144,157.22c2.473,0 4.053,-2.256 4.053,-6.791c0,-4.517 -1.58,-6.719 -4.053,-6.719c-2.49,0 -4.07,2.184 -4.07,6.719c0,4.535 1.58,6.791 4.07,6.791Zm0,-1.296c-1.494,0 -2.49,-1.654 -2.49,-5.495c0,-3.805 0.996,-5.406 2.49,-5.406c1.477,0 2.473,1.601 2.473,5.406c0,3.841 -0.996,5.495 -2.473,5.495Z" style="fill:#4d4d4d;fill-rule:nonzero;stroke:#4d4d4d;stroke-width:0.14px;stroke-linecap:butt;stroke-miterlimit:2;"/><path d="M584.706,156.989l7.145,0l0,-1.349l-2.614,0l0,-11.681l-1.242,0c-0.711,0.408 -1.547,0.71 -2.702,0.923l0,1.03l2.311,0l0,9.728l-2.898,0l0,1.349Z" style="fill:#4d4d4d;fill-rule:nonzero;stroke:#4d4d4d;stroke-width:0.14px;stroke-linecap:butt;stroke-miterlimit:2;"/><path d="M595.054,152.102l2.969,-4.447c0.373,-0.64 0.729,-1.28 1.049,-1.921l0.071,0c-0.036,0.676 -0.107,1.725 -0.107,2.366l0,4.002l-3.982,0Zm7.251,0l-1.724,0l0,-8.143l-1.794,0l-5.422,8.373l0,1.065l5.671,0l0,3.592l1.545,0l0,-3.592l1.724,0l0,-1.295Z" style="fill:#4d4d4d;fill-rule:nonzero;stroke:#4d4d4d;stroke-width:0.14px;stroke-linecap:butt;stroke-miterlimit:2;"/><path d="M607.818,157.22c2.473,0 4.053,-2.256 4.053,-6.791c0,-4.517 -1.58,-6.719 -4.053,-6.719c-2.49,0 -4.07,2.184 -4.07,6.719c0,4.535 1.58,6.791 4.07,6.791Zm0,-1.296c-1.494,0 -2.49,-1.654 -2.49,-5.495c0,-3.805 0.996,-5.406 2.49,-5.406c1.477,0 2.473,1.601 2.473,5.406c0,3.841 -0.996,5.495 -2.473,5.495Z" style="fill:#4d4d4d;fill-rule:nonzero;stroke:#4d4d4d;stroke-width:0.14px;stroke-linecap:butt;stroke-miterlimit:2;"/><path d="M690.38,156.989l7.145,0l0,-1.349l-2.614,0l0,-11.681l-1.242,0c-0.711,0.408 -1.547,0.71 -2.702,0.923l0,1.03l2.311,0l0,9.728l-2.898,0l0,1.349Z" style="fill:#4d4d4d;fill-rule:nonzero;stroke:#4d4d4d;stroke-width:0.14px;stroke-linecap:butt;stroke-miterlimit:2;"/><path d="M704.034,155.96c-1.637,0 -2.615,-1.477 -2.811,-4.18c0.854,-1.21 1.85,-1.672 2.668,-1.672c1.584,0 2.348,1.121 2.348,2.881c0,1.779 -0.96,2.971 -2.205,2.971Zm3.501,-10.919c-0.71,-0.763 -1.687,-1.331 -3.039,-1.331c-2.526,0 -4.817,1.953 -4.817,7.056c0,4.304 1.847,6.454 4.355,6.454c2.028,0 3.732,-1.705 3.732,-4.231c0,-2.721 -1.402,-4.088 -3.608,-4.088c-1.031,0 -2.17,0.604 -2.97,1.581c0.071,-4.054 1.583,-5.423 3.362,-5.423c0.8,0 1.583,0.373 2.098,0.996l0.887,-1.014Z" style="fill:#4d4d4d;fill-rule:nonzero;stroke:#4d4d4d;stroke-width:0.14px;stroke-linecap:butt;stroke-miterlimit:2;"/><path d="M713.492,157.22c2.473,0 4.053,-2.256 4.053,-6.791c0,-4.517 -1.58,-6.719 -4.053,-6.719c-2.49,0 -4.07,2.184 -4.07,6.719c0,4.535 1.58,6.791 4.07,6.791Zm0,-1.296c-1.494,0 -2.49,-1.654 -2.49,-5.495c0,-3.805 0.996,-5.406 2.49,-5.406c1.477,0 2.473,1.601 2.473,5.406c0,3.841 -0.996,5.495 -2.473,5.495Z" style="fill:#4d4d4d;fill-rule:nonzero;stroke:#4d4d4d;stroke-width:0.14px;stroke-linecap:butt;stroke-miterlimit:2;"/><path d="M796.054,156.989l7.145,0l0,-1.349l-2.613,0l0,-11.681l-1.243,0c-0.711,0.408 -1.547,0.71 -2.702,0.923l0,1.03l2.311,0l0,9.728l-2.898,0l0,1.349Z" style="fill:#4d4d4d;fill-rule:nonzero;stroke:#4d4d4d;stroke-width:0.14px;stroke-linecap:butt;stroke-miterlimit:2;"/><path d="M809.317,157.22c2.454,0 4.088,-1.474 4.088,-3.376c0,-1.779 -1.066,-2.757 -2.203,-3.415l0,-0.089c0.782,-0.604 1.74,-1.778 1.74,-3.147c0,-2.01 -1.349,-3.43 -3.572,-3.43c-2.046,0 -3.573,1.313 -3.573,3.305c0,1.369 0.799,2.348 1.758,3.006l0,0.088c-1.191,0.641 -2.398,1.85 -2.398,3.593c0,2.009 1.758,3.465 4.16,3.465Zm0.889,-7.307c-1.53,-0.604 -2.935,-1.28 -2.935,-2.845c0,-1.262 0.871,-2.116 2.063,-2.116c1.406,0 2.224,1.049 2.224,2.33c0,0.96 -0.463,1.849 -1.352,2.631Zm-0.854,6.1c-1.565,0 -2.721,-1.014 -2.721,-2.401c0,-1.244 0.729,-2.276 1.778,-2.952c1.85,0.747 3.451,1.405 3.451,3.148c0,1.298 -1.014,2.205 -2.508,2.205Z" style="fill:#4d4d4d;fill-rule:nonzero;stroke:#4d4d4d;stroke-width:0.14px;stroke-linecap:butt;stroke-miterlimit:2;"/><path d="M819.166,157.22c2.473,0 4.053,-2.256 4.053,-6.791c0,-4.517 -1.58,-6.719 -4.053,-6.719c-2.49,0 -4.07,2.184 -4.07,6.719c0,4.535 1.58,6.791 4.07,6.791Zm0,-1.296c-1.494,0 -2.49,-1.654 -2.49,-5.495c0,-3.805 0.996,-5.406 2.49,-5.406c1.477,0 2.473,1.601 2.473,5.406c0,3.841 -0.996,5.495 -2.473,5.495Z" style="fill:#4d4d4d;fill-rule:nonzero;stroke:#4d4d4d;stroke-width:0.14px;stroke-linecap:butt;stroke-miterlimit:2;"/><path d="M900.946,156.989l8.194,0l0,-1.403l-3.607,0c-0.658,0 -1.458,0.071 -2.134,0.125c3.058,-2.899 5.101,-5.549 5.101,-8.145c0,-2.33 -1.456,-3.856 -3.785,-3.856c-1.653,0 -2.774,0.763 -3.84,1.918l0.942,0.924c0.711,-0.853 1.636,-1.511 2.702,-1.511c1.618,0 2.401,1.085 2.401,2.578c0,2.241 -1.885,4.838 -5.974,8.411l0,0.959Z" style="fill:#4d4d4d;fill-rule:nonzero;stroke:#4d4d4d;stroke-width:0.14px;stroke-linecap:butt;stroke-miterlimit:2;"/><path d="M914.973,157.22c2.472,0 4.052,-2.256 4.052,-6.791c0,-4.517 -1.58,-6.719 -4.052,-6.719c-2.49,0 -4.071,2.184 -4.071,6.719c0,4.535 1.581,6.791 4.071,6.791Zm0,-1.296c-1.494,0 -2.49,-1.654 -2.49,-5.495c0,-3.805 0.996,-5.406 2.49,-5.406c1.476,0 2.472,1.601 2.472,5.406c0,3.841 -0.996,5.495 -2.472,5.495Z" style="fill:#4d4d4d;fill-rule:nonzero;stroke:#4d4d4d;stroke-width:0.14px;stroke-linecap:butt;stroke-miterlimit:2;"/><path d="M924.841,157.22c2.472,0 4.052,-2.256 4.052,-6.791c0,-4.517 -1.58,-6.719 -4.052,-6.719c-2.491,0 -4.071,2.184 -4.071,6.719c0,4.535 1.58,6.791 4.071,6.791Zm0,-1.296c-1.495,0 -2.491,-1.654 -2.491,-5.495c0,-3.805 0.996,-5.406 2.491,-5.406c1.476,0 2.472,1.601 2.472,5.406c0,3.841 -0.996,5.495 -2.472,5.495Z" style="fill:#4d4d4d;fill-rule:nonzero;stroke:#4d4d4d;stroke-width:0.14px;stroke-linecap:butt;stroke-miterlimit:2;"/><path d="M1006.62,156.989l8.194,0l0,-1.403l-3.607,0c-0.658,0 -1.458,0.071 -2.134,0.125c3.059,-2.899 5.101,-5.549 5.101,-8.145c0,-2.33 -1.456,-3.856 -3.785,-3.856c-1.653,0 -2.773,0.763 -3.84,1.918l0.942,0.924c0.711,-0.853 1.636,-1.511 2.703,-1.511c1.618,0 2.4,1.085 2.4,2.578c0,2.241 -1.885,4.838 -5.974,8.411l0,0.959Z" style="fill:#4d4d4d;fill-rule:nonzero;stroke:#4d4d4d;stroke-width:0.14px;stroke-linecap:butt;stroke-miterlimit:2;"/><path d="M1016.49,156.989l8.194,0l0,-1.403l-3.607,0c-0.658,0 -1.458,0.071 -2.134,0.125c3.058,-2.899 5.101,-5.549 5.101,-8.145c0,-2.33 -1.456,-3.856 -3.785,-3.856c-1.654,0 -2.774,0.763 -3.841,1.918l0.943,0.924c0.711,-0.853 1.636,-1.511 2.702,-1.511c1.618,0 2.401,1.085 2.401,2.578c0,2.241 -1.885,4.838 -5.974,8.411l0,0.959Z" style="fill:#4d4d4d;fill-rule:nonzero;stroke:#4d4d4d;stroke-width:0.14px;stroke-linecap:butt;stroke-miterlimit:2;"/><path d="M1030.52,157.22c2.472,0 4.052,-2.256 4.052,-6.791c0,-4.517 -1.58,-6.719 -4.052,-6.719c-2.491,0 -4.071,2.184 -4.071,6.719c0,4.535 1.58,6.791 4.071,6.791Zm0,-1.296c-1.495,0 -2.491,-1.654 -2.491,-5.495c0,-3.805 0.996,-5.406 2.491,-5.406c1.476,0 2.472,1.601 2.472,5.406c0,3.841 -0.996,5.495 -2.472,5.495Z" style="fill:#4d4d4d;fill-rule:nonzero;stroke:#4d4d4d;stroke-width:0.14px;stroke-linecap:butt;stroke-miterlimit:2;"/><g><g><path d="M57.982,270.088l1066.78,0" style="fill:none;stroke:#8c8c8c;stroke-opacity:0.57;stroke-width:0.99px;stroke-linecap:butt;stroke-miterlimit:2;"/></g></g></g><path d="M485.008,532.81l2.712,0c0.384,0.648 0.84,1.681 0.984,2.281c0.384,-0.456 1.104,-0.96 4.896,-3.288c-0.24,-0.48 -0.552,-1.51 -0.672,-2.183l-1.68,0.984l0,-6.314l1.896,0c0.192,2.832 0.528,5.45 1.032,7.489c-1.152,1.439 -2.472,2.616 -3.984,3.432c0.552,0.481 1.296,1.369 1.704,1.97l-1.368,0c-2.208,0 -4.056,-0.144 -5.52,-0.745l0,-3.626Zm12.48,-7.557c-0.36,1.222 -0.84,2.445 -1.416,3.598c-0.192,-1.369 -0.336,-2.879 -0.456,-4.561l4.248,0l0,-2.373l-1.872,0l1.68,-0.913c-0.456,-0.721 -1.344,-1.898 -2.064,-2.76l-1.92,0.982c0.624,0.817 1.392,1.922 1.824,2.691l-1.992,0c-0.048,-1.25 -0.072,-2.523 -0.048,-3.816l-2.568,0c0.024,1.293 0.048,2.542 0.12,3.816l-4.32,0l0,8.855c0,0.887 -0.528,1.438 -0.984,1.75l0,-2.181l-2.712,0l0,-2.619l3.168,0l0,-2.517l-3.648,0l0,-2.043l3.24,0l0,-2.493l-3.24,0l0,-2.544l-2.64,0l0,2.544l-3.336,0l0,2.493l3.336,0l0,2.043l-4.104,0l0,2.517l4.656,0l0,6.818c-0.528,-0.672 -0.96,-1.49 -1.32,-2.545c0.024,-0.935 0.024,-1.895 0,-2.808l-2.4,-0.144c0.12,3.239 0,6.959 -1.512,9.672c0.552,0.288 1.488,1.175 1.848,1.751c0.792,-1.32 1.272,-2.758 1.584,-4.32c2.064,3.096 5.184,3.768 9.864,3.768l8.688,0c0.168,-0.863 0.648,-2.158 1.104,-2.83c-1.632,0.073 -5.88,0.097 -8.328,0.097c1.152,-0.723 2.208,-1.634 3.12,-2.665c0.624,1.198 1.368,1.894 2.304,1.894c1.632,0.024 2.304,-0.863 2.664,-3.984c-0.576,-0.24 -1.32,-0.791 -1.848,-1.318c-0.048,1.942 -0.24,2.833 -0.528,2.833c-0.336,0 -0.648,-0.554 -0.96,-1.563c1.272,-1.894 2.256,-4.104 2.976,-6.526l-2.208,-0.599Z" style="fill:#f58600;fill-rule:nonzero;"/><path d="M521.176,531.587l0,4.872l-8.904,0l0,-4.872l8.904,0Zm4.656,-6.6l0,-2.808l-11.352,0c0.36,-1.176 0.672,-2.352 0.96,-3.528l-3,-0.552c-0.264,1.344 -0.6,2.736 -1.032,4.08l-6.768,0l0,2.808l5.784,0c-1.464,3.456 -3.576,6.624 -6.624,8.688c0.576,0.576 1.488,1.608 1.896,2.28c1.416,-1.008 2.64,-2.208 3.72,-3.552l0,8.136l2.856,0l0,-1.32l8.904,0l0,1.2l3.024,0l0,-11.592l-12.432,0c0.672,-1.224 1.248,-2.52 1.752,-3.84l12.312,0Z" style="fill:#f58600;fill-rule:nonzero;"/><path d="M541.12,524.218l6.864,0l0,0.747l-6.864,0l0,-0.747Zm0,-1.8l6.864,0l0,0.699l-6.864,0l0,-0.699Zm0,-1.824l6.864,0l0,0.699l-6.864,0l0,-0.699Zm-1.728,7.584l2.28,0c-0.552,0.89 -1.704,1.371 -4.392,1.634c0.408,0.359 0.864,0.934 1.056,1.39c3.648,-0.48 5.184,-1.27 5.928,-3.024l1.536,0l0,0.793c0,1.104 0.192,1.919 1.728,1.919l2.664,0c0.624,0 1.416,-0.024 1.776,-0.12c-0.12,-0.575 -0.12,-0.79 -0.168,-1.366c-0.312,0.121 -1.296,0.169 -1.728,0.169l-1.416,0c-0.528,0 -0.552,-0.217 -0.552,-0.578l0,-0.817l1.632,0l0,0.938l2.568,0l0,-2.303l-6.096,0c-0.096,-0.219 -0.192,-0.459 -0.312,-0.699l4.848,0l0,-6.669l-5.64,0c0.288,-0.336 0.576,-0.72 0.864,-1.152l-2.952,-0.192c-0.12,0.36 -0.36,0.864 -0.6,1.344l-3.936,0l0,6.669l4.512,0c0.096,0.195 0.168,0.459 0.24,0.699l-6.312,0l0,2.445l2.472,0l0,-1.08Zm-3.408,-5.997c-0.384,-1.056 -1.104,-2.688 -1.608,-3.96l-2.376,0.672c0.48,1.32 1.224,3.048 1.536,4.152l2.448,-0.864Zm11.424,12.789c-0.096,0.336 -0.216,0.529 -0.36,0.649c-0.168,0.144 -0.336,0.168 -0.672,0.168c-0.36,0 -1.176,0 -2.04,-0.096c0.24,0.432 0.456,1.104 0.48,1.536c1.032,0.096 2.088,0.096 2.616,0.048c0.6,-0.024 1.128,-0.12 1.56,-0.48c0.504,-0.36 0.792,-1.128 1.008,-2.544c0.072,-0.239 0.096,-0.766 0.096,-0.766l-6.528,0c0.048,-0.195 0.096,-0.387 0.144,-0.579l8.496,0l0,-1.557l-6.264,0c-0.24,-0.504 -0.528,-1.08 -0.768,-1.488l-2.328,0.504c0.144,0.312 0.288,0.648 0.432,0.984l-6.24,0l0,1.557l4.296,0c-0.432,1.392 -1.416,2.304 -4.224,2.88c0.36,0.36 0.864,1.008 1.128,1.56c-0.576,-0.168 -1.056,-0.384 -1.536,-0.672c-0.768,-0.408 -1.272,-0.816 -1.704,-1.08c0.792,-1.822 1.416,-4.079 1.824,-6.287l-1.176,-0.384l-0.384,0.072l-0.6,0c0.576,-1.656 1.224,-3.6 1.776,-5.28l-5.856,0l0,2.496l2.28,0c-0.576,1.872 -1.296,3.816 -1.896,5.232l2.904,0c-0.36,1.585 -0.888,3.239 -1.464,4.536c-0.696,0.48 -1.464,1.225 -2.16,2.113l1.752,2.494c0.648,-1.391 1.464,-2.95 2.016,-2.95c0.504,0 1.32,0.768 2.328,1.343c1.728,0.983 3.744,1.247 6.936,1.247c2.76,0 7.08,-0.168 9.072,-0.264c0.048,-0.743 0.48,-2.037 0.792,-2.734c-2.664,0.36 -6.912,0.601 -9.744,0.601c-1.728,0 -3.288,-0.048 -4.584,-0.337c2.112,-0.6 3.36,-1.393 4.056,-2.522l4.536,0Z" style="fill:#f58600;fill-rule:nonzero;"/><path d="M564.64,536.891l0,-4.536l9,0l0,4.536l-9,0Zm7.608,-13.848c-1.176,1.536 -2.712,2.904 -4.488,4.056c-1.056,-1.008 -2.712,-2.304 -4.104,-3.312c0.312,-0.24 0.6,-0.48 0.912,-0.744l7.68,0Zm4.344,6.72l-7.752,0c3.312,-2.088 6.048,-4.824 7.704,-8.28l-1.968,-1.176l-0.48,0.144l-7.008,0c0.48,-0.6 0.912,-1.2 1.344,-1.8l-3.192,-0.672c-1.464,2.256 -4.104,4.656 -8.016,6.36c0.648,0.504 1.536,1.584 1.968,2.28c0.768,-0.36 1.488,-0.792 2.16,-1.224c1.296,1.008 2.736,2.232 3.768,3.24c-2.568,1.272 -5.448,2.232 -8.352,2.808c0.528,0.648 1.2,1.872 1.464,2.64c1.2,-0.288 2.376,-0.6 3.552,-1.008l0,7.44l2.856,0l0,-1.056l9,0l0,1.056l2.952,0l0,-10.752Z" style="fill:#f58600;fill-rule:nonzero;"/><path d="M601.672,524.723c-0.408,1.464 -0.96,3 -1.416,4.008c0.696,0.264 1.872,0.84 2.448,1.176c0.864,-1.848 1.872,-4.416 2.496,-6.96l-2.088,-1.224l-0.552,0.168l-7.224,0c0.312,-1.056 0.576,-2.136 0.816,-3.24l-3.168,-0.528c-0.696,3.864 -2.112,7.704 -4.104,9.936c0.768,0.36 2.232,1.176 2.856,1.656c0.96,-1.344 1.872,-3.048 2.616,-4.992l7.32,0Zm-11.088,-3.168l-6.6,0l0,2.76l6.6,0l0,-2.76Zm0.528,9.6l-7.608,0l0,2.856l7.608,0l0,-2.856Zm7.44,-3l0,-2.808l-3.072,0l0,2.208c0,3.096 -0.672,7.776 -7.104,10.728c0.696,0.552 1.728,1.656 2.16,2.352c3.96,-1.896 6,-4.488 7.008,-7.056c1.296,3.12 3.24,5.448 6.312,6.816c0.384,-0.768 1.248,-1.968 1.896,-2.544c-4.104,-1.536 -6.192,-5.112 -7.2,-9.696Z" style="fill:#f58600;fill-rule:nonzero;"/><path d="M617.008,532.81l2.712,0c0.384,0.648 0.84,1.681 0.984,2.281c0.384,-0.456 1.104,-0.96 4.896,-3.288c-0.24,-0.48 -0.552,-1.51 -0.672,-2.183l-1.68,0.984l0,-6.314l1.896,0c0.192,2.832 0.528,5.45 1.032,7.489c-1.152,1.439 -2.472,2.616 -3.984,3.432c0.552,0.481 1.296,1.369 1.704,1.97l-1.368,0c-2.208,0 -4.056,-0.144 -5.52,-0.745l0,-3.626Zm12.48,-7.557c-0.36,1.222 -0.84,2.445 -1.416,3.598c-0.192,-1.369 -0.336,-2.879 -0.456,-4.561l4.248,0l0,-2.373l-1.872,0l1.68,-0.913c-0.456,-0.721 -1.344,-1.898 -2.064,-2.76l-1.92,0.982c0.624,0.817 1.392,1.922 1.824,2.691l-1.992,0c-0.048,-1.25 -0.072,-2.523 -0.048,-3.816l-2.568,0c0.024,1.293 0.048,2.542 0.12,3.816l-4.32,0l0,8.855c0,0.887 -0.528,1.438 -0.984,1.75l0,-2.181l-2.712,0l0,-2.619l3.168,0l0,-2.517l-3.648,0l0,-2.043l3.24,0l0,-2.493l-3.24,0l0,-2.544l-2.64,0l0,2.544l-3.336,0l0,2.493l3.336,0l0,2.043l-4.104,0l0,2.517l4.656,0l0,6.818c-0.528,-0.672 -0.96,-1.49 -1.32,-2.545c0.024,-0.935 0.024,-1.895 0,-2.808l-2.4,-0.144c0.12,3.239 0,6.959 -1.512,9.672c0.552,0.288 1.488,1.175 1.848,1.751c0.792,-1.32 1.272,-2.758 1.584,-4.32c2.064,3.096 5.184,3.768 9.864,3.768l8.688,0c0.168,-0.863 0.648,-2.158 1.104,-2.83c-1.632,0.073 -5.88,0.097 -8.328,0.097c1.152,-0.723 2.208,-1.634 3.12,-2.665c0.624,1.198 1.368,1.894 2.304,1.894c1.632,0.024 2.304,-0.863 2.664,-3.984c-0.576,-0.24 -1.32,-0.791 -1.848,-1.318c-0.048,1.942 -0.24,2.833 -0.528,2.833c-0.336,0 -0.648,-0.554 -0.96,-1.563c1.272,-1.894 2.256,-4.104 2.976,-6.526l-2.208,-0.599Z" style="fill:#f58600;fill-rule:nonzero;"/><path d="M640.383,533.437c0.047,-0.553 0.071,-1.058 0.071,-1.563l3.939,0l0,1.563l-4.01,0Zm4.01,-5.331l0,1.659l-3.939,0l0,-1.659l3.939,0Zm2.757,-2.229l-9.261,0l0,5.493c0,2.354 -0.144,5.376 -1.632,7.537c0.576,0.288 1.704,1.152 2.136,1.608c0.959,-1.368 1.51,-3.168 1.774,-4.993l4.226,0l0,2.139c0,0.288 -0.096,0.384 -0.384,0.384c-0.312,0.024 -1.272,0.024 -2.16,-0.024c0.36,0.647 0.768,1.702 0.912,2.421c1.464,0 2.567,-0.048 3.335,-0.456c0.815,-0.407 1.054,-1.078 1.054,-2.301l0,-11.808Zm6.843,11.446c0,0.336 -0.12,0.432 -0.504,0.432c-0.409,0.024 -1.659,0.024 -2.881,-0.024c0.431,0.744 0.887,1.92 1.031,2.688c1.73,0.024 3.026,-0.048 3.937,-0.48c0.959,-0.456 1.222,-1.152 1.222,-2.568l0,-11.929l-2.805,0l0,11.881Zm-2.163,-11.209l-2.613,0l0,9.793l2.613,0l0,-9.793Zm1.37,-4.461c0.601,-0.84 1.249,-1.776 1.824,-2.712l-3.097,-0.912c-0.48,1.104 -1.247,2.52 -1.966,3.624l-6.672,0l1.32,-0.456c-0.408,-0.912 -1.368,-2.208 -2.232,-3.12l-2.712,0.936c0.672,0.792 1.368,1.824 1.8,2.64l-5.112,0l0,2.565l21.717,0l0,-2.565l-4.87,0Z" style="fill:#f58600;fill-rule:nonzero;"/><path d="M680.465,536.677l-2.595,0l0,-9.723l2.595,0l0,9.723Zm-13.851,-9.723l2.451,0l0,9.723l-2.451,0l0,-9.723Zm8.691,1.659l-3.675,0l0,-1.659l3.675,0l0,1.659Zm-3.675,6.285l3.675,0l0,1.779l-3.675,0l0,-1.779Zm3.675,-2.229l-3.675,0l0,-1.827l3.675,0l0,1.827Zm9.165,-10.515l0,-2.685l-21.597,0l0,2.685l8.757,0c-0.095,0.721 -0.239,1.466 -0.383,2.163l-7.39,0l0,16.197l2.757,0l0,-1.224l13.851,0l0,1.224l2.901,0l0,-16.197l-9.117,0c0.192,-0.697 0.432,-1.418 0.648,-2.163l9.573,0Z" style="fill:#f58600;fill-rule:nonzero;"/></g><g transform="matrix(0.987759,0,0,0.987759,1104.27,399.859)"><g transform="matrix(24,0,0,24,3.55271e-15,0)"><path d="M0.277,-0.586l-0.113,0l0,-0.14l0.113,0l0,0.14Zm-0.113,0.431l0,-0.163l0.113,0l0,0.146l-0.113,0.017Zm0.113,-0.225l-0.113,0l0,-0.143l0.113,0l0,0.143Zm0.103,-0.346l0,-0.068l-0.328,0l0,0.068l0.05,0l0,0.581c-0.022,0.003 -0.042,0.006 -0.061,0.009l0.015,0.067c0.064,-0.012 0.141,-0.026 0.221,-0.039l0,0.185l0.064,0l0,-0.803l0.039,0Zm0.186,0.381l0,0.156l-0.085,0l0,-0.156l-0.061,0l0,0.22l0.139,0c-0.013,0.058 -0.049,0.115 -0.143,0.159c0.012,0.01 0.034,0.036 0.041,0.051c0.143,-0.07 0.173,-0.18 0.173,-0.276l0,-0.154l-0.064,0Zm-0.004,-0.173c0.007,0.02 0.015,0.043 0.022,0.066l-0.13,0.013c0.061,-0.067 0.123,-0.156 0.177,-0.246l-0.053,-0.028c-0.015,0.029 -0.033,0.06 -0.05,0.087l-0.078,0.004c0.039,-0.048 0.079,-0.115 0.111,-0.181l-0.056,-0.026c-0.027,0.075 -0.077,0.148 -0.092,0.167c-0.014,0.019 -0.026,0.033 -0.04,0.035c0.007,0.019 0.016,0.053 0.019,0.069c0.01,-0.006 0.027,-0.01 0.101,-0.016c-0.031,0.043 -0.057,0.076 -0.07,0.09c-0.022,0.027 -0.041,0.045 -0.058,0.048c0.007,0.019 0.015,0.052 0.018,0.068c0.014,-0.008 0.041,-0.014 0.215,-0.035c0.005,0.02 0.01,0.038 0.013,0.052l0.049,-0.016c-0.009,-0.04 -0.031,-0.11 -0.051,-0.163l-0.047,0.012Zm0.285,0.327l-0.085,0l0,-0.155l-0.065,0l0,0.425l0.065,0l0,-0.205l0.085,0l0,0.038l0.062,0l0,-0.249l-0.062,0l0,0.146Zm0.007,-0.338c0.009,0.022 0.019,0.045 0.027,0.069l-0.128,0.015c0.054,-0.065 0.108,-0.153 0.154,-0.24l-0.053,-0.027c-0.012,0.027 -0.027,0.055 -0.041,0.08l-0.078,0.004c0.036,-0.046 0.073,-0.109 0.102,-0.172l-0.052,-0.024c-0.026,0.071 -0.075,0.144 -0.089,0.163c-0.014,0.018 -0.026,0.03 -0.039,0.033c0.006,0.017 0.015,0.05 0.018,0.064c0.01,-0.005 0.029,-0.009 0.107,-0.016c-0.028,0.045 -0.053,0.08 -0.064,0.094c-0.021,0.026 -0.038,0.044 -0.054,0.047c0.007,0.018 0.015,0.051 0.017,0.066c0.016,-0.009 0.042,-0.014 0.217,-0.038c0.008,0.02 0.014,0.039 0.018,0.054l0.048,-0.019c-0.013,-0.042 -0.041,-0.114 -0.065,-0.167l-0.045,0.014Z" style="fill:#007099;fill-rule:nonzero;"/></g><g transform="matrix(24,0,0,24,24,0)"><path d="M0.796,-0.725c-0.061,-0.038 -0.179,-0.086 -0.269,-0.112l-0.033,0.059c0.092,0.029 0.209,0.08 0.266,0.12l0.036,-0.067Zm-0.53,0.013c-0.014,-0.035 -0.047,-0.087 -0.075,-0.128l-0.056,0.029c0.027,0.041 0.058,0.097 0.073,0.133l0.058,-0.034Zm0.107,0.045l-0.32,0l0,0.061l0.32,0l0,-0.061Zm-0.091,0.456l0,0.165l-0.13,0l0,-0.165l0.13,0Zm0.064,-0.062l-0.257,0l0,0.336l0.063,0l0,-0.047l0.194,0l0,-0.289Zm-0.257,-0.074l0.257,0l0,-0.059l-0.257,0l0,0.059Zm0,-0.13l0.258,0l0,-0.059l-0.258,0l0,0.059Zm0.455,0.025l-0.013,0.003l-0.162,0l0,0.068l0.139,0c-0.03,0.13 -0.091,0.25 -0.16,0.308c0.016,0.012 0.037,0.038 0.048,0.053c0.091,-0.08 0.163,-0.233 0.193,-0.416l-0.045,-0.016Zm0.342,-0.102c-0.032,0.049 -0.083,0.115 -0.129,0.166c-0.019,-0.049 -0.035,-0.1 -0.048,-0.15l0,-0.092l-0.269,0l0,0.068l0.198,0l0,0.55c0,0.014 -0.005,0.018 -0.02,0.019c-0.013,0 -0.062,0.001 -0.114,-0.002c0.01,0.02 0.02,0.052 0.023,0.072c0.072,0 0.117,-0.001 0.146,-0.013c0.027,-0.012 0.036,-0.034 0.036,-0.076l0,-0.344c0.05,0.145 0.12,0.273 0.205,0.342c0.012,-0.018 0.035,-0.044 0.052,-0.057c-0.072,-0.052 -0.134,-0.147 -0.184,-0.256c0.051,-0.05 0.114,-0.12 0.164,-0.179l-0.06,-0.048Z" style="fill:#007099;fill-rule:nonzero;"/></g><g transform="matrix(20,0,0,20,-8.31,26)"><path d="M0.239,0.197l0.057,-0.027c-0.087,-0.142 -0.128,-0.311 -0.128,-0.481c0,-0.17 0.041,-0.338 0.128,-0.481l-0.057,-0.026c-0.092,0.149 -0.147,0.311 -0.147,0.507c0,0.197 0.055,0.358 0.147,0.508Z" style="fill:#007099;fill-rule:nonzero;"/></g><g transform="matrix(20,0,0,20,-1.55,26)"><path d="M0.289,-0.705l-0.038,0.029c0.034,0.031 0.076,0.074 0.095,0.102l0.049,-0.041c-0.019,-0.025 -0.057,-0.062 -0.09,-0.09l0.189,0l0,-0.06l-0.256,0c0.01,-0.02 0.019,-0.04 0.027,-0.06l-0.065,-0.018c-0.034,0.083 -0.09,0.163 -0.151,0.218c0.016,0.012 0.042,0.036 0.052,0.049c0.036,-0.035 0.071,-0.079 0.102,-0.129l0.086,0Zm0.169,0.367l0,0.093l-0.24,0c0.005,-0.029 0.01,-0.062 0.015,-0.093l0.225,0Zm0.073,-0.155l0.262,0l0,0.092l-0.262,0l0,-0.092Zm0,0.248l0,-0.093l0.335,0l0,-0.218l-0.731,0l0,0.063l0.323,0l0,0.092l-0.288,0c-0.008,0.071 -0.022,0.16 -0.035,0.22l0.264,0c-0.082,0.085 -0.209,0.162 -0.325,0.2c0.017,0.014 0.037,0.041 0.048,0.059c0.119,-0.046 0.248,-0.132 0.336,-0.231l0,0.23l0.073,0l0,-0.258l0.288,0c-0.01,0.09 -0.021,0.129 -0.034,0.143c-0.009,0.007 -0.019,0.008 -0.036,0.008c-0.018,0 -0.064,0 -0.113,-0.005c0.011,0.019 0.019,0.047 0.02,0.069c0.051,0.002 0.1,0.002 0.126,0c0.027,-0.001 0.046,-0.007 0.062,-0.025c0.026,-0.024 0.039,-0.085 0.053,-0.223c0.001,-0.011 0.002,-0.031 0.002,-0.031l-0.368,0Zm0.119,-0.519c0.009,-0.021 0.018,-0.041 0.026,-0.063l-0.069,-0.016c-0.024,0.072 -0.069,0.14 -0.124,0.186c0.016,0.009 0.044,0.032 0.056,0.044c0.027,-0.026 0.053,-0.057 0.076,-0.092l0.112,0l-0.043,0.035c0.036,0.029 0.08,0.071 0.103,0.097l0.049,-0.042c-0.022,-0.026 -0.064,-0.062 -0.099,-0.09l0.215,0l0,-0.059l-0.302,0Z" style="fill:#007099;fill-rule:nonzero;"/></g><g transform="matrix(20,0,0,20,18.45,26)"><path d="M0.088,0l0.402,0l0,-0.076l-0.147,0l0,-0.657l-0.07,0c-0.04,0.023 -0.087,0.04 -0.152,0.052l0,0.058l0.13,0l0,0.547l-0.163,0l0,0.076Z" style="fill:#007099;fill-rule:nonzero;"/></g><g transform="matrix(20,0,0,20,29.55,26)"><path d="M0.327,-0.044l0,-0.227l0.444,0l0,0.227l-0.444,0Zm0.405,-0.625c-0.057,0.084 -0.14,0.158 -0.236,0.218c-0.049,-0.047 -0.133,-0.11 -0.201,-0.158c0.023,-0.02 0.046,-0.039 0.067,-0.06l0.37,0Zm0.115,0.329l-0.397,0c0.166,-0.088 0.31,-0.211 0.392,-0.37l-0.05,-0.031l-0.012,0.004l-0.354,0c0.025,-0.028 0.046,-0.057 0.065,-0.085l-0.083,-0.018c-0.06,0.095 -0.173,0.206 -0.334,0.284c0.016,0.011 0.04,0.039 0.051,0.056c0.04,-0.02 0.077,-0.043 0.112,-0.067c0.066,0.049 0.142,0.109 0.19,0.157c-0.118,0.064 -0.25,0.111 -0.377,0.137c0.015,0.016 0.032,0.048 0.038,0.068c0.055,-0.013 0.111,-0.029 0.166,-0.048l0,0.329l0.073,0l0,-0.052l0.444,0l0,0.052l0.076,0l0,-0.416Z" style="fill:#007099;fill-rule:nonzero;"/></g><g transform="matrix(20,0,0,20,49.55,26)"><path d="M0.099,0.197c0.093,-0.15 0.148,-0.311 0.148,-0.508c0,-0.196 -0.055,-0.358 -0.148,-0.507l-0.056,0.026c0.086,0.143 0.128,0.311 0.128,0.481c0,0.17 -0.042,0.339 -0.128,0.481l0.056,0.027Z" style="fill:#007099;fill-rule:nonzero;"/></g></g><g transform="matrix(0.987759,0,0,0.987759,678.521,399.859)"><g transform="matrix(24,0,0,24,-12,0)"><path d="M0.74,-0.271l0,0.221l-0.483,0l0,-0.221l0.483,0Zm-0.558,0.347l0.075,0l0,-0.054l0.483,0l0,0.052l0.078,0l0,-0.416l-0.636,0l0,0.418Zm0.416,-0.761c0.048,0.043 0.099,0.095 0.145,0.147l-0.51,0.025c0.088,-0.083 0.177,-0.186 0.256,-0.294l-0.073,-0.033c-0.078,0.124 -0.194,0.25 -0.23,0.282c-0.033,0.033 -0.059,0.055 -0.081,0.059c0.008,0.02 0.021,0.057 0.024,0.073c0.039,-0.014 0.097,-0.016 0.668,-0.048c0.025,0.031 0.046,0.06 0.061,0.086l0.063,-0.045c-0.052,-0.083 -0.167,-0.205 -0.264,-0.29l-0.059,0.038Z" style="fill:#007099;fill-rule:nonzero;"/></g><g transform="matrix(24,0,0,24,12,0)"><path d="M0.411,-0.294c-0.019,-0.022 -0.101,-0.106 -0.132,-0.136l0,-0.061l0.113,0l0,-0.035l0.564,0l0,-0.051l-0.252,0l0,-0.054l0.202,0l0,-0.048l-0.202,0l0,-0.052l0.227,0l0,-0.05l-0.227,0l0,-0.055l-0.074,0l0,0.055l-0.212,0l0,0.05l0.212,0l0,0.052l-0.19,0l0,0.048l0.19,0l0,0.054l-0.243,0l0,0.016l-0.108,0l0,-0.167c0.046,-0.011 0.09,-0.023 0.126,-0.038l-0.052,-0.056c-0.07,0.031 -0.197,0.057 -0.305,0.074c0.009,0.016 0.02,0.041 0.023,0.057c0.043,-0.005 0.09,-0.013 0.136,-0.021l0,0.151l-0.153,0l0,0.07l0.147,0c-0.039,0.115 -0.109,0.246 -0.173,0.317c0.012,0.018 0.03,0.047 0.038,0.068c0.05,-0.06 0.101,-0.157 0.141,-0.257l0,0.437l0.072,0l0,-0.43c0.033,0.041 0.072,0.093 0.088,0.121l0.044,-0.059Zm0.111,0.094l0.307,0l0,0.067l-0.307,0l0,-0.067Zm0,-0.113l0.307,0l0,0.065l-0.307,0l0,-0.065Zm0,-0.112l0.307,0l0,0.063l-0.307,0l0,-0.063Zm0.377,0.342l0,-0.392l-0.445,0l0,0.392l0.445,0Zm-0.333,0.005c-0.047,0.041 -0.141,0.086 -0.223,0.11c0.015,0.012 0.037,0.034 0.048,0.048c0.082,-0.025 0.178,-0.073 0.237,-0.121l-0.062,-0.037Zm0.157,0.04c0.064,0.038 0.136,0.085 0.176,0.115l0.065,-0.036c-0.047,-0.032 -0.124,-0.078 -0.191,-0.116l-0.05,0.037Z" style="fill:#007099;fill-rule:nonzero;"/></g><g transform="matrix(24,0,0,24,36,0)"><path d="M0.461,-0.4l0.072,0l0,-0.227l0.316,0l0,0.161l0.073,0l0,-0.214l-0.389,0l0,-0.064l0.343,0l0,-0.053l-0.754,0l0,0.053l0.339,0l0,0.064l-0.382,0l0,0.214l0.071,0l0,-0.161l0.311,0l0,0.227Zm0.364,-0.045c-0.054,-0.019 -0.156,-0.04 -0.232,-0.049l-0.018,0.045c0.078,0.012 0.179,0.036 0.233,0.055l0.017,-0.051Zm-0.048,-0.167c-0.048,0.017 -0.132,0.048 -0.189,0.06l0.026,0.039c0.057,-0.012 0.138,-0.033 0.195,-0.057l-0.032,-0.042Zm-0.584,0.045c0.066,0.013 0.149,0.037 0.193,0.058l0.022,-0.046c-0.045,-0.019 -0.128,-0.042 -0.192,-0.052l-0.023,0.04Zm-0.003,0.17c0.065,-0.012 0.141,-0.028 0.218,-0.044l-0.003,-0.047c-0.088,0.014 -0.174,0.027 -0.237,0.033l0.022,0.058Zm0.047,0.275l0,-0.069l0.221,0l0,0.069l-0.221,0Zm0.221,-0.187l0,0.068l-0.221,0l0,-0.068l0.221,0Zm0.308,0.068l-0.236,0l0,-0.068l0.236,0l0,0.068Zm-0.236,0.119l0,-0.069l0.236,0l0,0.069l-0.236,0Zm0.074,0.125c-0.062,0 -0.074,-0.006 -0.074,-0.04l0,-0.031l0.309,0l0,-0.295l-0.674,0l0,0.347l0.072,0l0,-0.052l0.221,0l0,0.031c0,0.08 0.032,0.1 0.143,0.1l0.23,0c0.095,0 0.117,-0.031 0.128,-0.152c-0.021,-0.004 -0.048,-0.013 -0.065,-0.024c-0.005,0.099 -0.015,0.116 -0.068,0.116l-0.222,0Z" style="fill:#007099;fill-rule:nonzero;"/></g><g transform="matrix(20,0,0,20,-13.86,26)"><path d="M0.239,0.197l0.057,-0.027c-0.087,-0.142 -0.128,-0.311 -0.128,-0.481c0,-0.17 0.041,-0.338 0.128,-0.481l-0.057,-0.026c-0.092,0.149 -0.147,0.311 -0.147,0.507c0,0.197 0.055,0.358 0.147,0.508Z" style="fill:#007099;fill-rule:nonzero;"/></g><g transform="matrix(20,0,0,20,-7.1,26)"><path d="M0.289,-0.705l-0.038,0.029c0.034,0.031 0.076,0.074 0.095,0.102l0.049,-0.041c-0.019,-0.025 -0.057,-0.062 -0.09,-0.09l0.189,0l0,-0.06l-0.256,0c0.01,-0.02 0.019,-0.04 0.027,-0.06l-0.065,-0.018c-0.034,0.083 -0.09,0.163 -0.151,0.218c0.016,0.012 0.042,0.036 0.052,0.049c0.036,-0.035 0.071,-0.079 0.102,-0.129l0.086,0Zm0.169,0.367l0,0.093l-0.24,0c0.005,-0.029 0.01,-0.062 0.015,-0.093l0.225,0Zm0.073,-0.155l0.262,0l0,0.092l-0.262,0l0,-0.092Zm0,0.248l0,-0.093l0.335,0l0,-0.218l-0.731,0l0,0.063l0.323,0l0,0.092l-0.288,0c-0.008,0.071 -0.022,0.16 -0.035,0.22l0.264,0c-0.082,0.085 -0.209,0.162 -0.325,0.2c0.017,0.014 0.037,0.041 0.048,0.059c0.119,-0.046 0.248,-0.132 0.336,-0.231l0,0.23l0.073,0l0,-0.258l0.288,0c-0.01,0.09 -0.021,0.129 -0.034,0.143c-0.009,0.007 -0.019,0.008 -0.036,0.008c-0.018,0 -0.064,0 -0.113,-0.005c0.011,0.019 0.019,0.047 0.02,0.069c0.051,0.002 0.1,0.002 0.126,0c0.027,-0.001 0.046,-0.007 0.062,-0.025c0.026,-0.024 0.039,-0.085 0.053,-0.223c0.001,-0.011 0.002,-0.031 0.002,-0.031l-0.368,0Zm0.119,-0.519c0.009,-0.021 0.018,-0.041 0.026,-0.063l-0.069,-0.016c-0.024,0.072 -0.069,0.14 -0.124,0.186c0.016,0.009 0.044,0.032 0.056,0.044c0.027,-0.026 0.053,-0.057 0.076,-0.092l0.112,0l-0.043,0.035c0.036,0.029 0.08,0.071 0.103,0.097l0.049,-0.042c-0.022,-0.026 -0.064,-0.062 -0.099,-0.09l0.215,0l0,-0.059l-0.302,0Z" style="fill:#007099;fill-rule:nonzero;"/></g><g transform="matrix(20,0,0,20,12.9,26)"><path d="M0.088,0l0.402,0l0,-0.076l-0.147,0l0,-0.657l-0.07,0c-0.04,0.023 -0.087,0.04 -0.152,0.052l0,0.058l0.13,0l0,0.547l-0.163,0l0,0.076Z" style="fill:#007099;fill-rule:nonzero;"/></g><g transform="matrix(20,0,0,20,24,26)"><path d="M0.044,0l0.461,0l0,-0.079l-0.203,0c-0.037,0 -0.082,0.004 -0.12,0.007c0.172,-0.163 0.287,-0.312 0.287,-0.458c0,-0.131 -0.082,-0.217 -0.213,-0.217c-0.093,0 -0.156,0.043 -0.216,0.108l0.053,0.052c0.04,-0.048 0.092,-0.085 0.152,-0.085c0.091,0 0.135,0.061 0.135,0.145c0,0.126 -0.106,0.272 -0.336,0.473l0,0.054Z" style="fill:#007099;fill-rule:nonzero;"/></g><g transform="matrix(20,0,0,20,35.1,26)"><path d="M0.327,-0.044l0,-0.227l0.444,0l0,0.227l-0.444,0Zm0.405,-0.625c-0.057,0.084 -0.14,0.158 -0.236,0.218c-0.049,-0.047 -0.133,-0.11 -0.201,-0.158c0.023,-0.02 0.046,-0.039 0.067,-0.06l0.37,0Zm0.115,0.329l-0.397,0c0.166,-0.088 0.31,-0.211 0.392,-0.37l-0.05,-0.031l-0.012,0.004l-0.354,0c0.025,-0.028 0.046,-0.057 0.065,-0.085l-0.083,-0.018c-0.06,0.095 -0.173,0.206 -0.334,0.284c0.016,0.011 0.04,0.039 0.051,0.056c0.04,-0.02 0.077,-0.043 0.112,-0.067c0.066,0.049 0.142,0.109 0.19,0.157c-0.118,0.064 -0.25,0.111 -0.377,0.137c0.015,0.016 0.032,0.048 0.038,0.068c0.055,-0.013 0.111,-0.029 0.166,-0.048l0,0.329l0.073,0l0,-0.052l0.444,0l0,0.052l0.076,0l0,-0.416Z" style="fill:#007099;fill-rule:nonzero;"/></g><g transform="matrix(20,0,0,20,55.1,26)"><path d="M0.099,0.197c0.093,-0.15 0.148,-0.311 0.148,-0.508c0,-0.196 -0.055,-0.358 -0.148,-0.507l-0.056,0.026c0.086,0.143 0.128,0.311 0.128,0.481c0,0.17 -0.042,0.339 -0.128,0.481l0.056,0.027Z" style="fill:#007099;fill-rule:nonzero;"/></g></g><rect x="263.474" y="405.86" width="126.832" height="29.095" style="fill:#261b1b;"/><g transform="matrix(0.987759,0,0,0.987759,304.016,399.859)"><g transform="matrix(24,0,0,24,-7.10543e-15,0)"><path d="M0.345,-0.77c-0.014,0.063 -0.045,0.157 -0.068,0.213l0.048,0.017c0.026,-0.052 0.058,-0.139 0.084,-0.208l-0.064,-0.022Zm-0.182,0.21c-0.01,-0.057 -0.034,-0.143 -0.056,-0.21l-0.055,0.013c0.021,0.067 0.044,0.154 0.054,0.211l0.057,-0.014Zm-0.03,0.185c-0.018,0.089 -0.062,0.2 -0.103,0.258c0.012,0.019 0.029,0.052 0.036,0.073c0.052,-0.069 0.095,-0.206 0.116,-0.315l-0.049,-0.016Zm0.25,-0.058l0,-0.069l-0.123,0l0,-0.333l-0.067,0l0,0.332l-0.146,0l0,0.07l0.146,0l0,0.51l0.067,0l0,-0.51l0.123,0Zm-0.111,0.087c0.02,0.039 0.073,0.158 0.09,0.207l0.051,-0.055c-0.014,-0.03 -0.082,-0.154 -0.1,-0.18l-0.041,0.028Zm0.254,0.207c0.002,-0.026 0.003,-0.051 0.003,-0.074l0.3,0l0,0.074l-0.303,0Zm0.303,-0.201l0,0.074l-0.3,0l0,-0.074l0.3,0Zm0.07,-0.059l-0.438,0l0,0.184c0,0.079 -0.007,0.18 -0.066,0.255c0.015,0.008 0.041,0.035 0.052,0.049c0.041,-0.049 0.061,-0.112 0.072,-0.175l0.31,0l0,0.085c0,0.011 -0.003,0.015 -0.016,0.015c-0.012,0.001 -0.053,0.001 -0.098,-0.001c0.009,0.018 0.018,0.043 0.021,0.062c0.063,0 0.104,0 0.129,-0.011c0.027,-0.011 0.034,-0.029 0.034,-0.065l0,-0.398Zm-0.188,-0.116l0,-0.068l0.218,0l0,-0.054l-0.218,0l0,-0.061l0.236,0l0,-0.057l-0.236,0l0,-0.081l-0.073,0l0,0.081l-0.225,0l0,0.057l0.225,0l0,0.061l-0.2,0l0,0.054l0.2,0l0,0.068l-0.236,0l0,0.057l0.555,0l0,-0.057l-0.246,0Z" style="fill:#261b1b;fill-rule:nonzero;"/></g><g transform="matrix(24,0,0,24,24,0)"><path d="M0.378,-0.542l0.158,0l0,0.123l-0.158,0l0,-0.123Zm0,0.185l0.158,0l0,0.125l-0.158,0l0,-0.125Zm0,-0.369l0.158,0l0,0.122l-0.158,0l0,-0.122Zm-0.064,-0.066l0,0.625l0.289,0l0,-0.625l-0.289,0Zm0.176,0.674c0.04,0.049 0.089,0.117 0.111,0.159l0.059,-0.037c-0.023,-0.04 -0.073,-0.106 -0.114,-0.153l-0.056,0.031Zm-0.135,-0.028c-0.029,0.068 -0.08,0.138 -0.133,0.184c0.016,0.01 0.046,0.03 0.058,0.041c0.053,-0.05 0.11,-0.13 0.144,-0.207l-0.069,-0.018Zm0.497,-0.69l0,0.82c0,0.017 -0.007,0.022 -0.024,0.022c-0.015,0.001 -0.068,0.002 -0.127,0c0.01,0.019 0.019,0.051 0.022,0.07c0.082,0 0.129,-0.002 0.157,-0.014c0.028,-0.012 0.039,-0.033 0.039,-0.079l0,-0.819l-0.067,0Zm-0.174,0.102l0,0.568l0.066,0l0,-0.568l-0.066,0Zm-0.594,-0.039c0.056,0.028 0.125,0.074 0.157,0.107l0.044,-0.059c-0.034,-0.033 -0.102,-0.075 -0.158,-0.101l-0.043,0.053Zm-0.043,0.267c0.059,0.026 0.13,0.068 0.164,0.099l0.042,-0.061c-0.035,-0.031 -0.106,-0.069 -0.164,-0.092l-0.042,0.054Zm0.021,0.53l0.067,0.04c0.043,-0.092 0.093,-0.214 0.13,-0.318l-0.059,-0.039c-0.041,0.112 -0.098,0.24 -0.138,0.317Z" style="fill:#261b1b;fill-rule:nonzero;"/></g><g transform="matrix(24.0949,0,0,24.0949,-36.2374,30.0949)"><path d="M0.339,-0.182c0.012,-0.017 0.023,-0.034 0.034,-0.052l0.163,0l0,0.052l-0.197,0Zm0.014,-0.319c0.07,-0.015 0.143,-0.032 0.215,-0.051c0.063,0.017 0.123,0.034 0.172,0.051l-0.387,0Zm0.353,-0.173c-0.037,0.016 -0.083,0.032 -0.131,0.045c-0.066,-0.016 -0.132,-0.031 -0.195,-0.045l0.326,0Zm-0.053,0.641l0,-0.058l0.218,0l0,-0.091l-0.218,0l0,-0.052l0.247,0l0,-0.093l-0.247,0l0,-0.061l-0.117,0l0,0.061l-0.116,0c0.006,-0.014 0.011,-0.027 0.016,-0.04l-0.101,-0.03c-0.025,0.069 -0.066,0.133 -0.114,0.18c0.004,-0.038 0.005,-0.073 0.005,-0.105l0,-0.084l0.726,0l0,-0.095l-0.147,0l0.056,-0.046c-0.045,-0.015 -0.099,-0.031 -0.158,-0.047c0.045,-0.016 0.087,-0.033 0.123,-0.05l-0.048,-0.03l0.145,0l0,-0.093l-0.346,0c-0.017,-0.03 -0.044,-0.065 -0.067,-0.091l-0.08,0.039c0.012,0.015 0.026,0.033 0.038,0.052l-0.348,0l0,0.093l0.172,0l-0.056,0.043c0.059,0.011 0.124,0.025 0.187,0.041c-0.077,0.018 -0.156,0.032 -0.228,0.043c0.014,0.011 0.034,0.029 0.05,0.046l-0.135,0l0,0.178c0,0.103 -0.008,0.245 -0.089,0.345c0.025,0.013 0.074,0.055 0.092,0.077c0.066,-0.081 0.095,-0.196 0.107,-0.3c0.017,0.028 0.04,0.078 0.047,0.099c0.019,-0.018 0.039,-0.038 0.057,-0.061l0,0.072l0.212,0l0,0.058l-0.303,0l0,0.096l0.735,0l0,-0.096l-0.315,0Z" style="fill:#fff;fill-rule:nonzero;"/></g><g transform="matrix(24.0949,0,0,24.0949,-12.1424,30.0949)"><path d="M0.332,-0.107c-0.061,0.037 -0.177,0.071 -0.277,0.085c0.024,0.022 0.055,0.061 0.07,0.086c0.103,-0.024 0.223,-0.076 0.291,-0.133l-0.084,-0.038Zm0.269,0.05c0.084,0.035 0.201,0.088 0.259,0.121l0.084,-0.065c-0.064,-0.032 -0.182,-0.082 -0.263,-0.112l-0.08,0.056Zm0.042,-0.534c-0.014,0.024 -0.035,0.054 -0.051,0.077l0.036,0.011l-0.273,0l0.054,-0.013c-0.008,-0.021 -0.024,-0.05 -0.04,-0.075l0.274,0Zm-0.085,0.353l0,-0.044l0.3,0l0,-0.086l-0.3,0l0,-0.045l0.347,0l0,-0.09l-0.193,0c0.018,-0.018 0.039,-0.04 0.061,-0.064l-0.094,-0.024l0.264,0l0,-0.093l-0.129,0c0.025,-0.035 0.052,-0.08 0.08,-0.126l-0.125,-0.029c-0.014,0.043 -0.041,0.104 -0.064,0.144l0.036,0.011l-0.089,0l0,-0.163l-0.112,0l0,0.163l-0.075,0l0,-0.163l-0.11,0l0,0.163l-0.092,0l0.048,-0.018c-0.013,-0.038 -0.046,-0.098 -0.076,-0.14l-0.102,0.034c0.023,0.038 0.049,0.086 0.064,0.124l-0.136,0l0,0.093l0.255,0l-0.067,0.015c0.013,0.022 0.028,0.05 0.037,0.073l-0.184,0l0,0.09l0.338,0l0,0.045l-0.288,0l0,0.086l0.288,0l0,0.044l-0.381,0l0,0.098l0.381,0l0,0.228l0.118,0l0,-0.228l0.388,0l0,-0.098l-0.388,0Z" style="fill:#fff;fill-rule:nonzero;"/></g><g transform="matrix(24.0949,0,0,24.0949,11.9525,30.0949)"><path d="M0.561,-0.342l0,-0.215l0.226,0l0,0.215l-0.226,0Zm-0.351,0l0,-0.215l0.225,0l0,0.215l-0.225,0Zm0.351,-0.332l0,-0.173l-0.126,0l0,0.173l-0.345,0l0,0.504l0.12,0l0,-0.055l0.225,0l0,0.312l0.126,0l0,-0.312l0.226,0l0,0.05l0.125,0l0,-0.499l-0.351,0Z" style="fill:#fff;fill-rule:nonzero;"/></g><g transform="matrix(24.0949,0,0,24.0949,36.0475,30.0949)"><path d="M0.363,-0.679l0,0.115l0.557,0l0,-0.115l-0.308,0l0.105,-0.03c-0.011,-0.041 -0.031,-0.104 -0.051,-0.152l-0.113,0.028c0.017,0.047 0.037,0.111 0.044,0.154l-0.234,0Zm0.235,0.551c-0.01,-0.101 -0.038,-0.273 -0.068,-0.404l-0.108,0.024c0.027,0.134 0.051,0.309 0.059,0.413l0.117,-0.033Zm-0.338,-0.715c-0.051,0.142 -0.138,0.284 -0.228,0.374c0.02,0.029 0.053,0.094 0.064,0.124c0.021,-0.023 0.042,-0.048 0.063,-0.074l0,0.505l0.12,0l0,-0.692c0.036,-0.065 0.067,-0.134 0.093,-0.202l-0.112,-0.035Zm0.524,0.776c0.035,-0.125 0.072,-0.299 0.097,-0.449l-0.124,-0.019c-0.014,0.144 -0.048,0.338 -0.082,0.468l-0.348,0l0,0.115l0.627,0l0,-0.115l-0.17,0Z" style="fill:#fff;fill-rule:nonzero;"/></g><g transform="matrix(24.0949,0,0,24.0949,60.1424,30.0949)"><path d="M0.546,-0.166l0.001,-0.075l-0.032,0.002l0,-0.031l-0.093,0l0,0.035l-0.117,0.006c0.011,-0.02 0.022,-0.039 0.032,-0.058l0.2,0l0,-0.103c0.022,0.017 0.058,0.055 0.073,0.073c0.014,-0.022 0.027,-0.047 0.038,-0.073c0.016,0.072 0.036,0.139 0.059,0.199c-0.04,0.081 -0.098,0.144 -0.178,0.191c-0.028,-0.014 -0.06,-0.03 -0.096,-0.046c0.045,-0.038 0.067,-0.078 0.076,-0.118l0.037,-0.002Zm-0.291,0.016l0.152,-0.008c-0.012,0.024 -0.033,0.049 -0.07,0.071c-0.033,-0.013 -0.067,-0.025 -0.1,-0.036l0.018,-0.027Zm-0.073,-0.246l0.082,0l0,0.037l-0.082,0l0,-0.037Zm0.252,0l0,0.037l-0.08,0l0,-0.037l0.08,0Zm0.366,-0.165c-0.009,0.089 -0.022,0.169 -0.043,0.24c-0.022,-0.074 -0.039,-0.155 -0.051,-0.24l0.094,0Zm-0.59,-0.01l0,-0.036l0.054,0l0,0.036l-0.054,0Zm0.054,-0.14l0,0.032l-0.054,0l0,-0.032l0.054,0Zm0.148,0l0,0.032l-0.058,0l0,-0.032l0.058,0Zm-0.058,0.14l0,-0.036l0.058,0l0,0.036l-0.058,0Zm0.611,0.01l0,-0.104l-0.237,0c0.011,-0.054 0.019,-0.11 0.026,-0.166l-0.1,-0.013c-0.018,0.172 -0.051,0.342 -0.117,0.449l0,-0.073l-0.183,0l0,-0.028l0.161,0l0,-0.105l0.068,0l0,-0.084l-0.068,0l0,-0.101l-0.161,0l0,-0.061l-0.09,0l0,0.061l-0.152,0l0,0.101l-0.076,0l0,0.084l0.076,0l0,0.105l0.152,0l0,0.028l-0.179,0l0,0.181l0.147,0c-0.01,0.02 -0.022,0.042 -0.035,0.062c-0.058,0.003 -0.11,0.005 -0.154,0.007l0.009,0.08l0.09,-0.006c-0.014,0.023 -0.03,0.043 -0.044,0.059c0.042,0.012 0.088,0.028 0.133,0.046c-0.054,0.018 -0.123,0.033 -0.211,0.045c0.015,0.019 0.035,0.053 0.043,0.076c0.124,-0.018 0.214,-0.044 0.28,-0.074c0.05,0.023 0.095,0.047 0.129,0.069l0.064,-0.055c0.018,0.023 0.038,0.055 0.045,0.072c0.075,-0.048 0.134,-0.106 0.179,-0.177c0.039,0.065 0.085,0.118 0.145,0.158c0.015,-0.026 0.044,-0.064 0.067,-0.081c-0.067,-0.04 -0.119,-0.101 -0.158,-0.178c0.044,-0.105 0.07,-0.23 0.086,-0.377l0.065,0Z" style="fill:#fff;fill-rule:nonzero;"/></g></g><g transform="matrix(0.987759,0,0,0.987759,35.3328,399.859)"><g transform="matrix(24,0,0,24,3.55271e-15,0)"><path d="M0.7,-0.534l-0.397,0l0,-0.189l0.397,0l0,0.189Zm0.075,-0.26l-0.544,0l0,0.331l0.544,0l0,-0.331Zm-0.409,0.508l0,0.237l-0.209,0l0,-0.237l0.209,0Zm-0.28,0.363l0.071,0l0,-0.054l0.209,0l0,0.045l0.073,0l0,-0.426l-0.353,0l0,0.435Zm0.534,-0.126l0,-0.237l0.227,0l0,0.237l-0.227,0Zm-0.072,-0.309l0,0.435l0.072,0l0,-0.054l0.227,0l0,0.047l0.073,0l0,-0.428l-0.372,0Z" style="fill:#007099;fill-rule:nonzero;"/></g><g transform="matrix(24,0,0,24,24,0)"><path d="M0.17,-0.652l0.657,0l0,0.131l0.077,0l0,-0.2l-0.344,0c-0.015,-0.035 -0.041,-0.084 -0.062,-0.122l-0.079,0.02c0.017,0.031 0.035,0.07 0.049,0.102l-0.372,0l0,0.2l0.074,0l0,-0.131Zm0.473,0.287c-0.026,0.076 -0.061,0.138 -0.108,0.188c-0.075,-0.029 -0.151,-0.058 -0.223,-0.081c0.022,-0.032 0.044,-0.068 0.067,-0.107l0.264,0Zm0.288,0l0,-0.071l-0.183,0c0.007,-0.028 0.013,-0.059 0.018,-0.091l-0.087,-0.008c-0.005,0.035 -0.011,0.068 -0.018,0.099l-0.243,0c0.029,-0.054 0.055,-0.108 0.075,-0.159l-0.083,-0.015c-0.021,0.054 -0.05,0.114 -0.083,0.174l-0.256,0l0,0.071l0.217,0c-0.032,0.053 -0.064,0.102 -0.093,0.141c0.087,0.028 0.184,0.063 0.277,0.102c-0.093,0.067 -0.222,0.105 -0.394,0.127c0.016,0.019 0.04,0.054 0.047,0.074c0.187,-0.032 0.327,-0.081 0.428,-0.166c0.124,0.054 0.236,0.113 0.31,0.163l0.056,-0.065c-0.076,-0.049 -0.187,-0.105 -0.307,-0.156c0.051,-0.058 0.089,-0.131 0.117,-0.22l0.202,0Z" style="fill:#007099;fill-rule:nonzero;"/></g><g transform="matrix(20,0,0,20,-19.41,26)"><path d="M0.239,0.197l0.057,-0.027c-0.087,-0.142 -0.128,-0.311 -0.128,-0.481c0,-0.17 0.041,-0.338 0.128,-0.481l-0.057,-0.026c-0.092,0.149 -0.147,0.311 -0.147,0.507c0,0.197 0.055,0.358 0.147,0.508Z" style="fill:#007099;fill-rule:nonzero;"/></g><g transform="matrix(20,0,0,20,-12.65,26)"><path d="M0.289,-0.705l-0.038,0.029c0.034,0.031 0.076,0.074 0.095,0.102l0.049,-0.041c-0.019,-0.025 -0.057,-0.062 -0.09,-0.09l0.189,0l0,-0.06l-0.256,0c0.01,-0.02 0.019,-0.04 0.027,-0.06l-0.065,-0.018c-0.034,0.083 -0.09,0.163 -0.151,0.218c0.016,0.012 0.042,0.036 0.052,0.049c0.036,-0.035 0.071,-0.079 0.102,-0.129l0.086,0Zm0.169,0.367l0,0.093l-0.24,0c0.005,-0.029 0.01,-0.062 0.015,-0.093l0.225,0Zm0.073,-0.155l0.262,0l0,0.092l-0.262,0l0,-0.092Zm0,0.248l0,-0.093l0.335,0l0,-0.218l-0.731,0l0,0.063l0.323,0l0,0.092l-0.288,0c-0.008,0.071 -0.022,0.16 -0.035,0.22l0.264,0c-0.082,0.085 -0.209,0.162 -0.325,0.2c0.017,0.014 0.037,0.041 0.048,0.059c0.119,-0.046 0.248,-0.132 0.336,-0.231l0,0.23l0.073,0l0,-0.258l0.288,0c-0.01,0.09 -0.021,0.129 -0.034,0.143c-0.009,0.007 -0.019,0.008 -0.036,0.008c-0.018,0 -0.064,0 -0.113,-0.005c0.011,0.019 0.019,0.047 0.02,0.069c0.051,0.002 0.1,0.002 0.126,0c0.027,-0.001 0.046,-0.007 0.062,-0.025c0.026,-0.024 0.039,-0.085 0.053,-0.223c0.001,-0.011 0.002,-0.031 0.002,-0.031l-0.368,0Zm0.119,-0.519c0.009,-0.021 0.018,-0.041 0.026,-0.063l-0.069,-0.016c-0.024,0.072 -0.069,0.14 -0.124,0.186c0.016,0.009 0.044,0.032 0.056,0.044c0.027,-0.026 0.053,-0.057 0.076,-0.092l0.112,0l-0.043,0.035c0.036,0.029 0.08,0.071 0.103,0.097l0.049,-0.042c-0.022,-0.026 -0.064,-0.062 -0.099,-0.09l0.215,0l0,-0.059l-0.302,0Z" style="fill:#007099;fill-rule:nonzero;"/></g><g transform="matrix(20,0,0,20,7.35,26)"><path d="M0.088,0l0.402,0l0,-0.076l-0.147,0l0,-0.657l-0.07,0c-0.04,0.023 -0.087,0.04 -0.152,0.052l0,0.058l0.13,0l0,0.547l-0.163,0l0,0.076Z" style="fill:#007099;fill-rule:nonzero;"/></g><g transform="matrix(20,0,0,20,18.45,26)"><path d="M0.115,-0.275l0.167,-0.25c0.021,-0.036 0.041,-0.072 0.059,-0.108l0.004,0c-0.002,0.038 -0.006,0.097 -0.006,0.133l0,0.225l-0.224,0Zm0.408,0l-0.097,0l0,-0.458l-0.101,0l-0.305,0.471l0,0.06l0.319,0l0,0.202l0.087,0l0,-0.202l0.097,0l0,-0.073Z" style="fill:#007099;fill-rule:nonzero;"/></g><g transform="matrix(20,0,0,20,29.55,26)"><path d="M0.261,0.013c0.124,0 0.24,-0.091 0.24,-0.252c0,-0.161 -0.099,-0.233 -0.221,-0.233c-0.044,0 -0.077,0.011 -0.109,0.029l0.018,-0.212l0.277,0l0,-0.078l-0.357,0l-0.023,0.343l0.049,0.03c0.042,-0.028 0.073,-0.043 0.122,-0.043c0.092,0 0.152,0.062 0.152,0.167c0,0.107 -0.07,0.173 -0.156,0.173c-0.085,0 -0.138,-0.039 -0.18,-0.081l-0.045,0.06c0.049,0.049 0.119,0.097 0.233,0.097Z" style="fill:#007099;fill-rule:nonzero;"/></g><g transform="matrix(20,0,0,20,40.65,26)"><path d="M0.327,-0.044l0,-0.227l0.444,0l0,0.227l-0.444,0Zm0.405,-0.625c-0.057,0.084 -0.14,0.158 -0.236,0.218c-0.049,-0.047 -0.133,-0.11 -0.201,-0.158c0.023,-0.02 0.046,-0.039 0.067,-0.06l0.37,0Zm0.115,0.329l-0.397,0c0.166,-0.088 0.31,-0.211 0.392,-0.37l-0.05,-0.031l-0.012,0.004l-0.354,0c0.025,-0.028 0.046,-0.057 0.065,-0.085l-0.083,-0.018c-0.06,0.095 -0.173,0.206 -0.334,0.284c0.016,0.011 0.04,0.039 0.051,0.056c0.04,-0.02 0.077,-0.043 0.112,-0.067c0.066,0.049 0.142,0.109 0.19,0.157c-0.118,0.064 -0.25,0.111 -0.377,0.137c0.015,0.016 0.032,0.048 0.038,0.068c0.055,-0.013 0.111,-0.029 0.166,-0.048l0,0.329l0.073,0l0,-0.052l0.444,0l0,0.052l0.076,0l0,-0.416Z" style="fill:#007099;fill-rule:nonzero;"/></g><g transform="matrix(20,0,0,20,60.65,26)"><path d="M0.099,0.197c0.093,-0.15 0.148,-0.311 0.148,-0.508c0,-0.196 -0.055,-0.358 -0.148,-0.507l-0.056,0.026c0.086,0.143 0.128,0.311 0.128,0.481c0,0.17 -0.042,0.339 -0.128,0.481l0.056,0.027Z" style="fill:#007099;fill-rule:nonzero;"/></g></g><path d="M72.848,84.385l1.36,-1.36c-1.08,-0.96 -2.84,-2.16 -4.68,-3.16l8.32,0c-0.08,1.8 -0.2,3.24 -0.28,4.52l-4.72,0Zm-6.28,-4.52l-1.6,1.56c1.6,0.76 3.36,1.88 4.76,2.96l-8.76,0c0.24,-1.44 0.44,-2.92 0.68,-4.52l4.92,0Zm0.56,-8.28l-1.64,1.6c1.56,0.68 3.24,1.72 4.64,2.76l-7.96,0c0.2,-1.48 0.4,-2.92 0.56,-4.36l4.4,0Zm6.12,4.36l1.36,-1.36c-1.08,-0.92 -2.8,-2.08 -4.56,-3l8.12,0c-0.04,1.6 -0.08,3 -0.16,4.36l-4.76,0Zm15.2,4.08l0,-4.24l-5.76,0c0.08,-1.92 0.16,-3.96 0.24,-6.28c0,-0.56 0.04,-2.08 0.04,-2.08l-23.68,0c0.72,-1 1.4,-2 2.08,-3.08l25.56,0l0,-4.24l-23.08,0c0.4,-0.84 0.8,-1.68 1.16,-2.48l-4.72,-1.36c-2.04,4.92 -5.52,9.96 -9.2,13.04c1.2,0.6 3.28,2 4.28,2.76c1,-1 1.96,-2.16 2.96,-3.36c-0.24,2.2 -0.52,4.68 -0.84,7.08l-6.12,0l0,4.24l5.52,0c-0.48,3.16 -0.96,6.16 -1.44,8.52l21.52,0c-0.16,0.56 -0.32,0.88 -0.48,1.12c-0.36,0.56 -0.72,0.64 -1.4,0.64c-0.84,0.04 -2.4,0 -4.2,-0.16c0.6,1.04 1.12,2.6 1.16,3.64c2,0.12 4.04,0.12 5.32,-0.08c1.36,-0.2 2.44,-0.6 3.32,-1.88c0.44,-0.6 0.76,-1.6 1.04,-3.28l4.96,0l0,-4.16l-4.48,0c0.12,-1.28 0.2,-2.68 0.32,-4.36l5.92,0Z" style="fill:#4d4d4d;fill-rule:nonzero;stroke:#4d4d4d;stroke-width:0.14px;stroke-linecap:butt;stroke-miterlimit:2;"/><rect x="91.488" y="72.185" width="36.8" height="5.16" style="fill:#4d4d4d;fill-rule:nonzero;stroke:#4d4d4d;stroke-width:0.14px;stroke-linecap:butt;stroke-miterlimit:2;"/><path d="M138.328,56.505c-1.68,5.8 -4.56,11.64 -7.68,15.4c0.76,1.24 1.92,4 2.32,5.12c0.72,-0.88 1.48,-1.92 2.2,-3l0,19.76l4.52,0l0,-28.08c1.16,-2.6 2.2,-5.28 3.04,-7.88l-4.4,-1.32Zm22.6,7.12c-1,1.4 -2.2,2.6 -3.6,3.68c-1.44,-1.16 -2.6,-2.4 -3.52,-3.68l7.12,0Zm-15.16,1.88c0.88,0.88 2.12,2.44 2.6,3.24c0.96,-0.72 1.88,-1.56 2.8,-2.48c0.76,1.08 1.64,2.16 2.72,3.16c-2.36,1.2 -5.08,2.12 -8,2.8c0.84,0.92 2.16,2.88 2.6,3.88c3.28,-0.96 6.28,-2.24 8.92,-3.8c2.48,1.56 5.4,2.92 8.8,3.72c0.64,-1.16 1.8,-2.96 2.72,-3.84c-3.04,-0.52 -5.64,-1.4 -7.84,-2.52c1.96,-1.68 3.68,-3.72 4.96,-6.04l1.92,0l0,-3.6l-12.32,0c0.44,-0.8 0.8,-1.64 1.16,-2.44l-4.24,-1.16c-1.36,3.4 -3.88,6.52 -6.8,8.6l0,-2.8l-4,0l0,24.84l4,0l0,-21.56Zm3.84,17.8c-1.16,2.28 -3.04,4.64 -5.12,6.24c1,0.52 2.8,1.64 3.56,2.32c2.04,-1.8 4.28,-4.68 5.64,-7.44l-4.08,-1.12Zm17.76,-1.12l0,-4.12l-8.12,0l0,-3.4l-4.4,0l0,3.4l-7.4,0l0,4.12l7.4,0l0,11.48l4.4,0l0,-11.48l8.12,0Zm-6.8,2.6c1.76,2.04 3.72,4.88 4.52,6.8l3.68,-2c-0.88,-1.84 -2.88,-4.56 -4.72,-6.48l-3.48,1.68Z" style="fill:#4d4d4d;fill-rule:nonzero;stroke:#4d4d4d;stroke-width:0.14px;stroke-linecap:butt;stroke-miterlimit:2;"/><path d="M177.368,69.863l0,3.084l-4.76,0l0,4.355l4.76,0l0,3.244l4.52,0l0,-3.244l3.96,0l0,-4.355l-3.96,0l0,-3.084l-4.52,0Zm25.28,0.04l-4.48,0l0,3.044l-4.76,0l0,4.355l4.76,0l0,3.284l4.48,0l0,-3.284l4.44,0l0,-4.355l-4.44,0l0,-3.044Zm-10.52,-5.236l0,-2.604c4.52,-0.36 8.8,-0.919 12.48,-1.558l-2.28,-4.078c-7.16,1.36 -18.44,2.16 -28.28,2.36c0.48,1.079 1,2.797 1.08,3.995c3.88,0 8.04,-0.16 12.2,-0.399l0,2.284l-15.44,0l0,4.235l15.44,0l0,12.645l-13.04,0l0,4.235l13.04,0l0,2.805l-14.36,0l0,4.275l33.84,0l0,-4.275l-14.68,0l0,-2.805l13.12,0l0,-4.235l-13.12,0l0,-12.645l15.64,0l0,-4.235l-15.64,0Z" style="fill:#4d4d4d;fill-rule:nonzero;stroke:#4d4d4d;stroke-width:0.14px;stroke-linecap:butt;stroke-miterlimit:2;"/><path d="M221.408,86.142l16.8,0l0,2.245l-16.8,0l0,-2.245Zm16.8,-16.68l0,2.125l-16.8,0l0,-2.125l16.8,0Zm0,7.605l-16.8,0l0,-2.005l16.8,0l0,2.005Zm-16.8,3.475l16.8,0l0,2.125l-16.8,0l0,-2.125Zm21.64,7.845l0,-22.84l-12.2,0c0.16,-0.682 0.32,-1.323 0.44,-2.045l15.84,0l0,-4.195l-15.04,0c0.16,-0.84 0.32,-1.68 0.44,-2.44l-5.32,-0.52c-0.04,0.92 -0.12,1.92 -0.2,2.96l-14.4,0l0,4.195l13.88,0c-0.08,0.722 -0.2,1.363 -0.32,2.045l-9.36,0l0,22.84l-5.2,0l0,4.275l36.56,0l0,-4.275l-5.12,0Z" style="fill:#4d4d4d;fill-rule:nonzero;stroke:#4d4d4d;stroke-width:0.14px;stroke-linecap:butt;stroke-miterlimit:2;"/><path d="M257.928,76.384c0.88,-1.002 1.76,-2.081 2.6,-3.159c0.24,0.839 0.52,1.797 0.72,2.759l-3.32,0.4Zm8.04,3.84c-0.28,-2.117 -1.2,-5.641 -2.12,-8.317l-2.96,0.839c2,-2.643 3.8,-5.44 5.32,-8.243l-4.04,-2.478c-0.8,1.798 -1.8,3.629 -2.84,5.3l-2.68,0.2c1.92,-2.786 3.8,-6.179 5.16,-9.378l-4.32,-1.8c-1.28,4.2 -3.64,8.552 -4.44,9.665c-0.8,1.154 -1.44,1.915 -2.24,2.116c0.52,1.166 1.24,3.257 1.48,4.137c0.6,-0.28 1.48,-0.52 4.4,-0.88c-1.04,1.52 -1.96,2.601 -2.4,3.161c-1.28,1.48 -2.16,2.361 -3.24,2.641c0.56,1.199 1.32,3.396 1.56,4.275c0.88,-0.399 2.2,-0.799 9.44,-1.837c0.12,0.639 0.2,1.238 0.28,1.757l3.64,-1.158Zm-13.28,2.518c-0.24,3.36 -0.72,7.04 -1.68,9.44c0.96,0.28 2.76,0.84 3.52,1.24c0.84,-2.52 1.48,-6.44 1.8,-10.12l-3.64,-0.56Zm4.28,0.521c0.36,2.68 0.68,6.202 0.68,8.482l3.52,-0.6c-0.08,-2.361 -0.44,-5.802 -0.88,-8.483l-3.32,0.601Zm3.96,-0.761c0.6,1.721 1.28,4.122 1.52,5.602l3.24,-1.08c-0.32,-1.521 -1,-3.761 -1.64,-5.522l-3.12,1Zm11.44,-4.915l-0.72,0.12l-5.32,0l0,3.835l3.6,0c-1.24,3.001 -3.36,5.682 -5.84,7.042c0.88,0.801 2.12,2.361 2.68,3.321c4.16,-2.56 7.12,-7.162 8.44,-13.359l-2.84,-0.959Zm-0.2,-8.005l10.16,0l0,2.125l-10.16,0l0,-2.125Zm0,-5.32l10.16,0l0,2.005l-10.16,0l0,-2.005Zm12.52,11.601c-0.88,1.163 -2.24,2.643 -3.56,3.881c-0.44,-0.998 -0.84,-2.077 -1.2,-3.199l0,-1.283l7,0l0,-14.555l-8.56,0c0.56,-1.04 1.2,-2.12 1.8,-3.28l-5.44,-0.96c-0.28,1.24 -0.76,2.8 -1.28,4.24l-5.68,0l0,14.555l7.64,0l0,13.762c0,0.441 -0.16,0.561 -0.68,0.561c-0.48,0.04 -2.12,0.04 -3.6,-0.04c0.56,1.24 1.12,3.08 1.28,4.36c2.56,0 4.44,-0.08 5.76,-0.76c1.4,-0.76 1.76,-1.92 1.76,-4.041l0,-3.441c1.52,2.761 3.44,5.082 5.76,6.682c0.68,-1.2 2.12,-2.92 3.12,-3.801c-2.32,-1.2 -4.28,-3.201 -5.84,-5.521c1.64,-1.201 3.44,-2.759 5.28,-4.197l-3.56,-2.963Z" style="fill:#4d4d4d;fill-rule:nonzero;stroke:#4d4d4d;stroke-width:0.14px;stroke-linecap:butt;stroke-miterlimit:2;"/><path d="M327.768,63.185c-1.16,-1.88 -3.64,-4.52 -5.76,-6.44l-3.56,2.2c2.08,2.04 4.48,4.84 5.48,6.72l3.84,-2.48Zm-26.52,-6.4c-2.4,6.04 -6.6,11.92 -10.92,15.6c0.84,1.16 2.2,3.72 2.64,4.84c1.44,-1.28 2.8,-2.8 4.16,-4.48l0,21l4.96,0l0,-28.12c1.44,-2.44 2.68,-4.92 3.72,-7.36l-4.56,-1.48Zm27.12,14.36l-0.68,-4.48l-11.4,1.48c-0.28,-3.4 -0.44,-7.16 -0.52,-11.08l-4.84,0c0.12,4.2 0.36,8.12 0.64,11.72l-8.08,1.08l0.68,4.6l7.88,-1.08c1.44,12.2 4.6,19.72 11.36,20.36c2.24,0.12 4.4,-1.72 5.4,-9.44c-0.88,-0.48 -3,-1.68 -3.88,-2.72c-0.32,4.44 -0.8,6.44 -1.72,6.36c-3.2,-0.4 -5.32,-6.32 -6.44,-15.2l11.6,-1.6Z" style="fill:#4d4d4d;fill-rule:nonzero;stroke:#4d4d4d;stroke-width:0.14px;stroke-linecap:butt;stroke-miterlimit:2;"/><path d="M363.008,76.305c-1.52,1.44 -3.8,3.24 -5.92,4.68c-1.24,-1.64 -2.32,-3.44 -3.08,-5.44l13.44,0l0,-4.04l-15.28,0l0,-2.24l12.36,0l0,-3.8l-12.36,0l0,-2.08l13.92,0l0,-4.04l-13.92,0l0,-2.88l-4.8,0l0,2.88l-13.44,0l0,4.04l13.44,0l0,2.08l-11.48,0l0,3.8l11.48,0l0,2.24l-15.16,0l0,4.04l11.36,0c-3.52,2.76 -8.28,5.2 -12.76,6.56c1,0.96 2.44,2.76 3.08,3.84c1.84,-0.64 3.64,-1.48 5.48,-2.44l0,2.92c0,1.76 -1.12,2.72 -2,3.16c0.72,0.96 1.68,3.08 1.96,4.2c1.2,-0.72 3,-1.28 14.44,-4.68c-0.32,-1.04 -0.68,-2.96 -0.8,-4.24l-8.64,2.36l0,-6.8c1.88,-1.36 3.64,-2.88 5.16,-4.44c3,8.28 7.96,14.08 16.24,16.92c0.68,-1.28 2.08,-3.24 3.12,-4.2c-3.6,-1 -6.6,-2.68 -9.04,-4.8c2.28,-1.36 4.92,-3 7.16,-4.68l-3.96,-2.92Z" style="fill:#4d4d4d;fill-rule:nonzero;stroke:#4d4d4d;stroke-width:0.14px;stroke-linecap:butt;stroke-miterlimit:2;"/><rect x="371.488" y="72.185" width="36.8" height="5.16" style="fill:#4d4d4d;fill-rule:nonzero;stroke:#4d4d4d;stroke-width:0.14px;stroke-linecap:butt;stroke-miterlimit:2;"/><path d="M417.368,63.945l24.96,0l0,4.72l4.88,0l0,-9.04l-14.24,0c-0.4,-1.16 -1.08,-2.48 -1.72,-3.56l-5.04,1.44c0.32,0.6 0.68,1.36 0.96,2.12l-14.48,0l0,9.04l4.68,0l0,-4.72Zm23.4,6.88c-1.92,1.92 -4.8,4.2 -7.56,6.04c-0.8,-1.72 -1.96,-3.4 -3.52,-4.84c0.88,-0.56 1.68,-1.2 2.4,-1.84l8.88,0l0,-4.04l-22.36,0l0,4.04l6.88,0c-3.6,1.96 -8.36,3.48 -12.88,4.4c0.8,0.92 2,2.8 2.44,3.72c3.76,-1 7.64,-2.36 11.12,-4.2c0.4,0.44 0.76,0.88 1.12,1.32c-3.48,2.32 -10.04,4.84 -14.96,5.88c0.84,1 1.84,2.6 2.36,3.68c4.56,-1.4 10.4,-4 14.4,-6.52c0.24,0.52 0.44,1.04 0.6,1.52c-3.96,3.36 -11.64,6.8 -17.96,8.16c0.92,1.08 1.96,2.8 2.48,3.96c5.32,-1.6 11.6,-4.56 16.16,-7.68c0,1.92 -0.48,3.4 -1.16,4.04c-0.56,0.84 -1.2,0.96 -2.16,0.96c-0.92,0 -2.2,-0.04 -3.6,-0.2c0.8,1.32 1.2,3.2 1.28,4.52c1.16,0.04 2.36,0.08 3.24,0.04c2.08,-0.04 3.36,-0.44 4.76,-1.88c2.04,-1.68 3,-6.28 1.88,-11.08c0.4,-0.24 0.84,-0.48 1.24,-0.76c1.96,5.44 5.12,9.72 9.92,12c0.68,-1.16 2.08,-3 3.16,-3.88c-4.6,-1.84 -7.8,-5.8 -9.36,-10.52c1.76,-1.2 3.56,-2.48 5.16,-3.72l-3.96,-3.12Z" style="fill:#4d4d4d;fill-rule:nonzero;stroke:#4d4d4d;stroke-width:0.14px;stroke-linecap:butt;stroke-miterlimit:2;"/><path d="M468.888,57.425l0,4.92l6.4,0c2.24,5.28 5.8,10.64 10.36,14.12c0.8,-1.48 2.52,-3.76 3.6,-4.8c-4.92,-3 -8.56,-8.64 -10.28,-14.24l-10.08,0Zm-7.2,-0.08c-2.4,5.8 -6.6,11.6 -10.84,15.16c1.2,0.96 3.32,3.04 4.24,4.08c4.32,-4.2 9,-10.96 11.92,-17.52l-5.32,-1.72Zm11.88,22.2c1.24,1.76 2.56,3.84 3.84,5.84l-14.68,0.96c3.88,-4.32 7.72,-9.68 10.8,-15.08l-5.56,-2.32c-3.16,6.64 -8.16,13.44 -9.84,15.16c-1.6,1.76 -2.68,2.84 -4,3.2c0.72,1.4 1.64,4.08 1.96,5.08c1.96,-0.72 4.68,-0.96 24,-2.48c0.84,1.44 1.56,2.76 2.08,3.92l4.92,-2.6c-1.96,-3.72 -5.64,-9.4 -8.88,-13.8l-4.64,2.12Z" style="fill:#4d4d4d;fill-rule:nonzero;stroke:#4d4d4d;stroke-width:0.14px;stroke-linecap:butt;stroke-miterlimit:2;"/><path d="M510.288,77.422l0,5.365l-10.08,0l0,-5.365l10.08,0Zm4.68,9.44l0,-13.515l-19.4,0l0,16.398l4.64,0l0,-2.883l14.76,0Zm2.08,-20.635l-23.52,0l0,4.155l23.52,0l0,-4.155Zm8.88,-7.36l-32.8,0l0,4.515l27.92,0l0,24.361c0,0.681 -0.28,0.882 -1,0.882c-0.76,0.04 -3.4,0.08 -5.64,-0.081c0.68,1.401 1.4,3.761 1.56,5.161c3.56,0.04 6.12,-0.08 7.76,-0.92c1.72,-0.84 2.2,-2.28 2.2,-5.002l0,-28.916Z" style="fill:#4d4d4d;fill-rule:nonzero;stroke:#4d4d4d;stroke-width:0.14px;stroke-linecap:butt;stroke-miterlimit:2;"/></svg>