<?xml version="1.0" encoding="UTF-8" standalone="no"?><!DOCTYPE svg PUBLIC "-//W3C//DTD SVG 1.1//EN" "http://www.w3.org/Graphics/SVG/1.1/DTD/svg11.dtd"><svg width="100%" height="100%" viewBox="0 0 1200 630" version="1.1" xmlns="http://www.w3.org/2000/svg" xmlns:xlink="http://www.w3.org/1999/xlink" xml:space="preserve" xmlns:serif="http://www.serif.com/" style="fill-rule:evenodd;clip-rule:evenodd;stroke-linecap:round;stroke-linejoin:round;stroke-miterlimit:1.5;"><g id="TNLlogo"><path d="M793.339,528.562l23.544,7.848l-23.544,7.848l0,-15.696Z" style="fill:#dd5c68;"/><path d="M383.117,536.41l414.93,0" style="fill:none;stroke:#dd5c68;stroke-width:5.23px;"/></g><g id="companyMedian"></g><g id="companyRank"></g><g id="barcode"><g><g id="barcode1" serif:id="barcode"><rect id="聯詠" x="1091.99" y="204.221" width="3.649" height="155.986" style="fill:#007099;fill-opacity:0.7;"/><rect id="聯發科" x="1063.2" y="204.221" width="1.824" height="155.986" style="fill:#cdcaca;fill-opacity:0.49;"/><rect id="原相" x="942.672" y="204.221" width="1.824" height="155.986" style="fill:#cdcaca;fill-opacity:0.49;"/><rect id="揚智" x="924.13" y="204.221" width="1.824" height="155.986" style="fill:#cdcaca;fill-opacity:0.49;"/><rect id="群聯" x="851.426" y="204.221" width="1.824" height="155.986" style="fill:#cdcaca;fill-opacity:0.49;"/><rect id="瑞昱" x="809.462" y="204.221" width="1.824" height="155.986" style="fill:#cdcaca;fill-opacity:0.49;"/><rect id="創意" x="778.721" y="204.221" width="1.824" height="155.986" style="fill:#cdcaca;fill-opacity:0.49;"/><rect id="力旺" x="766.522" y="204.221" width="1.824" height="155.986" style="fill:#cdcaca;fill-opacity:0.49;"/><rect id="聯陽" x="757.251" y="204.221" width="1.824" height="155.986" style="fill:#cdcaca;fill-opacity:0.49;"/><rect id="M31" x="755.787" y="204.221" width="1.824" height="155.986" style="fill:#cdcaca;fill-opacity:0.49;"/><rect id="矽創" x="729.438" y="204.221" width="1.824" height="155.986" style="fill:#cdcaca;fill-opacity:0.49;"/><rect id="台積電" x="700.649" y="204.221" width="3.649" height="155.986" style="fill:#007099;fill-opacity:0.7;"/><rect id="義隆" x="699.673" y="204.221" width="1.824" height="155.986" style="fill:#cdcaca;fill-opacity:0.49;"/><rect id="晶豪科" x="686.986" y="204.221" width="1.824" height="155.986" style="fill:#cdcaca;fill-opacity:0.49;"/><rect id="致新" x="686.986" y="204.221" width="1.824" height="155.986" style="fill:#cdcaca;fill-opacity:0.49;"/><rect id="凌通" x="686.01" y="204.221" width="1.824" height="155.986" style="fill:#cdcaca;fill-opacity:0.49;"/><rect id="杰力" x="660.149" y="204.221" width="1.824" height="155.986" style="fill:#cdcaca;fill-opacity:0.49;"/><rect id="九暘" x="641.607" y="204.221" width="1.824" height="155.986" style="fill:#cdcaca;fill-opacity:0.49;"/><rect id="宏觀" x="638.191" y="204.221" width="1.824" height="155.986" style="fill:#cdcaca;fill-opacity:0.49;"/><rect id="環球晶" x="634.287" y="204.221" width="1.824" height="155.986" style="fill:#cdcaca;fill-opacity:0.49;"/><rect id="祥碩" x="621.113" y="204.221" width="1.824" height="155.986" style="fill:#cdcaca;fill-opacity:0.49;"/><rect id="智原" x="603.058" y="204.221" width="1.824" height="155.986" style="fill:#cdcaca;fill-opacity:0.49;"/><rect id="聚積" x="592.811" y="204.221" width="1.824" height="155.986" style="fill:#cdcaca;fill-opacity:0.49;"/><rect id="創惟" x="586.956" y="204.221" width="1.824" height="155.986" style="fill:#cdcaca;fill-opacity:0.49;"/><rect id="敦泰" x="585.492" y="204.221" width="1.824" height="155.986" style="fill:#cdcaca;fill-opacity:0.49;"/><rect id="松翰" x="569.39" y="204.221" width="1.824" height="155.986" style="fill:#cdcaca;fill-opacity:0.49;"/><rect id="愛普" x="562.071" y="204.221" width="1.824" height="155.986" style="fill:#cdcaca;fill-opacity:0.49;"/><rect id="晶心科" x="559.143" y="204.221" width="1.824" height="155.986" style="fill:#cdcaca;fill-opacity:0.49;"/><rect id="威盛" x="554.751" y="204.221" width="1.824" height="155.986" style="fill:#cdcaca;fill-opacity:0.49;"/><rect id="神盾" x="548.408" y="204.221" width="1.824" height="155.986" style="fill:#cdcaca;fill-opacity:0.49;"/><rect id="信驊" x="537.673" y="204.221" width="1.824" height="155.986" style="fill:#cdcaca;fill-opacity:0.49;"/><rect id="凌陽" x="531.33" y="204.221" width="1.824" height="155.986" style="fill:#cdcaca;fill-opacity:0.49;"/><rect id="通嘉" x="514.251" y="204.221" width="1.824" height="155.986" style="fill:#cdcaca;fill-opacity:0.49;"/><rect id="華邦電" x="504.004" y="204.221" width="1.824" height="155.986" style="fill:#cdcaca;fill-opacity:0.49;"/><rect id="晶相光" x="497.173" y="204.221" width="1.824" height="155.986" style="fill:#cdcaca;fill-opacity:0.49;"/><rect id="天鈺" x="495.221" y="204.221" width="1.824" height="155.986" style="fill:#cdcaca;fill-opacity:0.49;"/><rect id="大中" x="491.318" y="204.221" width="1.824" height="155.986" style="fill:#cdcaca;fill-opacity:0.49;"/><rect id="南亞科" x="489.366" y="204.221" width="1.824" height="155.986" style="fill:#cdcaca;fill-opacity:0.49;"/><rect id="金麗科" x="480.095" y="204.221" width="1.824" height="155.986" style="fill:#cdcaca;fill-opacity:0.49;"/><rect id="迅杰" x="479.119" y="204.221" width="1.824" height="155.986" style="fill:#cdcaca;fill-opacity:0.49;"/><rect id="應廣" x="468.384" y="204.221" width="1.824" height="155.986" style="fill:#cdcaca;fill-opacity:0.49;"/><rect id="盛群" x="467.896" y="204.221" width="1.824" height="155.986" style="fill:#cdcaca;fill-opacity:0.49;"/><rect id="展匯科" x="467.408" y="204.221" width="1.824" height="155.986" style="fill:#cdcaca;fill-opacity:0.49;"/><rect id="矽統" x="465.944" y="204.221" width="1.824" height="155.986" style="fill:#cdcaca;fill-opacity:0.49;"/><rect id="偉詮電" x="463.992" y="204.221" width="1.824" height="155.986" style="fill:#cdcaca;fill-opacity:0.49;"/><rect id="九齊" x="463.992" y="204.221" width="1.824" height="155.986" style="fill:#cdcaca;fill-opacity:0.49;"/><rect id="新唐" x="457.161" y="204.221" width="1.824" height="155.986" style="fill:#cdcaca;fill-opacity:0.49;"/><rect id="立積" x="457.161" y="204.221" width="1.824" height="155.986" style="fill:#cdcaca;fill-opacity:0.49;"/><rect id="聯傑" x="452.769" y="204.221" width="1.824" height="155.986" style="fill:#cdcaca;fill-opacity:0.49;"/><rect id="茂達" x="444.474" y="204.221" width="1.824" height="155.986" style="fill:#cdcaca;fill-opacity:0.49;"/><rect id="驊訊" x="433.251" y="204.221" width="1.824" height="155.986" style="fill:#cdcaca;fill-opacity:0.49;"/><rect id="安國" x="421.541" y="204.221" width="1.824" height="155.986" style="fill:#cdcaca;fill-opacity:0.49;"/><rect id="晶宏" x="421.053" y="204.221" width="1.824" height="155.986" style="fill:#cdcaca;fill-opacity:0.49;"/><rect id="台勝科" x="420.565" y="204.221" width="1.824" height="155.986" style="fill:#cdcaca;fill-opacity:0.49;"/><rect id="亞信" x="419.101" y="204.221" width="1.824" height="155.986" style="fill:#cdcaca;fill-opacity:0.49;"/><rect id="通泰" x="411.782" y="204.221" width="1.824" height="155.986" style="fill:#cdcaca;fill-opacity:0.49;"/><rect id="類比科" x="409.342" y="204.221" width="1.824" height="155.986" style="fill:#cdcaca;fill-opacity:0.49;"/><rect id="紘康" x="403.974" y="204.221" width="1.824" height="155.986" style="fill:#cdcaca;fill-opacity:0.49;"/><rect id="旺宏" x="402.511" y="204.221" width="1.824" height="155.986" style="fill:#cdcaca;fill-opacity:0.49;"/><rect id="鈺創" x="398.119" y="204.221" width="1.824" height="155.986" style="fill:#cdcaca;fill-opacity:0.49;"/><rect id="聯電" x="395.679" y="204.221" width="1.824" height="155.986" style="fill:#cdcaca;fill-opacity:0.49;"/><rect id="旺玖" x="395.191" y="204.221" width="1.824" height="155.986" style="fill:#cdcaca;fill-opacity:0.49;"/><rect id="禾瑞亞" x="393.727" y="204.221" width="1.824" height="155.986" style="fill:#cdcaca;fill-opacity:0.49;"/><rect id="笙泉" x="390.8" y="204.221" width="1.824" height="155.986" style="fill:#cdcaca;fill-opacity:0.49;"/><rect id="威剛" x="390.8" y="204.221" width="1.824" height="155.986" style="fill:#cdcaca;fill-opacity:0.49;"/><rect id="笙科" x="389.824" y="204.221" width="1.824" height="155.986" style="fill:#cdcaca;fill-opacity:0.49;"/><rect id="鑫創" x="386.408" y="204.221" width="1.824" height="155.986" style="fill:#cdcaca;fill-opacity:0.49;"/><rect id="沛亨" x="383.48" y="204.221" width="1.824" height="155.986" style="fill:#cdcaca;fill-opacity:0.49;"/><rect id="太欣" x="376.649" y="204.221" width="1.824" height="155.986" style="fill:#cdcaca;fill-opacity:0.49;"/><rect id="世界" x="369.33" y="204.221" width="1.824" height="155.986" style="fill:#cdcaca;fill-opacity:0.49;"/><rect id="京鼎" x="363.962" y="204.221" width="1.824" height="155.986" style="fill:#cdcaca;fill-opacity:0.49;"/><rect id="穩懋" x="357.619" y="204.221" width="1.824" height="155.986" style="fill:#cdcaca;fill-opacity:0.49;"/><rect id="精測" x="354.691" y="204.221" width="3.84" height="155.986" style="fill:#261b1b;fill-opacity:0.7;"/><rect id="旺矽" x="345.42" y="204.221" width="1.824" height="155.986" style="fill:#cdcaca;fill-opacity:0.49;"/><rect id="凱鈺" x="343.468" y="204.221" width="1.824" height="155.986" style="fill:#cdcaca;fill-opacity:0.49;"/><rect id="虹冠電" x="339.077" y="204.221" width="1.824" height="155.986" style="fill:#cdcaca;fill-opacity:0.49;"/><rect id="尼克森" x="334.197" y="204.221" width="1.824" height="155.986" style="fill:#cdcaca;fill-opacity:0.49;"/><rect id="富鼎" x="326.878" y="204.221" width="1.824" height="155.986" style="fill:#cdcaca;fill-opacity:0.49;"/><rect id="鈺太" x="317.607" y="204.221" width="1.824" height="155.986" style="fill:#cdcaca;fill-opacity:0.49;"/><rect id="凌泰" x="314.679" y="204.221" width="1.824" height="155.986" style="fill:#cdcaca;fill-opacity:0.49;"/><rect id="晶焱" x="314.679" y="204.221" width="1.824" height="155.986" style="fill:#cdcaca;fill-opacity:0.49;"/><rect id="研通" x="314.191" y="204.221" width="1.824" height="155.986" style="fill:#cdcaca;fill-opacity:0.49;"/><rect id="佑華" x="313.703" y="204.221" width="1.824" height="155.986" style="fill:#cdcaca;fill-opacity:0.49;"/><rect id="光罩" x="310.288" y="204.221" width="1.824" height="155.986" style="fill:#cdcaca;fill-opacity:0.49;"/><rect id="南茂" x="306.872" y="204.221" width="1.824" height="155.986" style="fill:#cdcaca;fill-opacity:0.49;"/><rect id="普誠" x="298.577" y="204.221" width="1.824" height="155.986" style="fill:#cdcaca;fill-opacity:0.49;"/><rect id="中美晶" x="296.625" y="204.221" width="1.824" height="155.986" style="fill:#cdcaca;fill-opacity:0.49;"/><rect id="達能" x="287.842" y="204.221" width="1.824" height="155.986" style="fill:#cdcaca;fill-opacity:0.49;"/><rect id="宇瞻" x="283.938" y="204.221" width="1.824" height="155.986" style="fill:#cdcaca;fill-opacity:0.49;"/><rect id="重鵬" x="277.595" y="204.221" width="1.824" height="155.986" style="fill:#cdcaca;fill-opacity:0.49;"/><rect id="雍智科技" x="274.179" y="204.221" width="1.824" height="155.986" style="fill:#cdcaca;fill-opacity:0.49;"/><rect id="立萬利" x="268.324" y="204.221" width="1.824" height="155.986" style="fill:#cdcaca;fill-opacity:0.49;"/><rect id="倚強" x="267.836" y="204.221" width="1.824" height="155.986" style="fill:#cdcaca;fill-opacity:0.49;"/><rect id="世紀" x="267.836" y="204.221" width="1.824" height="155.986" style="fill:#cdcaca;fill-opacity:0.49;"/><rect id="博磊" x="266.372" y="204.221" width="1.824" height="155.986" style="fill:#cdcaca;fill-opacity:0.49;"/><rect id="昇陽半導體" x="265.396" y="204.221" width="1.824" height="155.986" style="fill:#cdcaca;fill-opacity:0.49;"/><rect id="敦南" x="258.565" y="204.221" width="1.824" height="155.986" style="fill:#cdcaca;fill-opacity:0.49;"/><rect id="漢磊" x="258.077" y="204.221" width="1.824" height="155.986" style="fill:#cdcaca;fill-opacity:0.49;"/><rect id="頎邦" x="257.589" y="204.221" width="1.824" height="155.986" style="fill:#cdcaca;fill-opacity:0.49;"/><rect id="台星科" x="253.685" y="204.221" width="1.824" height="155.986" style="fill:#cdcaca;fill-opacity:0.49;"/><rect id="嘉晶" x="252.222" y="204.221" width="1.824" height="155.986" style="fill:#cdcaca;fill-opacity:0.49;"/><rect id="欣銓" x="252.222" y="204.221" width="1.824" height="155.986" style="fill:#cdcaca;fill-opacity:0.49;"/><rect id="均華" x="251.734" y="204.221" width="1.824" height="155.986" style="fill:#cdcaca;fill-opacity:0.49;"/><rect id="合邦" x="247.83" y="204.221" width="1.824" height="155.986" style="fill:#cdcaca;fill-opacity:0.49;"/><rect id="辛耘" x="246.854" y="204.221" width="1.824" height="155.986" style="fill:#cdcaca;fill-opacity:0.49;"/><rect id="宏捷科" x="244.902" y="204.221" width="1.824" height="155.986" style="fill:#cdcaca;fill-opacity:0.49;"/><rect id="久元" x="239.535" y="204.221" width="1.824" height="155.986" style="fill:#cdcaca;fill-opacity:0.49;"/><rect id="合晶" x="237.583" y="204.221" width="1.824" height="155.986" style="fill:#cdcaca;fill-opacity:0.49;"/><rect id="日月光投控" x="227.824" y="204.221" width="1.824" height="155.986" style="fill:#cdcaca;fill-opacity:0.49;"/><rect id="力成" x="226.848" y="204.221" width="1.824" height="155.986" style="fill:#cdcaca;fill-opacity:0.49;"/><rect id="茂矽" x="222.945" y="204.221" width="1.824" height="155.986" style="fill:#cdcaca;fill-opacity:0.49;"/><rect id="超豐" x="221.481" y="204.221" width="1.824" height="155.986" style="fill:#cdcaca;fill-opacity:0.49;"/><rect id="精材" x="220.505" y="204.221" width="1.824" height="155.986" style="fill:#cdcaca;fill-opacity:0.49;"/><rect id="京元電子" x="211.234" y="204.221" width="1.824" height="155.986" style="fill:#cdcaca;fill-opacity:0.49;"/><rect id="創見" x="205.378" y="204.221" width="1.824" height="155.986" style="fill:#cdcaca;fill-opacity:0.49;"/><rect id="矽格" x="196.595" y="204.221" width="1.824" height="155.986" style="fill:#cdcaca;fill-opacity:0.49;"/><rect id="瑞耘" x="194.155" y="204.221" width="1.824" height="155.986" style="fill:#cdcaca;fill-opacity:0.49;"/><rect id="同欣電" x="192.204" y="204.221" width="1.824" height="155.986" style="fill:#cdcaca;fill-opacity:0.49;"/><rect id="海德威" x="191.228" y="204.221" width="1.824" height="155.986" style="fill:#cdcaca;fill-opacity:0.49;"/><rect id="點序" x="190.252" y="204.221" width="1.824" height="155.986" style="fill:#cdcaca;fill-opacity:0.49;"/><rect id="廣穎" x="187.324" y="204.221" width="1.824" height="155.986" style="fill:#cdcaca;fill-opacity:0.49;"/><rect id="天方能源" x="185.372" y="204.221" width="1.824" height="155.986" style="fill:#cdcaca;fill-opacity:0.49;"/><rect id="商丞" x="182.445" y="204.221" width="1.824" height="155.986" style="fill:#cdcaca;fill-opacity:0.49;"/><rect id="台半" x="180.981" y="204.221" width="1.824" height="155.986" style="fill:#cdcaca;fill-opacity:0.49;"/><rect id="景碩" x="176.101" y="204.221" width="1.824" height="155.986" style="fill:#cdcaca;fill-opacity:0.49;"/><rect id="順德" x="174.149" y="204.221" width="1.824" height="155.986" style="fill:#cdcaca;fill-opacity:0.49;"/><rect id="德微" x="170.734" y="204.221" width="1.824" height="155.986" style="fill:#cdcaca;fill-opacity:0.49;"/><rect id="福懋科" x="164.878" y="204.221" width="1.824" height="155.986" style="fill:#cdcaca;fill-opacity:0.49;"/><rect id="立衛" x="162.439" y="204.221" width="1.824" height="155.986" style="fill:#cdcaca;fill-opacity:0.49;"/><rect id="統懋" x="160.975" y="204.221" width="1.824" height="155.986" style="fill:#cdcaca;fill-opacity:0.49;"/><rect id="十銓" x="158.535" y="204.221" width="1.824" height="155.986" style="fill:#cdcaca;fill-opacity:0.49;"/><rect id="長科" x="158.047" y="204.221" width="1.824" height="155.986" style="fill:#cdcaca;fill-opacity:0.49;"/><rect id="界霖" x="157.071" y="204.221" width="1.824" height="155.986" style="fill:#cdcaca;fill-opacity:0.49;"/><rect id="逸昌" x="154.631" y="204.221" width="1.824" height="155.986" style="fill:#cdcaca;fill-opacity:0.49;"/><rect id="強茂" x="152.68" y="204.221" width="1.824" height="155.986" style="fill:#cdcaca;fill-opacity:0.49;"/><rect id="易華電" x="148.288" y="204.221" width="1.824" height="155.986" style="fill:#cdcaca;fill-opacity:0.49;"/><rect id="華泰" x="144.872" y="204.221" width="1.824" height="155.986" style="fill:#cdcaca;fill-opacity:0.49;"/><rect id="誠創" x="144.872" y="204.221" width="1.824" height="155.986" style="fill:#cdcaca;fill-opacity:0.49;"/><rect id="菱生" x="139.017" y="204.221" width="1.824" height="155.986" style="fill:#cdcaca;fill-opacity:0.49;"/><rect id="典範" x="133.65" y="204.221" width="1.824" height="155.986" style="fill:#cdcaca;fill-opacity:0.49;"/><rect id="家登" x="131.698" y="204.221" width="1.824" height="155.986" style="fill:#cdcaca;fill-opacity:0.49;"/><rect id="華東" x="123.403" y="204.221" width="1.824" height="155.986" style="fill:#cdcaca;fill-opacity:0.49;"/><rect id="元隆" x="113.644" y="204.221" width="1.824" height="155.986" style="fill:#cdcaca;fill-opacity:0.49;"/><rect id="麗正" x="108.276" y="204.221" width="1.824" height="155.986" style="fill:#cdcaca;fill-opacity:0.49;"/><rect id="品安" x="106.812" y="204.221" width="3.649" height="155.986" style="fill:#007099;fill-opacity:0.7;"/></g><g><path d="M118.199,152.539l0,224.999" style="fill:none;stroke:#999;stroke-opacity:0.62;stroke-width:0.99px;stroke-linecap:butt;stroke-miterlimit:2;"/><path d="M215.79,152.539l0,224.999" style="fill:none;stroke:#999;stroke-opacity:0.62;stroke-width:0.99px;stroke-linecap:butt;stroke-miterlimit:2;"/><path d="M313.38,152.539l0,224.999" style="fill:none;stroke:#999;stroke-opacity:0.62;stroke-width:0.99px;stroke-linecap:butt;stroke-miterlimit:2;"/><path d="M410.97,152.539l0,224.999" style="fill:none;stroke:#999;stroke-opacity:0.62;stroke-width:0.99px;stroke-linecap:butt;stroke-miterlimit:2;"/><path d="M508.56,152.539l0,224.999" style="fill:none;stroke:#999;stroke-opacity:0.62;stroke-width:0.99px;stroke-linecap:butt;stroke-miterlimit:2;"/><path d="M606.15,152.539l0,224.999" style="fill:none;stroke:#999;stroke-opacity:0.62;stroke-width:0.99px;stroke-linecap:butt;stroke-miterlimit:2;"/><path d="M703.741,152.539l0,224.999" style="fill:none;stroke:#999;stroke-opacity:0.62;stroke-width:0.99px;stroke-linecap:butt;stroke-miterlimit:2;"/><path d="M801.331,152.539l0,224.999" style="fill:none;stroke:#999;stroke-opacity:0.62;stroke-width:0.99px;stroke-linecap:butt;stroke-miterlimit:2;"/><path d="M898.921,152.539l0,224.999" style="fill:none;stroke:#999;stroke-opacity:0.62;stroke-width:0.99px;stroke-linecap:butt;stroke-miterlimit:2;"/><path d="M996.511,152.539l0,224.999" style="fill:none;stroke:#999;stroke-opacity:0.62;stroke-width:0.99px;stroke-linecap:butt;stroke-miterlimit:2;"/></g><path d="M96.365,118.837l4.342,-6.502c0.546,-0.937 1.066,-1.873 1.534,-2.809l0.104,0c-0.052,0.988 -0.156,2.523 -0.156,3.459l0,5.852l-5.824,0Zm10.605,0l-2.522,0l0,-11.908l-2.623,0l-7.93,12.245l0,1.558l8.294,0l0,5.252l2.259,0l0,-5.252l2.522,0l0,-1.895Z" style="fill:#4d4d4d;fill-rule:nonzero;stroke:#4d4d4d;stroke-width:0.17px;stroke-linecap:butt;stroke-miterlimit:2;"/><path d="M115.031,126.322c3.616,0 5.927,-3.299 5.927,-9.931c0,-6.605 -2.311,-9.826 -5.927,-9.826c-3.641,0 -5.952,3.195 -5.952,9.826c0,6.632 2.311,9.931 5.952,9.931Zm0,-1.895c-2.185,0 -3.641,-2.419 -3.641,-8.036c0,-5.565 1.456,-7.905 3.641,-7.905c2.159,0 3.616,2.34 3.616,7.905c0,5.617 -1.457,8.036 -3.616,8.036Z" style="fill:#4d4d4d;fill-rule:nonzero;stroke:#4d4d4d;stroke-width:0.17px;stroke-linecap:butt;stroke-miterlimit:2;"/><path d="M135.493,109.086l1.898,0l0,-1.614l3.172,0l0,-1.635l-3.172,0l0,-1.612l-1.898,0l0,1.612l-5.798,0l0,1.635l5.798,0l0,1.614Zm-1.014,6.839l0,-1.875l5.616,0l0,1.875l-5.616,0Zm0,-5.073l5.616,0l0,1.875l-5.616,0l0,-1.875Zm13.182,1.875l-5.72,0l0,-1.875l5.72,0l0,1.875Zm0,3.198l-5.72,0l0,-1.875l5.72,0l0,1.875Zm3.666,2.99l-9.386,0l0,-1.589l7.618,0l0,-7.875l-16.926,0l0,7.875l7.462,0l0,1.589l-7.254,0l0,-0.936l-1.872,0l0,0.936l-1.04,0l0,1.609l1.04,0l0,7.437l1.872,0l0,-7.437l7.254,0l0,2.835c-2.132,0.078 -4.108,0.156 -5.616,0.208l0.156,1.69c2.938,-0.155 7.202,-0.363 11.388,-0.65c0.286,0.573 0.494,1.067 0.624,1.536l1.508,-0.547c-0.364,-1.33 -1.534,-3.234 -2.678,-4.632l-1.43,0.466c0.39,0.492 0.78,1.061 1.144,1.657l-3.25,0.13l0,-2.693l7.514,0l0,5.463c0,0.286 -0.104,0.364 -0.416,0.39c-0.286,0.026 -1.274,0.026 -2.496,0c0.234,0.467 0.468,1.09 0.572,1.583c1.664,0 2.73,0 3.38,-0.286c0.676,-0.311 0.832,-0.752 0.832,-1.661l0,-7.098Zm-4.862,-13.078l0,-1.612l-1.898,0l0,1.612l-3.042,0l0,1.635l3.042,0l0,1.638l1.898,0l0,-1.638l5.902,0l0,-1.635l-5.902,0Z" style="fill:#4d4d4d;fill-rule:nonzero;stroke:#4d4d4d;stroke-width:0.17px;stroke-linecap:butt;stroke-miterlimit:2;"/><path d="M176.287,106.277l-18.304,0l0,1.846l18.304,0l0,-1.846Zm-3.9,19.396c-1.014,0 -1.222,-0.182 -1.222,-1.066l0,-9.23l7.306,0l0,-1.872l-22.75,0l0,1.872l6.578,0c-0.39,4.862 -1.352,8.918 -6.89,11.024c0.442,0.338 0.988,1.04 1.222,1.508c5.98,-2.418 7.228,-6.968 7.722,-12.532l4.862,0l0,9.256c0,2.21 0.624,2.886 2.938,2.886l3.718,0c2.262,0 2.782,-1.222 2.99,-5.642c-0.52,-0.156 -1.352,-0.494 -1.794,-0.858c-0.13,3.978 -0.286,4.654 -1.326,4.654l-3.354,0Z" style="fill:#4d4d4d;fill-rule:nonzero;stroke:#4d4d4d;stroke-width:0.17px;stroke-linecap:butt;stroke-miterlimit:2;"/><path d="M209.968,124.258c-2.393,0 -3.823,-2.159 -4.109,-6.113c1.248,-1.768 2.705,-2.444 3.901,-2.444c2.315,0 3.434,1.638 3.434,4.213c0,2.601 -1.405,4.344 -3.226,4.344Zm5.121,-15.967c-1.038,-1.117 -2.467,-1.947 -4.444,-1.947c-3.694,0 -7.045,2.857 -7.045,10.319c0,6.294 2.701,9.438 6.368,9.438c2.966,0 5.459,-2.493 5.459,-6.187c0,-3.979 -2.051,-5.978 -5.276,-5.978c-1.509,0 -3.174,0.882 -4.344,2.311c0.104,-5.927 2.315,-7.93 4.916,-7.93c1.17,0 2.315,0.546 3.068,1.456l1.298,-1.482Z" style="fill:#4d4d4d;fill-rule:nonzero;stroke:#4d4d4d;stroke-width:0.17px;stroke-linecap:butt;stroke-miterlimit:2;"/><path d="M223.8,126.101c3.616,0 5.927,-3.299 5.927,-9.931c0,-6.605 -2.311,-9.826 -5.927,-9.826c-3.641,0 -5.952,3.195 -5.952,9.826c0,6.632 2.311,9.931 5.952,9.931Zm0,-1.895c-2.185,0 -3.641,-2.419 -3.641,-8.036c0,-5.565 1.456,-7.905 3.641,-7.905c2.159,0 3.616,2.34 3.616,7.905c0,5.617 -1.457,8.036 -3.616,8.036Z" style="fill:#4d4d4d;fill-rule:nonzero;stroke:#4d4d4d;stroke-width:0.17px;stroke-linecap:butt;stroke-miterlimit:2;"/><path d="M306.204,125.93c3.589,0 5.978,-2.154 5.978,-4.937c0,-2.6 -1.558,-4.031 -3.221,-4.993l0,-0.13c1.143,-0.884 2.545,-2.6 2.545,-4.603c0,-2.938 -1.973,-5.015 -5.224,-5.015c-2.992,0 -5.225,1.921 -5.225,4.833c0,2.002 1.169,3.433 2.571,4.395l0,0.13c-1.741,0.936 -3.507,2.705 -3.507,5.253c0,2.939 2.571,5.067 6.083,5.067Zm1.3,-10.684c-2.237,-0.884 -4.292,-1.872 -4.292,-4.161c0,-1.846 1.275,-3.095 3.018,-3.095c2.055,0 3.251,1.535 3.251,3.407c0,1.404 -0.676,2.705 -1.977,3.849Zm-1.248,8.92c-2.289,0 -3.98,-1.483 -3.98,-3.511c0,-1.82 1.067,-3.329 2.601,-4.317c2.705,1.092 5.046,2.055 5.046,4.603c0,1.898 -1.482,3.225 -3.667,3.225Z" style="fill:#4d4d4d;fill-rule:nonzero;stroke:#4d4d4d;stroke-width:0.17px;stroke-linecap:butt;stroke-miterlimit:2;"/><path d="M320.608,125.93c3.615,0 5.926,-3.299 5.926,-9.93c0,-6.605 -2.311,-9.826 -5.926,-9.826c-3.642,0 -5.953,3.195 -5.953,9.826c0,6.631 2.311,9.93 5.953,9.93Zm0,-1.894c-2.185,0 -3.642,-2.419 -3.642,-8.036c0,-5.565 1.457,-7.906 3.642,-7.906c2.159,0 3.615,2.341 3.615,7.906c0,5.617 -1.456,8.036 -3.615,8.036Z" style="fill:#4d4d4d;fill-rule:nonzero;stroke:#4d4d4d;stroke-width:0.17px;stroke-linecap:butt;stroke-miterlimit:2;"/><path d="M391.615,125.592l10.448,0l0,-1.972l-3.822,0l0,-17.082l-1.817,0c-1.039,0.597 -2.261,1.038 -3.951,1.35l0,1.506l3.38,0l0,14.226l-4.238,0l0,1.972Z" style="fill:#4d4d4d;fill-rule:nonzero;stroke:#4d4d4d;stroke-width:0.17px;stroke-linecap:butt;stroke-miterlimit:2;"/><path d="M410.983,125.93c3.616,0 5.926,-3.299 5.926,-9.93c0,-6.605 -2.31,-9.826 -5.926,-9.826c-3.642,0 -5.952,3.195 -5.952,9.826c0,6.631 2.31,9.93 5.952,9.93Zm0,-1.894c-2.185,0 -3.642,-2.419 -3.642,-8.036c0,-5.565 1.457,-7.906 3.642,-7.906c2.159,0 3.616,2.341 3.616,7.906c0,5.617 -1.457,8.036 -3.616,8.036Z" style="fill:#4d4d4d;fill-rule:nonzero;stroke:#4d4d4d;stroke-width:0.17px;stroke-linecap:butt;stroke-miterlimit:2;"/><path d="M425.413,125.93c3.616,0 5.926,-3.299 5.926,-9.93c0,-6.605 -2.31,-9.826 -5.926,-9.826c-3.642,0 -5.952,3.195 -5.952,9.826c0,6.631 2.31,9.93 5.952,9.93Zm0,-1.894c-2.185,0 -3.642,-2.419 -3.642,-8.036c0,-5.565 1.457,-7.906 3.642,-7.906c2.159,0 3.616,2.341 3.616,7.906c0,5.617 -1.457,8.036 -3.616,8.036Z" style="fill:#4d4d4d;fill-rule:nonzero;stroke:#4d4d4d;stroke-width:0.17px;stroke-linecap:butt;stroke-miterlimit:2;"/><path d="M489.205,125.592l10.449,0l0,-1.972l-3.822,0l0,-17.082l-1.818,0c-1.039,0.597 -2.261,1.038 -3.951,1.35l0,1.506l3.38,0l0,14.226l-4.238,0l0,1.972Z" style="fill:#4d4d4d;fill-rule:nonzero;stroke:#4d4d4d;stroke-width:0.17px;stroke-linecap:butt;stroke-miterlimit:2;"/><path d="M502.491,125.592l11.983,0l0,-2.05l-5.275,0c-0.962,0 -2.132,0.104 -3.12,0.181c4.472,-4.238 7.459,-8.113 7.459,-11.91c0,-3.407 -2.129,-5.639 -5.535,-5.639c-2.418,0 -4.056,1.116 -5.616,2.805l1.378,1.352c1.04,-1.248 2.392,-2.211 3.952,-2.211c2.366,0 3.51,1.587 3.51,3.771c0,3.277 -2.756,7.074 -8.736,12.3l0,1.401Z" style="fill:#4d4d4d;fill-rule:nonzero;stroke:#4d4d4d;stroke-width:0.17px;stroke-linecap:butt;stroke-miterlimit:2;"/><path d="M523.003,125.93c3.616,0 5.927,-3.299 5.927,-9.93c0,-6.605 -2.311,-9.826 -5.927,-9.826c-3.641,0 -5.952,3.195 -5.952,9.826c0,6.631 2.311,9.93 5.952,9.93Zm0,-1.894c-2.185,0 -3.641,-2.419 -3.641,-8.036c0,-5.565 1.456,-7.906 3.641,-7.906c2.159,0 3.616,2.341 3.616,7.906c0,5.617 -1.457,8.036 -3.616,8.036Z" style="fill:#4d4d4d;fill-rule:nonzero;stroke:#4d4d4d;stroke-width:0.17px;stroke-linecap:butt;stroke-miterlimit:2;"/><path d="M586.795,125.592l10.449,0l0,-1.972l-3.822,0l0,-17.082l-1.818,0c-1.039,0.597 -2.261,1.038 -3.951,1.35l0,1.506l3.38,0l0,14.226l-4.238,0l0,1.972Z" style="fill:#4d4d4d;fill-rule:nonzero;stroke:#4d4d4d;stroke-width:0.17px;stroke-linecap:butt;stroke-miterlimit:2;"/><path d="M601.927,118.446l4.342,-6.503c0.546,-0.936 1.066,-1.872 1.534,-2.809l0.104,0c-0.052,0.989 -0.156,2.523 -0.156,3.46l0,5.852l-5.824,0Zm10.605,0l-2.522,0l0,-11.908l-2.623,0l-7.93,12.245l0,1.557l8.294,0l0,5.252l2.259,0l0,-5.252l2.522,0l0,-1.894Z" style="fill:#4d4d4d;fill-rule:nonzero;stroke:#4d4d4d;stroke-width:0.17px;stroke-linecap:butt;stroke-miterlimit:2;"/><path d="M620.593,125.93c3.616,0 5.927,-3.299 5.927,-9.93c0,-6.605 -2.311,-9.826 -5.927,-9.826c-3.641,0 -5.952,3.195 -5.952,9.826c0,6.631 2.311,9.93 5.952,9.93Zm0,-1.894c-2.185,0 -3.641,-2.419 -3.641,-8.036c0,-5.565 1.456,-7.906 3.641,-7.906c2.159,0 3.616,2.341 3.616,7.906c0,5.617 -1.457,8.036 -3.616,8.036Z" style="fill:#4d4d4d;fill-rule:nonzero;stroke:#4d4d4d;stroke-width:0.17px;stroke-linecap:butt;stroke-miterlimit:2;"/><path d="M684.385,125.592l10.449,0l0,-1.972l-3.822,0l0,-17.082l-1.817,0c-1.04,0.597 -2.262,1.038 -3.952,1.35l0,1.506l3.38,0l0,14.226l-4.238,0l0,1.972Z" style="fill:#4d4d4d;fill-rule:nonzero;stroke:#4d4d4d;stroke-width:0.17px;stroke-linecap:butt;stroke-miterlimit:2;"/><path d="M704.352,124.088c-2.393,0 -3.824,-2.159 -4.11,-6.113c1.249,-1.768 2.705,-2.445 3.902,-2.445c2.315,0 3.433,1.639 3.433,4.214c0,2.601 -1.404,4.344 -3.225,4.344Zm5.121,-15.968c-1.039,-1.116 -2.468,-1.946 -4.445,-1.946c-3.693,0 -7.045,2.857 -7.045,10.319c0,6.294 2.701,9.437 6.369,9.437c2.965,0 5.458,-2.493 5.458,-6.186c0,-3.98 -2.051,-5.978 -5.276,-5.978c-1.509,0 -3.173,0.882 -4.344,2.311c0.104,-5.927 2.315,-7.931 4.916,-7.931c1.171,0 2.315,0.547 3.068,1.457l1.299,-1.483Z" style="fill:#4d4d4d;fill-rule:nonzero;stroke:#4d4d4d;stroke-width:0.17px;stroke-linecap:butt;stroke-miterlimit:2;"/><path d="M718.184,125.93c3.615,0 5.926,-3.299 5.926,-9.93c0,-6.605 -2.311,-9.826 -5.926,-9.826c-3.642,0 -5.953,3.195 -5.953,9.826c0,6.631 2.311,9.93 5.953,9.93Zm0,-1.894c-2.185,0 -3.642,-2.419 -3.642,-8.036c0,-5.565 1.457,-7.906 3.642,-7.906c2.159,0 3.615,2.341 3.615,7.906c0,5.617 -1.456,8.036 -3.615,8.036Z" style="fill:#4d4d4d;fill-rule:nonzero;stroke:#4d4d4d;stroke-width:0.17px;stroke-linecap:butt;stroke-miterlimit:2;"/><path d="M781.976,125.592l10.448,0l0,-1.972l-3.822,0l0,-17.082l-1.817,0c-1.039,0.597 -2.261,1.038 -3.951,1.35l0,1.506l3.38,0l0,14.226l-4.238,0l0,1.972Z" style="fill:#4d4d4d;fill-rule:nonzero;stroke:#4d4d4d;stroke-width:0.17px;stroke-linecap:butt;stroke-miterlimit:2;"/><path d="M801.37,125.93c3.589,0 5.978,-2.154 5.978,-4.937c0,-2.6 -1.557,-4.031 -3.221,-4.993l0,-0.13c1.144,-0.884 2.545,-2.6 2.545,-4.603c0,-2.938 -1.973,-5.015 -5.224,-5.015c-2.992,0 -5.224,1.921 -5.224,4.833c0,2.002 1.168,3.433 2.57,4.395l0,0.13c-1.741,0.936 -3.506,2.705 -3.506,5.253c0,2.939 2.57,5.067 6.082,5.067Zm1.301,-10.684c-2.238,-0.884 -4.293,-1.872 -4.293,-4.161c0,-1.846 1.275,-3.095 3.018,-3.095c2.055,0 3.252,1.535 3.252,3.407c0,1.404 -0.677,2.705 -1.977,3.849Zm-1.249,8.92c-2.289,0 -3.98,-1.483 -3.98,-3.511c0,-1.82 1.067,-3.329 2.601,-4.317c2.706,1.092 5.047,2.055 5.047,4.603c0,1.898 -1.483,3.225 -3.668,3.225Z" style="fill:#4d4d4d;fill-rule:nonzero;stroke:#4d4d4d;stroke-width:0.17px;stroke-linecap:butt;stroke-miterlimit:2;"/><path d="M815.774,125.93c3.616,0 5.926,-3.299 5.926,-9.93c0,-6.605 -2.31,-9.826 -5.926,-9.826c-3.642,0 -5.952,3.195 -5.952,9.826c0,6.631 2.31,9.93 5.952,9.93Zm0,-1.894c-2.185,0 -3.642,-2.419 -3.642,-8.036c0,-5.565 1.457,-7.906 3.642,-7.906c2.159,0 3.616,2.341 3.616,7.906c0,5.617 -1.457,8.036 -3.616,8.036Z" style="fill:#4d4d4d;fill-rule:nonzero;stroke:#4d4d4d;stroke-width:0.17px;stroke-linecap:butt;stroke-miterlimit:2;"/><path d="M878.422,125.592l11.982,0l0,-2.05l-5.274,0c-0.962,0 -2.132,0.104 -3.12,0.181c4.472,-4.238 7.458,-8.113 7.458,-11.91c0,-3.407 -2.129,-5.639 -5.534,-5.639c-2.418,0 -4.056,1.116 -5.616,2.805l1.378,1.352c1.04,-1.248 2.392,-2.211 3.952,-2.211c2.366,0 3.51,1.587 3.51,3.771c0,3.277 -2.756,7.074 -8.736,12.3l0,1.401Z" style="fill:#4d4d4d;fill-rule:nonzero;stroke:#4d4d4d;stroke-width:0.17px;stroke-linecap:butt;stroke-miterlimit:2;"/><path d="M898.934,125.93c3.616,0 5.926,-3.299 5.926,-9.93c0,-6.605 -2.31,-9.826 -5.926,-9.826c-3.642,0 -5.952,3.195 -5.952,9.826c0,6.631 2.31,9.93 5.952,9.93Zm0,-1.894c-2.185,0 -3.642,-2.419 -3.642,-8.036c0,-5.565 1.457,-7.906 3.642,-7.906c2.159,0 3.616,2.341 3.616,7.906c0,5.617 -1.457,8.036 -3.616,8.036Z" style="fill:#4d4d4d;fill-rule:nonzero;stroke:#4d4d4d;stroke-width:0.17px;stroke-linecap:butt;stroke-miterlimit:2;"/><path d="M913.364,125.93c3.616,0 5.926,-3.299 5.926,-9.93c0,-6.605 -2.31,-9.826 -5.926,-9.826c-3.642,0 -5.952,3.195 -5.952,9.826c0,6.631 2.31,9.93 5.952,9.93Zm0,-1.894c-2.185,0 -3.642,-2.419 -3.642,-8.036c0,-5.565 1.457,-7.906 3.642,-7.906c2.159,0 3.616,2.341 3.616,7.906c0,5.617 -1.457,8.036 -3.616,8.036Z" style="fill:#4d4d4d;fill-rule:nonzero;stroke:#4d4d4d;stroke-width:0.17px;stroke-linecap:butt;stroke-miterlimit:2;"/><path d="M976.012,125.592l11.983,0l0,-2.05l-5.275,0c-0.962,0 -2.132,0.104 -3.12,0.181c4.472,-4.238 7.459,-8.113 7.459,-11.91c0,-3.407 -2.129,-5.639 -5.535,-5.639c-2.418,0 -4.056,1.116 -5.616,2.805l1.378,1.352c1.04,-1.248 2.392,-2.211 3.952,-2.211c2.366,0 3.51,1.587 3.51,3.771c0,3.277 -2.756,7.074 -8.736,12.3l0,1.401Z" style="fill:#4d4d4d;fill-rule:nonzero;stroke:#4d4d4d;stroke-width:0.17px;stroke-linecap:butt;stroke-miterlimit:2;"/><path d="M990.442,125.592l11.983,0l0,-2.05l-5.275,0c-0.962,0 -2.132,0.104 -3.12,0.181c4.472,-4.238 7.459,-8.113 7.459,-11.91c0,-3.407 -2.129,-5.639 -5.535,-5.639c-2.418,0 -4.056,1.116 -5.616,2.805l1.378,1.352c1.04,-1.248 2.392,-2.211 3.952,-2.211c2.366,0 3.51,1.587 3.51,3.771c0,3.277 -2.756,7.074 -8.736,12.3l0,1.401Z" style="fill:#4d4d4d;fill-rule:nonzero;stroke:#4d4d4d;stroke-width:0.17px;stroke-linecap:butt;stroke-miterlimit:2;"/><path d="M1010.95,125.93c3.616,0 5.927,-3.299 5.927,-9.93c0,-6.605 -2.311,-9.826 -5.927,-9.826c-3.641,0 -5.952,3.195 -5.952,9.826c0,6.631 2.311,9.93 5.952,9.93Zm0,-1.894c-2.185,0 -3.641,-2.419 -3.641,-8.036c0,-5.565 1.456,-7.906 3.641,-7.906c2.159,0 3.616,2.341 3.616,7.906c0,5.617 -1.457,8.036 -3.616,8.036Z" style="fill:#4d4d4d;fill-rule:nonzero;stroke:#4d4d4d;stroke-width:0.17px;stroke-linecap:butt;stroke-miterlimit:2;"/><g><g><path d="M107.496,282.213l985.174,0" style="fill:none;stroke:#8c8c8c;stroke-opacity:0.57;stroke-width:0.91px;stroke-linecap:butt;stroke-miterlimit:2;"/></g></g></g></g><path d="M477.799,569.774c-0.72,-1.081 -2.16,-2.883 -3.312,-4.175l-2.268,1.184c1.116,1.334 2.52,3.244 3.204,4.361l2.376,-1.37Zm-12.888,15.12l0,-10.803l3.816,0c0.324,4.537 0.792,8.644 1.584,11.845c-1.764,2.306 -3.852,4.179 -6.192,5.437c0.648,0.575 1.548,1.655 2.016,2.341c1.944,-1.154 3.672,-2.664 5.22,-4.499c0.972,2.23 2.16,3.488 3.708,3.488c2.232,0.036 3.06,-1.366 3.528,-6.191c-0.72,-0.288 -1.656,-0.899 -2.268,-1.546c-0.108,3.276 -0.396,4.79 -0.936,4.79c-0.684,0 -1.368,-1.226 -1.98,-3.28c1.872,-2.804 3.384,-6.156 4.428,-9.753l-2.628,-0.72c-0.612,2.266 -1.548,4.425 -2.628,6.479c-0.396,-2.378 -0.684,-5.256 -0.9,-8.391l6.696,0l0,-2.803l-6.84,0c-0.072,-1.91 -0.072,-3.928 -0.072,-5.976l-3.06,0c0.036,2.012 0.072,4.03 0.18,5.976l-6.696,0l0,13.534c0,1.438 -0.972,2.266 -1.62,2.626c0.504,0.684 1.152,2.125 1.368,2.917c0.54,-0.648 1.512,-1.26 7.452,-4.788c-0.288,-0.611 -0.648,-1.761 -0.828,-2.59l-3.348,1.907Zm-9.108,1.797l4.608,0l0,-2.911l-4.608,0l0,-4.505l5.22,0l0,-2.947l-5.796,0l0,-3.929l5.148,0l0,-2.911l-5.148,0l0,-4.176l-3.096,0l0,4.176l-5.256,0l0,2.911l5.256,0l0,3.929l-6.516,0l0,2.947l7.164,0l0,11.631c-1.116,-1.189 -1.944,-2.738 -2.628,-4.826c0.072,-1.509 0.072,-2.985 0.036,-4.426l-2.808,-0.144c0.144,4.75 -0.108,10.549 -2.52,14.759c0.72,0.323 1.764,1.294 2.232,2.014c1.224,-2.086 2.016,-4.459 2.448,-6.909c2.916,4.967 7.452,6.081 14.904,6.081l13.068,0c0.18,-1.006 0.792,-2.516 1.332,-3.307c-2.52,0.072 -12.348,0.072 -14.4,0.072c-3.564,0 -6.372,-0.252 -8.64,-1.189l0,-6.34Z" style="fill:#dd5c68;fill-rule:nonzero;"/><path d="M511.243,584.642l0,8.532l-14.76,0l0,-8.532l14.76,0Zm6.048,-9.648l0,-3.276l-17.388,0c0.648,-1.908 1.152,-3.816 1.584,-5.76l-3.492,-0.612c-0.432,2.088 -0.972,4.248 -1.656,6.372l-10.404,0l0,3.276l9.216,0c-2.232,5.472 -5.544,10.476 -10.404,13.788c0.684,0.648 1.728,1.872 2.196,2.664c2.412,-1.692 4.464,-3.744 6.192,-6.048l0,13.032l3.348,0l0,-2.016l14.76,0l0,1.836l3.528,0l0,-16.848l-19.008,0c1.188,-2.052 2.16,-4.176 3.024,-6.408l18.504,0Z" style="fill:#dd5c68;fill-rule:nonzero;"/><path d="M539.647,574.451l11.448,0l0,1.373l-11.448,0l0,-1.373Zm0,-2.772l11.448,0l0,1.301l-11.448,0l0,-1.301Zm0,-2.772l11.448,0l0,1.337l-11.448,0l0,-1.337Zm-2.664,11.52l4.392,0c-0.936,1.515 -2.88,2.309 -6.876,2.811c0.468,0.359 1.08,1.149 1.332,1.725c5.076,-0.791 7.524,-1.94 8.64,-4.536l3.096,0l0,1.443c0,1.548 0.288,2.553 2.304,2.553l4.032,0c0.828,0 1.944,-0.036 2.376,-0.179c-0.144,-0.647 -0.144,-1.006 -0.18,-1.689c-0.468,0.145 -1.764,0.181 -2.34,0.181l-2.628,0c-0.756,0 -0.792,-0.253 -0.792,-0.83l0,-1.479l3.456,0l0,1.587l3.024,0l0,-3.346l-9.504,0c-0.144,-0.434 -0.36,-0.903 -0.576,-1.337l7.596,0l0,-9.931l-8.532,0c0.432,-0.54 0.864,-1.116 1.26,-1.764l-3.42,-0.396c-0.216,0.612 -0.612,1.404 -1.008,2.16l-6.084,0l0,9.931l6.768,0c0.18,0.434 0.36,0.903 0.468,1.337l-9.684,0l0,3.596l2.88,0l0,-1.837Zm-4.752,-9.103c-0.576,-1.512 -1.692,-3.924 -2.556,-5.832l-2.736,0.864c0.792,1.908 1.908,4.428 2.448,6.048l2.844,-1.08Zm17.964,18.967c-0.216,0.937 -0.468,1.37 -0.792,1.622c-0.252,0.216 -0.54,0.253 -1.008,0.253c-0.54,0 -1.872,0 -3.312,-0.145c0.324,0.541 0.576,1.369 0.612,1.945c1.548,0.108 3.06,0.108 3.852,0.072c0.828,0 1.548,-0.144 2.16,-0.612c0.72,-0.576 1.188,-1.729 1.62,-4.033c0.072,-0.323 0.108,-1.005 0.108,-1.005l-9.972,0c0.144,-0.329 0.216,-0.689 0.324,-1.049l12.78,0l0,-2.011l-9.504,0c-0.324,-0.792 -0.756,-1.656 -1.188,-2.376l-2.736,0.648c0.252,0.54 0.54,1.116 0.792,1.728l-9.432,0l0,2.011l6.408,0c-0.72,2.376 -2.304,3.996 -6.552,4.896c0.54,0.504 1.296,1.512 1.584,2.196c-0.864,-0.216 -1.62,-0.576 -2.34,-0.972c-1.26,-0.792 -2.088,-1.476 -2.772,-1.836c1.152,-2.732 2.16,-6.189 2.772,-9.357l-1.404,-0.54l-0.504,0.108l-1.548,0c0.972,-2.52 2.124,-5.436 2.988,-7.956l-8.244,0l0,2.952l3.96,0c-1.008,2.808 -2.16,5.76 -3.168,7.92l4.392,0c-0.576,2.593 -1.404,5.29 -2.412,7.307c-1.044,0.793 -2.16,2.054 -3.312,3.566l2.124,2.876c1.008,-2.193 2.268,-4.46 3.06,-4.46c0.792,0 2.052,1.225 3.492,2.051c2.664,1.51 5.724,1.905 10.44,1.905c4.176,0 10.836,-0.215 13.68,-0.395c0.036,-0.863 0.54,-2.372 0.936,-3.201c-3.996,0.432 -10.008,0.793 -14.508,0.793c-2.988,0 -5.544,-0.108 -7.596,-0.721c3.456,-0.901 5.436,-2.306 6.624,-4.18l7.596,0Z" style="fill:#dd5c68;fill-rule:nonzero;"/><path d="M575.071,593.534l0,-7.56l14.832,0l0,7.56l-14.832,0Zm13.104,-21.636c-1.944,2.736 -4.608,5.076 -7.668,7.056c-1.692,-1.62 -4.464,-3.78 -6.732,-5.4c0.648,-0.54 1.296,-1.08 1.944,-1.656l12.456,0Zm5.184,11.052l-13.068,0c5.508,-3.168 10.188,-7.452 12.924,-12.924l-2.304,-1.368l-0.54,0.18l-11.7,0c0.792,-0.936 1.512,-1.908 2.196,-2.88l-3.816,-0.792c-2.124,3.384 -6.156,7.2 -11.952,9.828c0.756,0.576 1.836,1.836 2.304,2.664c1.332,-0.684 2.556,-1.404 3.708,-2.16c2.16,1.62 4.68,3.672 6.3,5.292c-4.068,2.124 -8.604,3.672 -13.068,4.572c0.612,0.756 1.368,2.16 1.728,3.096c1.872,-0.468 3.78,-1.008 5.652,-1.62l0,11.484l3.348,0l0,-1.728l14.832,0l0,1.728l3.456,0l0,-15.372Z" style="fill:#dd5c68;fill-rule:nonzero;"/><path d="M631.843,574.562c-0.684,2.376 -1.62,4.824 -2.376,6.444c0.792,0.36 2.124,1.044 2.808,1.404c1.296,-2.556 2.88,-6.372 3.744,-10.008l-2.412,-1.368l-0.684,0.18l-12.024,0c0.504,-1.692 0.972,-3.42 1.332,-5.22l-3.672,-0.684c-1.08,5.724 -3.096,11.376 -5.976,14.796c0.936,0.432 2.628,1.368 3.384,1.944c1.44,-2.016 2.7,-4.608 3.78,-7.488l12.096,0Zm-17.244,-3.852l-9.612,0l0,3.24l9.612,0l0,-3.24Zm0.936,14.544l-11.304,0l0,3.348l11.304,0l0,-3.348Zm10.188,-9.504l-3.564,0l0,2.988c0,4.968 -0.864,12.204 -10.836,17.064c0.792,0.612 2.016,1.872 2.484,2.7c6.444,-3.24 9.432,-7.524 10.836,-11.7c1.98,5.292 5.148,9.216 10.152,11.376c0.468,-0.972 1.512,-2.304 2.268,-2.988c-6.444,-2.268 -9.792,-7.92 -11.34,-15.228l0,-4.212Z" style="fill:#dd5c68;fill-rule:nonzero;"/><path d="M675.799,569.774c-0.72,-1.081 -2.16,-2.883 -3.312,-4.175l-2.268,1.184c1.116,1.334 2.52,3.244 3.204,4.361l2.376,-1.37Zm-12.888,15.12l0,-10.803l3.816,0c0.324,4.537 0.792,8.644 1.584,11.845c-1.764,2.306 -3.852,4.179 -6.192,5.437c0.648,0.575 1.548,1.655 2.016,2.341c1.944,-1.154 3.672,-2.664 5.22,-4.499c0.972,2.23 2.16,3.488 3.708,3.488c2.232,0.036 3.06,-1.366 3.528,-6.191c-0.72,-0.288 -1.656,-0.899 -2.268,-1.546c-0.108,3.276 -0.396,4.79 -0.936,4.79c-0.684,0 -1.368,-1.226 -1.98,-3.28c1.872,-2.804 3.384,-6.156 4.428,-9.753l-2.628,-0.72c-0.612,2.266 -1.548,4.425 -2.628,6.479c-0.396,-2.378 -0.684,-5.256 -0.9,-8.391l6.696,0l0,-2.803l-6.84,0c-0.072,-1.91 -0.072,-3.928 -0.072,-5.976l-3.06,0c0.036,2.012 0.072,4.03 0.18,5.976l-6.696,0l0,13.534c0,1.438 -0.972,2.266 -1.62,2.626c0.504,0.684 1.152,2.125 1.368,2.917c0.54,-0.648 1.512,-1.26 7.452,-4.788c-0.288,-0.611 -0.648,-1.761 -0.828,-2.59l-3.348,1.907Zm-9.108,1.797l4.608,0l0,-2.911l-4.608,0l0,-4.505l5.22,0l0,-2.947l-5.796,0l0,-3.929l5.148,0l0,-2.911l-5.148,0l0,-4.176l-3.096,0l0,4.176l-5.256,0l0,2.911l5.256,0l0,3.929l-6.516,0l0,2.947l7.164,0l0,11.631c-1.116,-1.189 -1.944,-2.738 -2.628,-4.826c0.072,-1.509 0.072,-2.985 0.036,-4.426l-2.808,-0.144c0.144,4.75 -0.108,10.549 -2.52,14.759c0.72,0.323 1.764,1.294 2.232,2.014c1.224,-2.086 2.016,-4.459 2.448,-6.909c2.916,4.967 7.452,6.081 14.904,6.081l13.068,0c0.18,-1.006 0.792,-2.516 1.332,-3.307c-2.52,0.072 -12.348,0.072 -14.4,0.072c-3.564,0 -6.372,-0.252 -8.64,-1.189l0,-6.34Z" style="fill:#dd5c68;fill-rule:nonzero;"/><path d="M688.793,588.136c0.072,-1.046 0.108,-2.091 0.108,-2.993l0,-0.072l7.024,0l0,3.065l-7.132,0Zm7.132,-8.717l0,3.101l-7.024,0l0,-3.101l7.024,0Zm3.2,-2.695l-13.244,0l0,8.383c0,3.532 -0.252,8.138 -2.592,11.415c0.72,0.36 2.016,1.368 2.556,1.908c1.546,-2.124 2.301,-4.933 2.696,-7.743l7.384,0l0,4.073c0,0.468 -0.144,0.612 -0.648,0.648c-0.432,0.036 -2.016,0.036 -3.6,-0.036c0.432,0.755 0.9,2.049 1.116,2.875c2.268,0 3.887,-0.036 4.966,-0.575c1.042,-0.467 1.366,-1.294 1.366,-2.84l0,-18.108Zm10.984,17.709c0,0.505 -0.18,0.649 -0.756,0.685c-0.541,0.036 -2.487,0.036 -4.502,-0.036c0.467,0.828 1.042,2.268 1.186,3.168c2.703,0.036 4.576,-0.072 5.762,-0.612c1.222,-0.504 1.618,-1.404 1.618,-3.169l0,-18.433l-3.308,0l0,18.397Zm-4.072,-17.389l-3.092,0l0,14.653l3.092,0l0,-14.653Zm1.694,-6.26c1.009,-1.368 2.018,-2.952 2.99,-4.5l-3.639,-1.116c-0.721,1.692 -1.98,3.924 -3.166,5.616l-10.367,0l1.836,-0.684c-0.612,-1.368 -2.124,-3.384 -3.456,-4.824l-3.132,1.08c1.116,1.332 2.376,3.132 2.988,4.428l-8.244,0l0,3.055l32.072,0l0,-3.055l-7.882,0Z" style="fill:#dd5c68;fill-rule:nonzero;"/><path d="M750.033,593.428l-4.72,0l0,-15.701l4.72,0l0,15.701Zm-21.928,-15.701l4.504,0l0,15.701l-4.504,0l0,-15.701Zm14.188,3.389l-6.7,0l0,-3.389l6.7,0l0,3.389Zm-6.7,8.743l6.7,0l0,3.569l-6.7,0l0,-3.569Zm6.7,-2.659l-6.7,0l0,-3.425l6.7,0l0,3.425Zm12.848,-16.493l0,-3.163l-31.82,0l0,3.163l13.425,0c-0.216,1.298 -0.505,2.739 -0.793,3.965l-11.084,0l0,23.719l3.236,0l0,-1.872l21.928,0l0,1.872l3.416,0l0,-23.719l-14.038,0c0.361,-1.226 0.793,-2.631 1.225,-3.965l14.505,0Z" style="fill:#dd5c68;fill-rule:nonzero;"/><g transform="matrix(1.2897,0,0,1.2897,1063.99,410.84)"><g transform="matrix(24,0,0,24,3.55271e-15,0)"><path d="M0.277,-0.586l-0.113,0l0,-0.14l0.113,0l0,0.14Zm-0.113,0.431l0,-0.163l0.113,0l0,0.146l-0.113,0.017Zm0.113,-0.225l-0.113,0l0,-0.143l0.113,0l0,0.143Zm0.103,-0.346l0,-0.068l-0.328,0l0,0.068l0.05,0l0,0.581c-0.022,0.003 -0.042,0.006 -0.061,0.009l0.015,0.067c0.064,-0.012 0.141,-0.026 0.221,-0.039l0,0.185l0.064,0l0,-0.803l0.039,0Zm0.186,0.381l0,0.156l-0.085,0l0,-0.156l-0.061,0l0,0.22l0.139,0c-0.013,0.058 -0.049,0.115 -0.143,0.159c0.012,0.01 0.034,0.036 0.041,0.051c0.143,-0.07 0.173,-0.18 0.173,-0.276l0,-0.154l-0.064,0Zm-0.004,-0.173c0.007,0.02 0.015,0.043 0.022,0.066l-0.13,0.013c0.061,-0.067 0.123,-0.156 0.177,-0.246l-0.053,-0.028c-0.015,0.029 -0.033,0.06 -0.05,0.087l-0.078,0.004c0.039,-0.048 0.079,-0.115 0.111,-0.181l-0.056,-0.026c-0.027,0.075 -0.077,0.148 -0.092,0.167c-0.014,0.019 -0.026,0.033 -0.04,0.035c0.007,0.019 0.016,0.053 0.019,0.069c0.01,-0.006 0.027,-0.01 0.101,-0.016c-0.031,0.043 -0.057,0.076 -0.07,0.09c-0.022,0.027 -0.041,0.045 -0.058,0.048c0.007,0.019 0.015,0.052 0.018,0.068c0.014,-0.008 0.041,-0.014 0.215,-0.035c0.005,0.02 0.01,0.038 0.013,0.052l0.049,-0.016c-0.009,-0.04 -0.031,-0.11 -0.051,-0.163l-0.047,0.012Zm0.285,0.327l-0.085,0l0,-0.155l-0.065,0l0,0.425l0.065,0l0,-0.205l0.085,0l0,0.038l0.062,0l0,-0.249l-0.062,0l0,0.146Zm0.007,-0.338c0.009,0.022 0.019,0.045 0.027,0.069l-0.128,0.015c0.054,-0.065 0.108,-0.153 0.154,-0.24l-0.053,-0.027c-0.012,0.027 -0.027,0.055 -0.041,0.08l-0.078,0.004c0.036,-0.046 0.073,-0.109 0.102,-0.172l-0.052,-0.024c-0.026,0.071 -0.075,0.144 -0.089,0.163c-0.014,0.018 -0.026,0.03 -0.039,0.033c0.006,0.017 0.015,0.05 0.018,0.064c0.01,-0.005 0.029,-0.009 0.107,-0.016c-0.028,0.045 -0.053,0.08 -0.064,0.094c-0.021,0.026 -0.038,0.044 -0.054,0.047c0.007,0.018 0.015,0.051 0.017,0.066c0.016,-0.009 0.042,-0.014 0.217,-0.038c0.008,0.02 0.014,0.039 0.018,0.054l0.048,-0.019c-0.013,-0.042 -0.041,-0.114 -0.065,-0.167l-0.045,0.014Z" style="fill:#007099;fill-rule:nonzero;"/></g><g transform="matrix(24,0,0,24,24,0)"><path d="M0.796,-0.725c-0.061,-0.038 -0.179,-0.086 -0.269,-0.112l-0.033,0.059c0.092,0.029 0.209,0.08 0.266,0.12l0.036,-0.067Zm-0.53,0.013c-0.014,-0.035 -0.047,-0.087 -0.075,-0.128l-0.056,0.029c0.027,0.041 0.058,0.097 0.073,0.133l0.058,-0.034Zm0.107,0.045l-0.32,0l0,0.061l0.32,0l0,-0.061Zm-0.091,0.456l0,0.165l-0.13,0l0,-0.165l0.13,0Zm0.064,-0.062l-0.257,0l0,0.336l0.063,0l0,-0.047l0.194,0l0,-0.289Zm-0.257,-0.074l0.257,0l0,-0.059l-0.257,0l0,0.059Zm0,-0.13l0.258,0l0,-0.059l-0.258,0l0,0.059Zm0.455,0.025l-0.013,0.003l-0.162,0l0,0.068l0.139,0c-0.03,0.13 -0.091,0.25 -0.16,0.308c0.016,0.012 0.037,0.038 0.048,0.053c0.091,-0.08 0.163,-0.233 0.193,-0.416l-0.045,-0.016Zm0.342,-0.102c-0.032,0.049 -0.083,0.115 -0.129,0.166c-0.019,-0.049 -0.035,-0.1 -0.048,-0.15l0,-0.092l-0.269,0l0,0.068l0.198,0l0,0.55c0,0.014 -0.005,0.018 -0.02,0.019c-0.013,0 -0.062,0.001 -0.114,-0.002c0.01,0.02 0.02,0.052 0.023,0.072c0.072,0 0.117,-0.001 0.146,-0.013c0.027,-0.012 0.036,-0.034 0.036,-0.076l0,-0.344c0.05,0.145 0.12,0.273 0.205,0.342c0.012,-0.018 0.035,-0.044 0.052,-0.057c-0.072,-0.052 -0.134,-0.147 -0.184,-0.256c0.051,-0.05 0.114,-0.12 0.164,-0.179l-0.06,-0.048Z" style="fill:#007099;fill-rule:nonzero;"/></g><g transform="matrix(20,0,0,20,-8.31,26)"><path d="M0.239,0.197l0.057,-0.027c-0.087,-0.142 -0.128,-0.311 -0.128,-0.481c0,-0.17 0.041,-0.338 0.128,-0.481l-0.057,-0.026c-0.092,0.149 -0.147,0.311 -0.147,0.507c0,0.197 0.055,0.358 0.147,0.508Z" style="fill:#007099;fill-rule:nonzero;"/></g><g transform="matrix(20,0,0,20,-1.55,26)"><path d="M0.289,-0.705l-0.038,0.029c0.034,0.031 0.076,0.074 0.095,0.102l0.049,-0.041c-0.019,-0.025 -0.057,-0.062 -0.09,-0.09l0.189,0l0,-0.06l-0.256,0c0.01,-0.02 0.019,-0.04 0.027,-0.06l-0.065,-0.018c-0.034,0.083 -0.09,0.163 -0.151,0.218c0.016,0.012 0.042,0.036 0.052,0.049c0.036,-0.035 0.071,-0.079 0.102,-0.129l0.086,0Zm0.169,0.367l0,0.093l-0.24,0c0.005,-0.029 0.01,-0.062 0.015,-0.093l0.225,0Zm0.073,-0.155l0.262,0l0,0.092l-0.262,0l0,-0.092Zm0,0.248l0,-0.093l0.335,0l0,-0.218l-0.731,0l0,0.063l0.323,0l0,0.092l-0.288,0c-0.008,0.071 -0.022,0.16 -0.035,0.22l0.264,0c-0.082,0.085 -0.209,0.162 -0.325,0.2c0.017,0.014 0.037,0.041 0.048,0.059c0.119,-0.046 0.248,-0.132 0.336,-0.231l0,0.23l0.073,0l0,-0.258l0.288,0c-0.01,0.09 -0.021,0.129 -0.034,0.143c-0.009,0.007 -0.019,0.008 -0.036,0.008c-0.018,0 -0.064,0 -0.113,-0.005c0.011,0.019 0.019,0.047 0.02,0.069c0.051,0.002 0.1,0.002 0.126,0c0.027,-0.001 0.046,-0.007 0.062,-0.025c0.026,-0.024 0.039,-0.085 0.053,-0.223c0.001,-0.011 0.002,-0.031 0.002,-0.031l-0.368,0Zm0.119,-0.519c0.009,-0.021 0.018,-0.041 0.026,-0.063l-0.069,-0.016c-0.024,0.072 -0.069,0.14 -0.124,0.186c0.016,0.009 0.044,0.032 0.056,0.044c0.027,-0.026 0.053,-0.057 0.076,-0.092l0.112,0l-0.043,0.035c0.036,0.029 0.08,0.071 0.103,0.097l0.049,-0.042c-0.022,-0.026 -0.064,-0.062 -0.099,-0.09l0.215,0l0,-0.059l-0.302,0Z" style="fill:#007099;fill-rule:nonzero;"/></g><g transform="matrix(20,0,0,20,18.45,26)"><path d="M0.088,0l0.402,0l0,-0.076l-0.147,0l0,-0.657l-0.07,0c-0.04,0.023 -0.087,0.04 -0.152,0.052l0,0.058l0.13,0l0,0.547l-0.163,0l0,0.076Z" style="fill:#007099;fill-rule:nonzero;"/></g><g transform="matrix(20,0,0,20,29.55,26)"><path d="M0.327,-0.044l0,-0.227l0.444,0l0,0.227l-0.444,0Zm0.405,-0.625c-0.057,0.084 -0.14,0.158 -0.236,0.218c-0.049,-0.047 -0.133,-0.11 -0.201,-0.158c0.023,-0.02 0.046,-0.039 0.067,-0.06l0.37,0Zm0.115,0.329l-0.397,0c0.166,-0.088 0.31,-0.211 0.392,-0.37l-0.05,-0.031l-0.012,0.004l-0.354,0c0.025,-0.028 0.046,-0.057 0.065,-0.085l-0.083,-0.018c-0.06,0.095 -0.173,0.206 -0.334,0.284c0.016,0.011 0.04,0.039 0.051,0.056c0.04,-0.02 0.077,-0.043 0.112,-0.067c0.066,0.049 0.142,0.109 0.19,0.157c-0.118,0.064 -0.25,0.111 -0.377,0.137c0.015,0.016 0.032,0.048 0.038,0.068c0.055,-0.013 0.111,-0.029 0.166,-0.048l0,0.329l0.073,0l0,-0.052l0.444,0l0,0.052l0.076,0l0,-0.416Z" style="fill:#007099;fill-rule:nonzero;"/></g><g transform="matrix(20,0,0,20,49.55,26)"><path d="M0.099,0.197c0.093,-0.15 0.148,-0.311 0.148,-0.508c0,-0.196 -0.055,-0.358 -0.148,-0.507l-0.056,0.026c0.086,0.143 0.128,0.311 0.128,0.481c0,0.17 -0.042,0.339 -0.128,0.481l0.056,0.027Z" style="fill:#007099;fill-rule:nonzero;"/></g></g><path d="M52.503,50.985c-2.196,5.292 -5.94,10.548 -9.864,13.788c0.864,0.684 2.376,2.088 2.952,2.772c3.96,-3.636 8.028,-9.54 10.584,-15.408l-3.672,-1.152Zm10.548,19.404c1.26,1.8 2.664,3.888 3.996,5.976l-15.084,0.9c3.6,-4.14 7.2,-9.36 10.152,-14.616l-3.888,-1.584c-2.88,6.012 -7.452,12.276 -8.928,13.86c-1.404,1.656 -2.376,2.736 -3.456,3.024c0.504,0.972 1.188,2.844 1.332,3.6c1.584,-0.612 3.744,-0.756 21.78,-2.088c0.792,1.296 1.404,2.448 1.908,3.492l3.384,-1.836c-1.692,-3.24 -5.076,-8.28 -7.956,-12.168l-3.24,1.44Zm-4.896,-19.476l0,3.42l6.264,0c1.98,5.112 5.292,10.152 9.36,13.212c0.612,-1.044 1.8,-2.556 2.592,-3.312c-4.284,-2.664 -7.74,-7.92 -9.396,-13.32l-8.82,0Z" style="fill:#dd5c68;fill-rule:nonzero;"/><path d="M96.639,67.866l0,5.873l-10.44,0l0,-5.873l10.44,0Zm3.276,8.784l0,-11.659l-16.956,0l0,14.29l3.24,0l0,-2.631l13.716,0Zm2.232,-17.959l-21.276,0l0,2.947l21.276,0l0,-2.947Zm7.308,-6.444l-28.872,0l0,3.199l25.452,0l0,22.97c0,0.684 -0.216,0.865 -0.9,0.901c-0.684,0.036 -3.096,0.036 -5.4,-0.072c0.468,0.972 1.008,2.664 1.152,3.636c3.204,0.036 5.436,-0.036 6.804,-0.648c1.332,-0.54 1.764,-1.656 1.764,-3.781l0,-26.205Z" style="fill:#dd5c68;fill-rule:nonzero;"/><path d="M136.599,57.465l3.312,0l0,-2.127l7.416,0l0,-2.695l-7.416,0l0,-2.664l-3.312,0l0,2.664l-4.464,0l0,2.695l4.464,0l0,2.127Zm-18.432,16.737c-0.648,1.98 -1.8,4.104 -3.132,5.544c0.612,0.396 1.728,1.188 2.196,1.62c1.368,-1.656 2.772,-4.14 3.564,-6.552l-2.628,-0.612Zm13.464,-14.719l-5.796,0c-0.396,-0.937 -0.936,-1.946 -1.368,-2.775l1.8,0l0,-1.37l4.392,0l0,-2.695l-4.392,0l0,-2.664l-3.312,0l0,2.664l-7.272,0l0,2.695l7.272,0l0,1.37l1.044,0l-2.808,0.757c0.324,0.612 0.648,1.297 0.9,2.018l-6.264,0l0,2.515l15.804,0l0,-2.515Zm0.144,14.035l0,-2.623l-6.336,0l0,-2.201l6.696,0l0,-2.551l-4.284,0c0.468,-1.008 1.044,-2.232 1.584,-3.42l-2.952,-0.756c-0.288,1.224 -1.008,2.916 -1.584,4.176l-3.132,0l0.684,-0.252c-0.216,-1.08 -0.936,-2.7 -1.692,-3.888l-2.556,0.828c0.612,0.972 1.152,2.268 1.404,3.312l-4.284,0l0,2.551l6.984,0l0,2.201l-6.48,0l0,2.623l6.48,0l0,9.36l3.132,0l0,-9.36l6.336,0Zm-5.22,1.512c0.936,1.476 1.98,3.528 2.484,4.86l2.34,-1.368c-0.504,-1.26 -1.584,-3.204 -2.592,-4.68l-2.232,1.188Zm21.06,-8.529l-10.944,0l0,-4.5c3.636,-0.54 7.56,-1.368 10.476,-2.376l-2.52,-2.412c-2.592,1.044 -7.02,2.016 -10.98,2.592l0,9.468c0,3.636 -0.216,8.28 -2.412,11.592c0.648,0.396 1.872,1.584 2.34,2.16c2.592,-3.708 3.096,-9.396 3.096,-13.608l3.816,0l0,13.5l3.168,0l0,-13.5l3.96,0l0,-2.916Z" style="fill:#dd5c68;fill-rule:nonzero;"/><path d="M160.791,51.995l-8.82,0l0,2.515l8.82,0l0,-2.515Zm12.564,2.842l5.004,0c-0.504,0.9 -1.044,1.837 -1.512,2.486l2.628,0.935c1.008,-1.332 2.232,-3.421 3.132,-5.329l-2.304,-0.756l-0.468,0.144l-11.232,0c0.252,-0.612 0.468,-1.188 0.684,-1.8l-2.988,-0.648c-0.792,2.52 -2.268,5.004 -4.14,6.625c0.756,0.36 1.98,1.224 2.52,1.692c0.936,-0.899 1.836,-2.052 2.628,-3.349l2.988,0l0,0.468c0,1.549 -0.828,3.563 -8.64,4.57l0,-2.372l-10.44,0l0,2.623l9.144,0c0.612,0.613 1.368,1.731 1.692,2.489c6.192,-0.866 9.036,-2.417 10.332,-4.07c2.268,2.086 5.544,3.384 9.648,3.961c0.324,-0.865 1.152,-2.055 1.8,-2.739c-4.752,-0.288 -8.604,-1.509 -10.548,-3.489c0.072,-0.324 0.072,-0.613 0.072,-0.865l0,-0.576Zm-14.22,18.177l16.884,0l0,2.093l-16.884,0l0,-2.093Zm0,-4.068l16.884,0l0,2.021l-16.884,0l0,-2.021Zm0,-4.068l16.884,0l0,2.057l-16.884,0l0,-2.057Zm20.232,12.348l0,-14.467l-23.472,0l0,14.467l5.796,0c-2.484,1.404 -6.696,2.628 -10.368,3.348c0.72,0.612 1.908,1.836 2.484,2.52c3.6,-1.008 8.1,-2.736 11.016,-4.5l-2.988,-1.368l10.764,0l-2.088,1.692c3.708,1.26 7.488,2.88 9.684,4.068l3.024,-1.836c-2.448,-1.188 -6.444,-2.7 -10.152,-3.924l6.3,0Z" style="fill:#dd5c68;fill-rule:nonzero;"/><path d="M205.035,68.301l0,-8.712l9.36,0l0,8.712l-9.36,0Zm-12.816,0l0,-8.712l9.324,0l0,8.712l-9.324,0Zm12.816,-11.988l0,-6.264l-3.492,0l0,6.264l-12.672,0l0,17.388l3.348,0l0,-2.124l9.324,0l0,11.448l3.492,0l0,-11.448l9.36,0l0,1.944l3.492,0l0,-17.208l-12.852,0Z" style="fill:#dd5c68;fill-rule:nonzero;"/><path d="M246.579,55.197c-0.36,-1.548 -1.116,-3.78 -1.8,-5.544l-3.168,0.792c0.684,1.8 1.404,4.176 1.656,5.688l3.312,-0.936Zm7.668,1.116l-19.62,0l0,3.24l19.62,0l0,-3.24Zm-11.772,19.728c-0.36,-3.636 -1.476,-9.9 -2.592,-14.76l-2.988,0.684c1.008,4.896 1.98,11.304 2.268,15.048l3.312,-0.972Zm-11.124,-25.884c-1.908,5.256 -5.112,10.512 -8.532,13.86c0.576,0.792 1.548,2.592 1.872,3.384c1.008,-1.044 2.016,-2.232 2.952,-3.564l0,19.152l3.384,0l0,-24.408c1.332,-2.412 2.556,-4.932 3.492,-7.452l-3.168,-0.972Zm17.424,28.224c1.296,-4.608 2.664,-11.304 3.636,-16.74l-3.492,-0.576c-0.612,5.292 -1.944,12.564 -3.24,17.316l-12.492,0l0,3.204l22.392,0l0,-3.204l-6.804,0Z" style="fill:#dd5c68;fill-rule:nonzero;"/><path d="M272.393,74.115c-0.433,1.044 -1.19,2.124 -2.811,3.132c-1.33,-0.54 -2.769,-1.08 -4.101,-1.512c0.324,-0.432 0.612,-0.828 0.9,-1.296l6.012,-0.324Zm-8.966,-8.373l3.819,0l0,1.805l-3.819,0l0,-1.805Zm10.26,0l0,1.805l-3.854,0l0,-1.805l3.854,0Zm-9.29,-5.647l0,-1.766l2.849,0l0,1.766l-2.849,0Zm2.849,-5.51l0,1.584l-2.849,0l0,-1.584l2.849,0Zm5.616,0l0,1.584l-3.029,0l0,-1.584l3.029,0Zm-3.029,5.51l0,-1.766l3.029,0l0,1.766l-3.029,0Zm6.662,20.464c-1.116,-0.612 -2.556,-1.368 -4.14,-2.124c1.8,-1.404 2.556,-2.988 2.88,-4.464l1.692,-0.109l0.036,-2.213l-1.512,0.072l0,-1.375l-2.664,0l0,1.501l-4.86,0.252c0.468,-0.824 0.9,-1.61 1.332,-2.433l7.344,0l0,-6.079l-6.77,0l0,-1.265l5.94,0l0,-3.852l2.484,0l0,-2.479l-2.484,0l0,-3.602l-5.94,0l0,-2.376l-2.587,0l0,2.376l-5.616,0l0,3.602l-2.556,0l0,2.479l2.556,0l0,3.852l5.616,0l0,1.265l-6.591,0l0,6.079l5.58,0c-0.396,0.866 -0.936,1.695 -1.476,2.597c-2.088,0.072 -4.032,0.18 -5.616,0.215l0.252,2.372l3.78,-0.215c-0.576,0.827 -1.152,1.583 -1.728,2.231c1.692,0.504 3.492,1.116 5.256,1.836c-2.016,0.756 -4.68,1.476 -8.244,2.052c0.504,0.54 1.08,1.548 1.296,2.16c4.536,-0.72 7.74,-1.728 10.08,-2.88c1.764,0.828 3.348,1.656 4.5,2.412l2.16,-1.887Zm9.975,-20.862c-0.397,3.638 -0.937,6.911 -1.837,9.754c-0.972,-2.951 -1.692,-6.26 -2.16,-9.754l3.997,0Zm5.287,0l0,-2.952l-8.636,0c0.432,-1.98 0.756,-4.068 1.044,-6.156l-2.844,-0.36c-0.721,6.048 -2.017,11.989 -4.429,15.766c0.648,0.469 1.764,1.552 2.196,2.091c0.612,-1.008 1.152,-2.127 1.692,-3.385c0.613,3.097 1.369,5.939 2.413,8.496c-1.512,3.165 -3.673,5.721 -6.697,7.593c0.576,0.576 1.476,1.872 1.728,2.484c2.736,-1.872 4.861,-4.14 6.445,-6.912c1.44,2.628 3.239,4.716 5.469,6.3c0.432,-0.792 1.259,-1.8 1.943,-2.34c-2.482,-1.548 -4.424,-3.96 -5.9,-6.981c1.619,-3.818 2.555,-8.317 3.13,-13.644l2.446,0Z" style="fill:#dd5c68;fill-rule:nonzero;"/><path d="M949.839,518.909l16.2,0l0,2.669l-16.2,0l0,-2.669Zm16.2,-15.084l0,2.525l-16.2,0l0,-2.525l16.2,0Zm0,7.457l-16.2,0l0,-2.417l16.2,0l0,2.417Zm-16.2,2.515l16.2,0l0,2.597l-16.2,0l0,-2.597Zm19.584,7.781l0,-20.52l-11.196,0c0.18,-0.794 0.36,-1.587 0.504,-2.453l14.436,0l0,-2.947l-13.896,0l0.468,-2.592l-3.708,-0.324c-0.072,0.864 -0.144,1.908 -0.288,2.916l-13.068,0l0,2.947l12.708,0c-0.108,0.866 -0.252,1.696 -0.396,2.453l-8.388,0l0,20.52l-4.896,0l0,3.055l32.472,0l0,-3.055l-4.752,0Z" style="fill:#dd5c68;fill-rule:nonzero;"/><path d="M990.087,513.979c-0.252,-1.905 -1.116,-5.113 -1.98,-7.558l-2.484,0.648c0.36,0.971 0.684,2.121 0.972,3.274l-4.248,0.505c2.808,-3.24 5.616,-7.238 7.74,-11.126l-2.88,-1.798c-0.72,1.654 -1.656,3.313 -2.628,4.824l-3.132,0.251c1.836,-2.627 3.636,-5.902 5.076,-9.069l-3.096,-1.26c-1.296,3.816 -3.6,7.846 -4.32,8.892c-0.72,1.042 -1.296,1.797 -1.944,1.941c0.36,0.791 0.828,2.305 1.008,2.954c0.54,-0.216 1.332,-0.432 4.536,-0.829c-1.116,1.657 -2.124,2.951 -2.592,3.49c-1.116,1.333 -1.944,2.163 -2.736,2.379c0.36,0.864 0.864,2.446 1.044,3.093c0.72,-0.36 1.872,-0.611 8.712,-1.654c0.144,0.683 0.252,1.294 0.324,1.833l2.628,-0.79Zm-11.232,1.943c-0.288,3.025 -0.792,6.265 -1.62,8.498c0.684,0.18 1.944,0.576 2.52,0.9c0.756,-2.268 1.404,-5.725 1.728,-8.93l-2.628,-0.468Zm3.636,0.396c0.36,2.413 0.684,5.581 0.72,7.67l2.556,-0.504c-0.072,-2.089 -0.432,-5.186 -0.864,-7.598l-2.412,0.432Zm3.42,-0.684c0.648,1.728 1.296,3.997 1.548,5.509l2.34,-0.792c-0.288,-1.476 -0.972,-3.673 -1.656,-5.401l-2.232,0.684Zm10.728,-3.74l-0.504,0.108l-5.256,0l0,2.731l3.96,0c-1.224,3.133 -3.456,5.726 -5.94,7.058c0.576,0.577 1.476,1.657 1.908,2.341c3.672,-2.125 6.588,-6.086 7.776,-11.555l-1.944,-0.683Zm-1.368,-7.781l10.224,0l0,2.597l-10.224,0l0,-2.597Zm0,-4.968l10.224,0l0,2.561l-10.224,0l0,-2.561Zm12.132,11.126c-0.936,1.154 -2.34,2.665 -3.672,3.887c-0.576,-1.114 -1.008,-2.3 -1.404,-3.562l0,-1.263l6.444,0l0,-12.775l-7.92,0c0.54,-0.936 1.044,-2.016 1.548,-3.06l-3.78,-0.756c-0.252,1.116 -0.684,2.592 -1.152,3.816l-5.328,0l0,12.775l6.984,0l0,12.963c0,0.396 -0.108,0.504 -0.576,0.54c-0.432,0.036 -1.944,0.036 -3.456,-0.036c0.396,0.828 0.828,2.16 0.936,3.06c2.268,0 3.888,-0.036 4.932,-0.54c1.044,-0.504 1.368,-1.404 1.368,-2.988l0,-5.15c1.548,3.061 3.6,5.582 6.048,7.166c0.504,-0.828 1.476,-2.052 2.196,-2.629c-2.196,-1.152 -4.104,-3.06 -5.58,-5.329c1.512,-1.152 3.276,-2.663 4.896,-4.065l-2.484,-2.054Z" style="fill:#dd5c68;fill-rule:nonzero;"/><path d="M1045.6,499.076c-1.152,-1.656 -3.528,-4.068 -5.58,-5.76l-2.484,1.584c2.016,1.8 4.356,4.284 5.4,5.94l2.664,-1.764Zm-22.788,-5.976c-2.304,5.544 -6.156,10.944 -10.152,14.328c0.576,0.756 1.584,2.52 1.908,3.348c1.512,-1.368 2.952,-2.952 4.32,-4.716l0,19.692l3.456,0l0,-24.624c1.368,-2.232 2.628,-4.608 3.636,-6.984l-3.168,-1.044Zm23.4,12.132l-0.432,-3.132l-10.548,1.332c-0.288,-3.096 -0.468,-6.516 -0.576,-10.116l-3.384,0c0.144,3.78 0.36,7.308 0.648,10.584l-8.064,1.008l0.504,3.168l7.884,-1.008c1.368,11.052 4.176,18.18 10.188,18.684c1.908,0.108 3.564,-1.656 4.392,-8.172c-0.648,-0.252 -2.124,-1.152 -2.772,-1.836c-0.324,4.068 -0.864,6.048 -1.764,6.012c-3.42,-0.396 -5.58,-6.336 -6.732,-15.156l10.656,-1.368Z" style="fill:#dd5c68;fill-rule:nonzero;"/><path d="M1077.96,510.416c-1.44,1.476 -3.78,3.276 -5.832,4.644c-1.368,-1.692 -2.448,-3.6 -3.312,-5.688l12.636,0l0,-2.88l-13.968,0l0,-2.7l11.34,0l0,-2.7l-11.34,0l0,-2.52l12.816,0l0,-2.88l-12.816,0l0,-2.88l-3.348,0l0,2.88l-12.384,0l0,2.88l12.384,0l0,2.52l-10.584,0l0,2.7l10.584,0l0,2.7l-13.86,0l0,2.88l11.088,0c-3.276,2.772 -7.956,5.292 -12.24,6.624c0.756,0.684 1.728,1.908 2.232,2.7c1.836,-0.684 3.708,-1.548 5.58,-2.592l0,4.14c0,1.476 -0.9,2.232 -1.548,2.556c0.54,0.684 1.188,2.16 1.44,3.024c0.936,-0.648 2.376,-1.116 12.42,-4.212c-0.216,-0.72 -0.504,-2.052 -0.576,-2.952l-8.244,2.376l0,-7.128c1.908,-1.332 3.708,-2.808 5.148,-4.356c2.772,7.452 7.524,12.744 14.904,15.228c0.468,-0.9 1.44,-2.196 2.16,-2.916c-3.42,-0.972 -6.264,-2.628 -8.604,-4.752c2.16,-1.332 4.644,-3.024 6.696,-4.644l-2.772,-2.052Z" style="fill:#dd5c68;fill-rule:nonzero;"/><path d="M1095.03,493.748c-2.196,5.292 -5.94,10.548 -9.864,13.788c0.864,0.684 2.376,2.088 2.952,2.772c3.96,-3.636 8.028,-9.54 10.584,-15.408l-3.672,-1.152Zm10.548,19.404c1.26,1.8 2.664,3.888 3.996,5.976l-15.084,0.9c3.6,-4.14 7.2,-9.36 10.152,-14.616l-3.888,-1.584c-2.88,6.012 -7.452,12.276 -8.928,13.86c-1.404,1.656 -2.376,2.736 -3.456,3.024c0.504,0.972 1.188,2.844 1.332,3.6c1.584,-0.612 3.744,-0.756 21.78,-2.088c0.792,1.296 1.404,2.448 1.908,3.492l3.384,-1.836c-1.692,-3.24 -5.076,-8.28 -7.956,-12.168l-3.24,1.44Zm-4.896,-19.476l0,3.42l6.264,0c1.98,5.112 5.292,10.152 9.36,13.212c0.612,-1.044 1.8,-2.556 2.592,-3.312c-4.284,-2.664 -7.74,-7.92 -9.396,-13.32l-8.82,0Z" style="fill:#dd5c68;fill-rule:nonzero;"/><path d="M1139.16,510.629l0,5.873l-10.44,0l0,-5.873l10.44,0Zm3.276,8.784l0,-11.659l-16.956,0l0,14.29l3.24,0l0,-2.631l13.716,0Zm2.232,-17.959l-21.276,0l0,2.947l21.276,0l0,-2.947Zm7.308,-6.444l-28.872,0l0,3.199l25.452,0l0,22.97c0,0.685 -0.216,0.865 -0.9,0.901c-0.684,0.036 -3.096,0.036 -5.4,-0.072c0.468,0.972 1.008,2.664 1.152,3.636c3.204,0.036 5.436,-0.036 6.804,-0.648c1.332,-0.54 1.764,-1.656 1.764,-3.781l0,-26.205Z" style="fill:#dd5c68;fill-rule:nonzero;"/><g transform="matrix(1.28969,0,0,1.28969,672.145,409.667)"><g transform="matrix(24,0,0,24,-12,0)"><path d="M0.74,-0.271l0,0.221l-0.483,0l0,-0.221l0.483,0Zm-0.558,0.347l0.075,0l0,-0.054l0.483,0l0,0.052l0.078,0l0,-0.416l-0.636,0l0,0.418Zm0.416,-0.761c0.048,0.043 0.099,0.095 0.145,0.147l-0.51,0.025c0.088,-0.083 0.177,-0.186 0.256,-0.294l-0.073,-0.033c-0.078,0.124 -0.194,0.25 -0.23,0.282c-0.033,0.033 -0.059,0.055 -0.081,0.059c0.008,0.02 0.021,0.057 0.024,0.073c0.039,-0.014 0.097,-0.016 0.668,-0.048c0.025,0.031 0.046,0.06 0.061,0.086l0.063,-0.045c-0.052,-0.083 -0.167,-0.205 -0.264,-0.29l-0.059,0.038Z" style="fill:#007099;fill-rule:nonzero;"/></g><g transform="matrix(24,0,0,24,12,0)"><path d="M0.411,-0.294c-0.019,-0.022 -0.101,-0.106 -0.132,-0.136l0,-0.061l0.113,0l0,-0.035l0.564,0l0,-0.051l-0.252,0l0,-0.054l0.202,0l0,-0.048l-0.202,0l0,-0.052l0.227,0l0,-0.05l-0.227,0l0,-0.055l-0.074,0l0,0.055l-0.212,0l0,0.05l0.212,0l0,0.052l-0.19,0l0,0.048l0.19,0l0,0.054l-0.243,0l0,0.016l-0.108,0l0,-0.167c0.046,-0.011 0.09,-0.023 0.126,-0.038l-0.052,-0.056c-0.07,0.031 -0.197,0.057 -0.305,0.074c0.009,0.016 0.02,0.041 0.023,0.057c0.043,-0.005 0.09,-0.013 0.136,-0.021l0,0.151l-0.153,0l0,0.07l0.147,0c-0.039,0.115 -0.109,0.246 -0.173,0.317c0.012,0.018 0.03,0.047 0.038,0.068c0.05,-0.06 0.101,-0.157 0.141,-0.257l0,0.437l0.072,0l0,-0.43c0.033,0.041 0.072,0.093 0.088,0.121l0.044,-0.059Zm0.111,0.094l0.307,0l0,0.067l-0.307,0l0,-0.067Zm0,-0.113l0.307,0l0,0.065l-0.307,0l0,-0.065Zm0,-0.112l0.307,0l0,0.063l-0.307,0l0,-0.063Zm0.377,0.342l0,-0.392l-0.445,0l0,0.392l0.445,0Zm-0.333,0.005c-0.047,0.041 -0.141,0.086 -0.223,0.11c0.015,0.012 0.037,0.034 0.048,0.048c0.082,-0.025 0.178,-0.073 0.237,-0.121l-0.062,-0.037Zm0.157,0.04c0.064,0.038 0.136,0.085 0.176,0.115l0.065,-0.036c-0.047,-0.032 -0.124,-0.078 -0.191,-0.116l-0.05,0.037Z" style="fill:#007099;fill-rule:nonzero;"/></g><g transform="matrix(24,0,0,24,36,0)"><path d="M0.461,-0.4l0.072,0l0,-0.227l0.316,0l0,0.161l0.073,0l0,-0.214l-0.389,0l0,-0.064l0.343,0l0,-0.053l-0.754,0l0,0.053l0.339,0l0,0.064l-0.382,0l0,0.214l0.071,0l0,-0.161l0.311,0l0,0.227Zm0.364,-0.045c-0.054,-0.019 -0.156,-0.04 -0.232,-0.049l-0.018,0.045c0.078,0.012 0.179,0.036 0.233,0.055l0.017,-0.051Zm-0.048,-0.167c-0.048,0.017 -0.132,0.048 -0.189,0.06l0.026,0.039c0.057,-0.012 0.138,-0.033 0.195,-0.057l-0.032,-0.042Zm-0.584,0.045c0.066,0.013 0.149,0.037 0.193,0.058l0.022,-0.046c-0.045,-0.019 -0.128,-0.042 -0.192,-0.052l-0.023,0.04Zm-0.003,0.17c0.065,-0.012 0.141,-0.028 0.218,-0.044l-0.003,-0.047c-0.088,0.014 -0.174,0.027 -0.237,0.033l0.022,0.058Zm0.047,0.275l0,-0.069l0.221,0l0,0.069l-0.221,0Zm0.221,-0.187l0,0.068l-0.221,0l0,-0.068l0.221,0Zm0.308,0.068l-0.236,0l0,-0.068l0.236,0l0,0.068Zm-0.236,0.119l0,-0.069l0.236,0l0,0.069l-0.236,0Zm0.074,0.125c-0.062,0 -0.074,-0.006 -0.074,-0.04l0,-0.031l0.309,0l0,-0.295l-0.674,0l0,0.347l0.072,0l0,-0.052l0.221,0l0,0.031c0,0.08 0.032,0.1 0.143,0.1l0.23,0c0.095,0 0.117,-0.031 0.128,-0.152c-0.021,-0.004 -0.048,-0.013 -0.065,-0.024c-0.005,0.099 -0.015,0.116 -0.068,0.116l-0.222,0Z" style="fill:#007099;fill-rule:nonzero;"/></g><g transform="matrix(20,0,0,20,-13.86,26)"><path d="M0.239,0.197l0.057,-0.027c-0.087,-0.142 -0.128,-0.311 -0.128,-0.481c0,-0.17 0.041,-0.338 0.128,-0.481l-0.057,-0.026c-0.092,0.149 -0.147,0.311 -0.147,0.507c0,0.197 0.055,0.358 0.147,0.508Z" style="fill:#007099;fill-rule:nonzero;"/></g><g transform="matrix(20,0,0,20,-7.1,26)"><path d="M0.289,-0.705l-0.038,0.029c0.034,0.031 0.076,0.074 0.095,0.102l0.049,-0.041c-0.019,-0.025 -0.057,-0.062 -0.09,-0.09l0.189,0l0,-0.06l-0.256,0c0.01,-0.02 0.019,-0.04 0.027,-0.06l-0.065,-0.018c-0.034,0.083 -0.09,0.163 -0.151,0.218c0.016,0.012 0.042,0.036 0.052,0.049c0.036,-0.035 0.071,-0.079 0.102,-0.129l0.086,0Zm0.169,0.367l0,0.093l-0.24,0c0.005,-0.029 0.01,-0.062 0.015,-0.093l0.225,0Zm0.073,-0.155l0.262,0l0,0.092l-0.262,0l0,-0.092Zm0,0.248l0,-0.093l0.335,0l0,-0.218l-0.731,0l0,0.063l0.323,0l0,0.092l-0.288,0c-0.008,0.071 -0.022,0.16 -0.035,0.22l0.264,0c-0.082,0.085 -0.209,0.162 -0.325,0.2c0.017,0.014 0.037,0.041 0.048,0.059c0.119,-0.046 0.248,-0.132 0.336,-0.231l0,0.23l0.073,0l0,-0.258l0.288,0c-0.01,0.09 -0.021,0.129 -0.034,0.143c-0.009,0.007 -0.019,0.008 -0.036,0.008c-0.018,0 -0.064,0 -0.113,-0.005c0.011,0.019 0.019,0.047 0.02,0.069c0.051,0.002 0.1,0.002 0.126,0c0.027,-0.001 0.046,-0.007 0.062,-0.025c0.026,-0.024 0.039,-0.085 0.053,-0.223c0.001,-0.011 0.002,-0.031 0.002,-0.031l-0.368,0Zm0.119,-0.519c0.009,-0.021 0.018,-0.041 0.026,-0.063l-0.069,-0.016c-0.024,0.072 -0.069,0.14 -0.124,0.186c0.016,0.009 0.044,0.032 0.056,0.044c0.027,-0.026 0.053,-0.057 0.076,-0.092l0.112,0l-0.043,0.035c0.036,0.029 0.08,0.071 0.103,0.097l0.049,-0.042c-0.022,-0.026 -0.064,-0.062 -0.099,-0.09l0.215,0l0,-0.059l-0.302,0Z" style="fill:#007099;fill-rule:nonzero;"/></g><g transform="matrix(20,0,0,20,12.9,26)"><path d="M0.088,0l0.402,0l0,-0.076l-0.147,0l0,-0.657l-0.07,0c-0.04,0.023 -0.087,0.04 -0.152,0.052l0,0.058l0.13,0l0,0.547l-0.163,0l0,0.076Z" style="fill:#007099;fill-rule:nonzero;"/></g><g transform="matrix(20,0,0,20,24,26)"><path d="M0.044,0l0.461,0l0,-0.079l-0.203,0c-0.037,0 -0.082,0.004 -0.12,0.007c0.172,-0.163 0.287,-0.312 0.287,-0.458c0,-0.131 -0.082,-0.217 -0.213,-0.217c-0.093,0 -0.156,0.043 -0.216,0.108l0.053,0.052c0.04,-0.048 0.092,-0.085 0.152,-0.085c0.091,0 0.135,0.061 0.135,0.145c0,0.126 -0.106,0.272 -0.336,0.473l0,0.054Z" style="fill:#007099;fill-rule:nonzero;"/></g><g transform="matrix(20,0,0,20,35.1,26)"><path d="M0.327,-0.044l0,-0.227l0.444,0l0,0.227l-0.444,0Zm0.405,-0.625c-0.057,0.084 -0.14,0.158 -0.236,0.218c-0.049,-0.047 -0.133,-0.11 -0.201,-0.158c0.023,-0.02 0.046,-0.039 0.067,-0.06l0.37,0Zm0.115,0.329l-0.397,0c0.166,-0.088 0.31,-0.211 0.392,-0.37l-0.05,-0.031l-0.012,0.004l-0.354,0c0.025,-0.028 0.046,-0.057 0.065,-0.085l-0.083,-0.018c-0.06,0.095 -0.173,0.206 -0.334,0.284c0.016,0.011 0.04,0.039 0.051,0.056c0.04,-0.02 0.077,-0.043 0.112,-0.067c0.066,0.049 0.142,0.109 0.19,0.157c-0.118,0.064 -0.25,0.111 -0.377,0.137c0.015,0.016 0.032,0.048 0.038,0.068c0.055,-0.013 0.111,-0.029 0.166,-0.048l0,0.329l0.073,0l0,-0.052l0.444,0l0,0.052l0.076,0l0,-0.416Z" style="fill:#007099;fill-rule:nonzero;"/></g><g transform="matrix(20,0,0,20,55.1,26)"><path d="M0.099,0.197c0.093,-0.15 0.148,-0.311 0.148,-0.508c0,-0.196 -0.055,-0.358 -0.148,-0.507l-0.056,0.026c0.086,0.143 0.128,0.311 0.128,0.481c0,0.17 -0.042,0.339 -0.128,0.481l0.056,0.027Z" style="fill:#007099;fill-rule:nonzero;"/></g></g><rect x="283.922" y="419.146" width="150.671" height="42.199" style="fill:#261b1b;"/><g transform="matrix(1.07011,0,0,1.07011,333.666,410.137)"><g transform="matrix(28.9691,0,0,28.9691,-4.96907,0)"><path d="M0.345,-0.77c-0.014,0.063 -0.045,0.157 -0.068,0.213l0.048,0.017c0.026,-0.052 0.058,-0.139 0.084,-0.208l-0.064,-0.022Zm-0.182,0.21c-0.01,-0.057 -0.034,-0.143 -0.056,-0.21l-0.055,0.013c0.021,0.067 0.044,0.154 0.054,0.211l0.057,-0.014Zm-0.03,0.185c-0.018,0.089 -0.062,0.2 -0.103,0.258c0.012,0.019 0.029,0.052 0.036,0.073c0.052,-0.069 0.095,-0.206 0.116,-0.315l-0.049,-0.016Zm0.25,-0.058l0,-0.069l-0.123,0l0,-0.333l-0.067,0l0,0.332l-0.146,0l0,0.07l0.146,0l0,0.51l0.067,0l0,-0.51l0.123,0Zm-0.111,0.087c0.02,0.039 0.073,0.158 0.09,0.207l0.051,-0.055c-0.014,-0.03 -0.082,-0.154 -0.1,-0.18l-0.041,0.028Zm0.254,0.207c0.002,-0.026 0.003,-0.051 0.003,-0.074l0.3,0l0,0.074l-0.303,0Zm0.303,-0.201l0,0.074l-0.3,0l0,-0.074l0.3,0Zm0.07,-0.059l-0.438,0l0,0.184c0,0.079 -0.007,0.18 -0.066,0.255c0.015,0.008 0.041,0.035 0.052,0.049c0.041,-0.049 0.061,-0.112 0.072,-0.175l0.31,0l0,0.085c0,0.011 -0.003,0.015 -0.016,0.015c-0.012,0.001 -0.053,0.001 -0.098,-0.001c0.009,0.018 0.018,0.043 0.021,0.062c0.063,0 0.104,0 0.129,-0.011c0.027,-0.011 0.034,-0.029 0.034,-0.065l0,-0.398Zm-0.188,-0.116l0,-0.068l0.218,0l0,-0.054l-0.218,0l0,-0.061l0.236,0l0,-0.057l-0.236,0l0,-0.081l-0.073,0l0,0.081l-0.225,0l0,0.057l0.225,0l0,0.061l-0.2,0l0,0.054l0.2,0l0,0.068l-0.236,0l0,0.057l0.555,0l0,-0.057l-0.246,0Z" style="fill:#261b1b;fill-rule:nonzero;"/></g><g transform="matrix(28.9691,0,0,28.9691,24,0)"><path d="M0.378,-0.542l0.158,0l0,0.123l-0.158,0l0,-0.123Zm0,0.185l0.158,0l0,0.125l-0.158,0l0,-0.125Zm0,-0.369l0.158,0l0,0.122l-0.158,0l0,-0.122Zm-0.064,-0.066l0,0.625l0.289,0l0,-0.625l-0.289,0Zm0.176,0.674c0.04,0.049 0.089,0.117 0.111,0.159l0.059,-0.037c-0.023,-0.04 -0.073,-0.106 -0.114,-0.153l-0.056,0.031Zm-0.135,-0.028c-0.029,0.068 -0.08,0.138 -0.133,0.184c0.016,0.01 0.046,0.03 0.058,0.041c0.053,-0.05 0.11,-0.13 0.144,-0.207l-0.069,-0.018Zm0.497,-0.69l0,0.82c0,0.017 -0.007,0.022 -0.024,0.022c-0.015,0.001 -0.068,0.002 -0.127,0c0.01,0.019 0.019,0.051 0.022,0.07c0.082,0 0.129,-0.002 0.157,-0.014c0.028,-0.012 0.039,-0.033 0.039,-0.079l0,-0.819l-0.067,0Zm-0.174,0.102l0,0.568l0.066,0l0,-0.568l-0.066,0Zm-0.594,-0.039c0.056,0.028 0.125,0.074 0.157,0.107l0.044,-0.059c-0.034,-0.033 -0.102,-0.075 -0.158,-0.101l-0.043,0.053Zm-0.043,0.267c0.059,0.026 0.13,0.068 0.164,0.099l0.042,-0.061c-0.035,-0.031 -0.106,-0.069 -0.164,-0.092l-0.042,0.054Zm0.021,0.53l0.067,0.04c0.043,-0.092 0.093,-0.214 0.13,-0.318l-0.059,-0.039c-0.041,0.112 -0.098,0.24 -0.138,0.317Z" style="fill:#261b1b;fill-rule:nonzero;"/></g><g transform="matrix(24.0949,0,0,24.0949,-36.2374,38.255)"><path d="M0.318,-0.496c0.078,-0.017 0.162,-0.037 0.244,-0.062c0.072,0.022 0.14,0.043 0.193,0.062l-0.437,0Zm0.403,-0.183c-0.042,0.021 -0.095,0.04 -0.154,0.058c-0.076,-0.021 -0.155,-0.041 -0.228,-0.058l0.382,0Zm-0.09,0.653l0,-0.082l0.233,0l0,-0.073l-0.233,0l0,-0.073l0.259,0l0,-0.074l-0.259,0l0,-0.074l-0.092,0l0,0.074l-0.149,0c0.009,-0.019 0.017,-0.037 0.024,-0.056l-0.08,-0.023c-0.027,0.076 -0.074,0.148 -0.127,0.198c0.003,-0.032 0.004,-0.063 0.004,-0.092l0,-0.119l0.733,0l0,-0.076l-0.145,0l0.046,-0.04c-0.049,-0.017 -0.111,-0.037 -0.178,-0.056c0.052,-0.019 0.1,-0.039 0.141,-0.059l-0.044,-0.028l0.149,0l0,-0.073l-0.339,0c-0.016,-0.03 -0.045,-0.068 -0.07,-0.096l-0.065,0.031c0.016,0.019 0.032,0.042 0.046,0.065l-0.356,0l0,0.073l0.165,0l-0.051,0.039c0.066,0.014 0.138,0.032 0.21,0.052c-0.082,0.02 -0.169,0.039 -0.245,0.052c0.012,0.009 0.028,0.026 0.041,0.04l-0.128,0l0,0.194c0,0.101 -0.009,0.236 -0.089,0.332c0.018,0.009 0.057,0.042 0.071,0.059c0.069,-0.081 0.095,-0.195 0.104,-0.298c0.015,0.019 0.038,0.065 0.045,0.082c0.036,-0.033 0.07,-0.078 0.099,-0.127l0.188,0l0,0.073l-0.222,0l0,0.073l0.222,0l0,0.082l-0.314,0l0,0.076l0.733,0l0,-0.076l-0.327,0Z" style="fill:#fff;fill-rule:nonzero;"/></g><g transform="matrix(24.0949,0,0,24.0949,-12.1424,38.255)"><path d="M0.347,-0.111c-0.064,0.041 -0.185,0.078 -0.286,0.093c0.019,0.017 0.043,0.048 0.056,0.068c0.103,-0.023 0.228,-0.075 0.298,-0.129l-0.068,-0.032Zm0.252,0.041c0.091,0.035 0.213,0.088 0.275,0.119l0.062,-0.054c-0.067,-0.032 -0.189,-0.08 -0.277,-0.112l-0.06,0.047Zm0.053,-0.524c-0.014,0.026 -0.037,0.064 -0.056,0.089l0.036,0.011l-0.273,0l0.045,-0.012c-0.008,-0.023 -0.027,-0.06 -0.047,-0.088l0.295,0Zm-0.108,0.363l0,-0.06l0.307,0l0,-0.07l-0.307,0l0,-0.06l0.354,0l0,-0.073l-0.212,0c0.02,-0.023 0.043,-0.05 0.065,-0.08l-0.078,-0.02l0.262,0l0,-0.074l-0.143,0c0.026,-0.037 0.056,-0.087 0.083,-0.136l-0.096,-0.025c-0.015,0.045 -0.046,0.108 -0.07,0.148l0.039,0.013l-0.109,0l0,-0.172l-0.088,0l0,0.172l-0.099,0l0,-0.172l-0.087,0l0,0.172l-0.112,0l0.053,-0.02c-0.014,-0.039 -0.049,-0.1 -0.08,-0.143l-0.081,0.028c0.028,0.041 0.058,0.096 0.073,0.135l-0.149,0l0,0.074l0.255,0l-0.058,0.014c0.017,0.026 0.034,0.061 0.044,0.086l-0.201,0l0,0.073l0.344,0l0,0.06l-0.295,0l0,0.07l0.295,0l0,0.06l-0.388,0l0,0.078l0.388,0l0,0.232l0.091,0l0,-0.232l0.394,0l0,-0.078l-0.394,0Z" style="fill:#fff;fill-rule:nonzero;"/></g><g transform="matrix(24.0949,0,0,24.0949,11.9525,38.255)"><path d="M0.546,-0.331l0,-0.242l0.26,0l0,0.242l-0.26,0Zm-0.356,0l0,-0.242l0.259,0l0,0.242l-0.259,0Zm0.356,-0.333l0,-0.174l-0.097,0l0,0.174l-0.352,0l0,0.483l0.093,0l0,-0.059l0.259,0l0,0.318l0.097,0l0,-0.318l0.26,0l0,0.054l0.097,0l0,-0.478l-0.357,0Z" style="fill:#fff;fill-rule:nonzero;"/></g><g transform="matrix(24.0949,0,0,24.0949,36.0475,38.255)"><path d="M0.7,-0.695c-0.01,-0.043 -0.031,-0.105 -0.05,-0.154l-0.088,0.022c0.019,0.05 0.039,0.116 0.046,0.158l0.092,-0.026Zm0.213,0.031l-0.545,0l0,0.09l0.545,0l0,-0.09Zm-0.327,0.548c-0.01,-0.101 -0.041,-0.275 -0.072,-0.41l-0.083,0.019c0.028,0.136 0.055,0.314 0.063,0.418l0.092,-0.027Zm-0.309,-0.719c-0.053,0.146 -0.142,0.292 -0.237,0.385c0.016,0.022 0.043,0.072 0.052,0.094c0.028,-0.029 0.056,-0.062 0.082,-0.099l0,0.532l0.094,0l0,-0.678c0.037,-0.067 0.071,-0.137 0.097,-0.207l-0.088,-0.027Zm0.484,0.784c0.036,-0.128 0.074,-0.314 0.101,-0.465l-0.097,-0.016c-0.017,0.147 -0.054,0.349 -0.09,0.481l-0.347,0l0,0.089l0.622,0l0,-0.089l-0.189,0Z" style="fill:#fff;fill-rule:nonzero;"/></g><g transform="matrix(24.0949,0,0,24.0949,60.1424,38.255)"><path d="M0.417,-0.17c-0.012,0.029 -0.033,0.06 -0.078,0.088c-0.037,-0.015 -0.077,-0.03 -0.114,-0.042c0.009,-0.012 0.017,-0.023 0.025,-0.036l0.167,-0.009Zm-0.249,-0.233l0.106,0l0,0.05l-0.106,0l0,-0.05Zm0.285,0l0,0.05l-0.107,0l0,-0.05l0.107,0Zm-0.258,-0.157l0,-0.049l0.079,0l0,0.049l-0.079,0Zm0.079,-0.153l0,0.044l-0.079,0l0,-0.044l0.079,0Zm0.156,0l0,0.044l-0.084,0l0,-0.044l0.084,0Zm-0.084,0.153l0,-0.049l0.084,0l0,0.049l-0.084,0Zm0.185,0.569c-0.031,-0.018 -0.071,-0.039 -0.115,-0.06c0.05,-0.039 0.071,-0.083 0.08,-0.124l0.047,-0.003l0.001,-0.061l-0.042,0.002l0,-0.038l-0.074,0l0,0.042l-0.135,0.006c0.013,-0.022 0.025,-0.044 0.037,-0.067l0.204,0l0,-0.169l-0.188,0l0,-0.035l0.165,0l0,-0.107l0.069,0l0,-0.069l-0.069,0l0,-0.1l-0.165,0l0,-0.066l-0.072,0l0,0.066l-0.156,0l0,0.1l-0.071,0l0,0.069l0.071,0l0,0.107l0.156,0l0,0.035l-0.183,0l0,0.169l0.155,0c-0.011,0.024 -0.026,0.047 -0.041,0.072c-0.058,0.002 -0.112,0.005 -0.156,0.006l0.007,0.066l0.105,-0.006c-0.016,0.023 -0.032,0.044 -0.048,0.062c0.047,0.014 0.097,0.031 0.146,0.051c-0.056,0.021 -0.13,0.041 -0.229,0.057c0.014,0.015 0.03,0.043 0.036,0.06c0.126,-0.02 0.215,-0.048 0.28,-0.08c0.049,0.023 0.093,0.046 0.125,0.067l0.06,-0.053Zm0.277,-0.579c-0.011,0.101 -0.026,0.192 -0.051,0.271c-0.027,-0.082 -0.047,-0.174 -0.06,-0.271l0.111,0Zm0.147,0l0,-0.082l-0.24,0c0.012,-0.055 0.021,-0.113 0.029,-0.171l-0.079,-0.01c-0.02,0.168 -0.056,0.333 -0.123,0.438c0.018,0.013 0.049,0.043 0.061,0.058c0.017,-0.028 0.032,-0.059 0.047,-0.094c0.017,0.086 0.038,0.165 0.067,0.236c-0.042,0.088 -0.102,0.159 -0.186,0.211c0.016,0.016 0.041,0.052 0.048,0.069c0.076,-0.052 0.135,-0.115 0.179,-0.192c0.04,0.073 0.09,0.131 0.152,0.175c0.012,-0.022 0.035,-0.05 0.054,-0.065c-0.069,-0.043 -0.123,-0.11 -0.164,-0.194c0.045,-0.106 0.071,-0.231 0.087,-0.379l0.068,0Z" style="fill:#fff;fill-rule:nonzero;"/></g></g><g transform="matrix(1.28781,0,0,1.28781,75.2704,409.723)"><g transform="matrix(24,0,0,24,3.55271e-15,0)"><path d="M0.7,-0.534l-0.397,0l0,-0.189l0.397,0l0,0.189Zm0.075,-0.26l-0.544,0l0,0.331l0.544,0l0,-0.331Zm-0.409,0.508l0,0.237l-0.209,0l0,-0.237l0.209,0Zm-0.28,0.363l0.071,0l0,-0.054l0.209,0l0,0.045l0.073,0l0,-0.426l-0.353,0l0,0.435Zm0.534,-0.126l0,-0.237l0.227,0l0,0.237l-0.227,0Zm-0.072,-0.309l0,0.435l0.072,0l0,-0.054l0.227,0l0,0.047l0.073,0l0,-0.428l-0.372,0Z" style="fill:#007099;fill-rule:nonzero;"/></g><g transform="matrix(24,0,0,24,24,0)"><path d="M0.17,-0.652l0.657,0l0,0.131l0.077,0l0,-0.2l-0.344,0c-0.015,-0.035 -0.041,-0.084 -0.062,-0.122l-0.079,0.02c0.017,0.031 0.035,0.07 0.049,0.102l-0.372,0l0,0.2l0.074,0l0,-0.131Zm0.473,0.287c-0.026,0.076 -0.061,0.138 -0.108,0.188c-0.075,-0.029 -0.151,-0.058 -0.223,-0.081c0.022,-0.032 0.044,-0.068 0.067,-0.107l0.264,0Zm0.288,0l0,-0.071l-0.183,0c0.007,-0.028 0.013,-0.059 0.018,-0.091l-0.087,-0.008c-0.005,0.035 -0.011,0.068 -0.018,0.099l-0.243,0c0.029,-0.054 0.055,-0.108 0.075,-0.159l-0.083,-0.015c-0.021,0.054 -0.05,0.114 -0.083,0.174l-0.256,0l0,0.071l0.217,0c-0.032,0.053 -0.064,0.102 -0.093,0.141c0.087,0.028 0.184,0.063 0.277,0.102c-0.093,0.067 -0.222,0.105 -0.394,0.127c0.016,0.019 0.04,0.054 0.047,0.074c0.187,-0.032 0.327,-0.081 0.428,-0.166c0.124,0.054 0.236,0.113 0.31,0.163l0.056,-0.065c-0.076,-0.049 -0.187,-0.105 -0.307,-0.156c0.051,-0.058 0.089,-0.131 0.117,-0.22l0.202,0Z" style="fill:#007099;fill-rule:nonzero;"/></g><g transform="matrix(20,0,0,20,-19.41,26)"><path d="M0.239,0.197l0.057,-0.027c-0.087,-0.142 -0.128,-0.311 -0.128,-0.481c0,-0.17 0.041,-0.338 0.128,-0.481l-0.057,-0.026c-0.092,0.149 -0.147,0.311 -0.147,0.507c0,0.197 0.055,0.358 0.147,0.508Z" style="fill:#007099;fill-rule:nonzero;"/></g><g transform="matrix(20,0,0,20,-12.65,26)"><path d="M0.289,-0.705l-0.038,0.029c0.034,0.031 0.076,0.074 0.095,0.102l0.049,-0.041c-0.019,-0.025 -0.057,-0.062 -0.09,-0.09l0.189,0l0,-0.06l-0.256,0c0.01,-0.02 0.019,-0.04 0.027,-0.06l-0.065,-0.018c-0.034,0.083 -0.09,0.163 -0.151,0.218c0.016,0.012 0.042,0.036 0.052,0.049c0.036,-0.035 0.071,-0.079 0.102,-0.129l0.086,0Zm0.169,0.367l0,0.093l-0.24,0c0.005,-0.029 0.01,-0.062 0.015,-0.093l0.225,0Zm0.073,-0.155l0.262,0l0,0.092l-0.262,0l0,-0.092Zm0,0.248l0,-0.093l0.335,0l0,-0.218l-0.731,0l0,0.063l0.323,0l0,0.092l-0.288,0c-0.008,0.071 -0.022,0.16 -0.035,0.22l0.264,0c-0.082,0.085 -0.209,0.162 -0.325,0.2c0.017,0.014 0.037,0.041 0.048,0.059c0.119,-0.046 0.248,-0.132 0.336,-0.231l0,0.23l0.073,0l0,-0.258l0.288,0c-0.01,0.09 -0.021,0.129 -0.034,0.143c-0.009,0.007 -0.019,0.008 -0.036,0.008c-0.018,0 -0.064,0 -0.113,-0.005c0.011,0.019 0.019,0.047 0.02,0.069c0.051,0.002 0.1,0.002 0.126,0c0.027,-0.001 0.046,-0.007 0.062,-0.025c0.026,-0.024 0.039,-0.085 0.053,-0.223c0.001,-0.011 0.002,-0.031 0.002,-0.031l-0.368,0Zm0.119,-0.519c0.009,-0.021 0.018,-0.041 0.026,-0.063l-0.069,-0.016c-0.024,0.072 -0.069,0.14 -0.124,0.186c0.016,0.009 0.044,0.032 0.056,0.044c0.027,-0.026 0.053,-0.057 0.076,-0.092l0.112,0l-0.043,0.035c0.036,0.029 0.08,0.071 0.103,0.097l0.049,-0.042c-0.022,-0.026 -0.064,-0.062 -0.099,-0.09l0.215,0l0,-0.059l-0.302,0Z" style="fill:#007099;fill-rule:nonzero;"/></g><g transform="matrix(20,0,0,20,7.35,26)"><path d="M0.088,0l0.402,0l0,-0.076l-0.147,0l0,-0.657l-0.07,0c-0.04,0.023 -0.087,0.04 -0.152,0.052l0,0.058l0.13,0l0,0.547l-0.163,0l0,0.076Z" style="fill:#007099;fill-rule:nonzero;"/></g><g transform="matrix(20,0,0,20,18.45,26)"><path d="M0.115,-0.275l0.167,-0.25c0.021,-0.036 0.041,-0.072 0.059,-0.108l0.004,0c-0.002,0.038 -0.006,0.097 -0.006,0.133l0,0.225l-0.224,0Zm0.408,0l-0.097,0l0,-0.458l-0.101,0l-0.305,0.471l0,0.06l0.319,0l0,0.202l0.087,0l0,-0.202l0.097,0l0,-0.073Z" style="fill:#007099;fill-rule:nonzero;"/></g><g transform="matrix(20,0,0,20,29.55,26)"><path d="M0.261,0.013c0.124,0 0.24,-0.091 0.24,-0.252c0,-0.161 -0.099,-0.233 -0.221,-0.233c-0.044,0 -0.077,0.011 -0.109,0.029l0.018,-0.212l0.277,0l0,-0.078l-0.357,0l-0.023,0.343l0.049,0.03c0.042,-0.028 0.073,-0.043 0.122,-0.043c0.092,0 0.152,0.062 0.152,0.167c0,0.107 -0.07,0.173 -0.156,0.173c-0.085,0 -0.138,-0.039 -0.18,-0.081l-0.045,0.06c0.049,0.049 0.119,0.097 0.233,0.097Z" style="fill:#007099;fill-rule:nonzero;"/></g><g transform="matrix(20,0,0,20,40.65,26)"><path d="M0.327,-0.044l0,-0.227l0.444,0l0,0.227l-0.444,0Zm0.405,-0.625c-0.057,0.084 -0.14,0.158 -0.236,0.218c-0.049,-0.047 -0.133,-0.11 -0.201,-0.158c0.023,-0.02 0.046,-0.039 0.067,-0.06l0.37,0Zm0.115,0.329l-0.397,0c0.166,-0.088 0.31,-0.211 0.392,-0.37l-0.05,-0.031l-0.012,0.004l-0.354,0c0.025,-0.028 0.046,-0.057 0.065,-0.085l-0.083,-0.018c-0.06,0.095 -0.173,0.206 -0.334,0.284c0.016,0.011 0.04,0.039 0.051,0.056c0.04,-0.02 0.077,-0.043 0.112,-0.067c0.066,0.049 0.142,0.109 0.19,0.157c-0.118,0.064 -0.25,0.111 -0.377,0.137c0.015,0.016 0.032,0.048 0.038,0.068c0.055,-0.013 0.111,-0.029 0.166,-0.048l0,0.329l0.073,0l0,-0.052l0.444,0l0,0.052l0.076,0l0,-0.416Z" style="fill:#007099;fill-rule:nonzero;"/></g><g transform="matrix(20,0,0,20,60.65,26)"><path d="M0.099,0.197c0.093,-0.15 0.148,-0.311 0.148,-0.508c0,-0.196 -0.055,-0.358 -0.148,-0.507l-0.056,0.026c0.086,0.143 0.128,0.311 0.128,0.481c0,0.17 -0.042,0.339 -0.128,0.481l0.056,0.027Z" style="fill:#007099;fill-rule:nonzero;"/></g></g><rect x="42.279" y="95.365" width="997.652" height="43.003" style="fill:none;stroke:#dd5c68;stroke-width:1.81px;"/><rect x="42.279" y="180.286" width="1107.52" height="298.093" style="fill:none;stroke:#dd5c68;stroke-width:1.81px;"/></svg>