<?xml version="1.0" encoding="UTF-8" standalone="no"?><!DOCTYPE svg PUBLIC "-//W3C//DTD SVG 1.1//EN" "http://www.w3.org/Graphics/SVG/1.1/DTD/svg11.dtd"><svg width="100%" height="100%" viewBox="0 0 120 120" version="1.1" xmlns="http://www.w3.org/2000/svg" xmlns:xlink="http://www.w3.org/1999/xlink" xml:space="preserve" xmlns:serif="http://www.serif.com/" style="fill-rule:evenodd;clip-rule:evenodd;stroke-linejoin:round;stroke-miterlimit:2;"><path d="M94,120l-68,0c-14.36,0 -26,-11.641 -26,-26l0,-68c0,-14.359 11.64,-26 26,-26l68,0c14.359,0 26,11.641 26,26l0,68c0,14.359 -11.641,26 -26,26" style="fill:#00b900;fill-rule:nonzero;"/><path d="M103.496,54.724c0,-19.55 -19.6,-35.456 -43.691,-35.456c-24.09,0 -43.691,15.906 -43.691,35.456c0,17.526 15.543,32.205 36.539,34.98c1.423,0.307 3.36,0.938 3.849,2.155c0.441,1.104 0.288,2.835 0.141,3.95c0,0 -0.512,3.083 -0.623,3.74c-0.19,1.105 -0.878,4.321 3.785,2.356c4.663,-1.965 25.161,-14.816 34.328,-25.367l-0.002,0c6.332,-6.943 9.365,-13.99 9.365,-21.814" style="fill:#fff;fill-rule:nonzero;"/><path d="M50.928,45.276l-3.065,0c-0.47,0 -0.851,0.381 -0.851,0.85l0,19.037c0,0.469 0.381,0.849 0.851,0.849l3.065,0c0.47,0 0.851,-0.38 0.851,-0.849l0,-19.037c0,-0.469 -0.381,-0.85 -0.851,-0.85" style="fill:#00b900;fill-rule:nonzero;"/><path d="M72.021,45.276l-3.064,0c-0.47,0 -0.851,0.381 -0.851,0.85l0,11.31l-8.725,-11.782c-0.02,-0.03 -0.043,-0.059 -0.066,-0.086c-0.002,-0.002 -0.004,-0.004 -0.005,-0.005c-0.017,-0.019 -0.034,-0.037 -0.051,-0.053c-0.006,-0.005 -0.011,-0.01 -0.016,-0.014c-0.015,-0.013 -0.03,-0.027 -0.046,-0.038c-0.007,-0.007 -0.014,-0.012 -0.022,-0.017c-0.014,-0.011 -0.029,-0.021 -0.044,-0.031c-0.008,-0.006 -0.017,-0.01 -0.026,-0.015c-0.015,-0.009 -0.03,-0.018 -0.045,-0.026c-0.009,-0.004 -0.018,-0.009 -0.027,-0.013c-0.016,-0.007 -0.032,-0.014 -0.049,-0.02c-0.009,-0.004 -0.018,-0.007 -0.027,-0.01c-0.017,-0.007 -0.034,-0.012 -0.051,-0.017c-0.01,-0.002 -0.019,-0.005 -0.03,-0.007c-0.016,-0.005 -0.032,-0.008 -0.048,-0.011c-0.012,-0.002 -0.025,-0.004 -0.036,-0.005c-0.015,-0.003 -0.03,-0.004 -0.045,-0.006c-0.015,-0.001 -0.029,-0.002 -0.044,-0.003c-0.011,0 -0.02,-0.001 -0.03,-0.001l-3.064,0c-0.47,0 -0.851,0.381 -0.851,0.85l0,19.037c0,0.469 0.381,0.849 0.851,0.849l3.064,0c0.471,0 0.852,-0.38 0.852,-0.849l0,-11.306l8.734,11.796c0.061,0.085 0.135,0.155 0.216,0.21c0.003,0.002 0.007,0.004 0.009,0.007c0.017,0.011 0.035,0.022 0.053,0.031c0.008,0.005 0.015,0.009 0.024,0.014c0.013,0.007 0.026,0.014 0.041,0.02c0.014,0.006 0.026,0.011 0.041,0.017c0.009,0.003 0.017,0.007 0.025,0.01c0.021,0.007 0.04,0.013 0.058,0.019c0.005,0 0.009,0.002 0.013,0.003c0.069,0.018 0.142,0.028 0.218,0.028l3.064,0c0.471,0 0.852,-0.38 0.852,-0.849l0,-19.037c0,-0.469 -0.381,-0.85 -0.852,-0.85" style="fill:#00b900;fill-rule:nonzero;"/><path d="M43.54,61.245l-8.328,0l0,-15.119c0,-0.469 -0.38,-0.85 -0.85,-0.85l-3.065,0c-0.469,0 -0.851,0.381 -0.851,0.85l0,19.037c0,0.228 0.091,0.435 0.238,0.587c0.003,0.005 0.007,0.009 0.012,0.014c0.004,0.003 0.008,0.006 0.012,0.011c0.153,0.147 0.36,0.238 0.588,0.238l12.244,0c0.469,0 0.85,-0.382 0.85,-0.852l0,-3.064c0,-0.47 -0.381,-0.852 -0.85,-0.852" style="fill:#00b900;fill-rule:nonzero;"/><path d="M88.945,50.043c0.47,0 0.85,-0.381 0.85,-0.851l0,-3.064c0,-0.471 -0.38,-0.852 -0.85,-0.852l-12.244,0c-0.23,0 -0.437,0.092 -0.59,0.24c-0.003,0.004 -0.007,0.006 -0.01,0.009c-0.005,0.005 -0.01,0.01 -0.013,0.015c-0.146,0.152 -0.237,0.359 -0.237,0.586l0,19.037c0,0.229 0.092,0.435 0.239,0.587c0.003,0.005 0.007,0.01 0.011,0.014c0.004,0.003 0.009,0.008 0.013,0.01c0.152,0.148 0.359,0.239 0.587,0.239l12.244,0c0.47,0 0.85,-0.382 0.85,-0.852l0,-3.064c0,-0.47 -0.38,-0.852 -0.85,-0.852l-8.326,0l0,-3.218l8.326,0c0.47,0 0.85,-0.38 0.85,-0.851l0,-3.064c0,-0.47 -0.38,-0.852 -0.85,-0.852l-8.326,0l0,-3.217l8.326,0Z" style="fill:#00b900;fill-rule:nonzero;"/></svg>