<?xml version="1.0" encoding="UTF-8" standalone="no"?><!DOCTYPE svg PUBLIC "-//W3C//DTD SVG 1.1//EN" "http://www.w3.org/Graphics/SVG/1.1/DTD/svg11.dtd"><svg width="100%" height="100%" viewBox="0 0 200 100" version="1.1" xmlns="http://www.w3.org/2000/svg" xmlns:xlink="http://www.w3.org/1999/xlink" xml:space="preserve" xmlns:serif="http://www.serif.com/" style="fill-rule:evenodd;clip-rule:evenodd;stroke-linejoin:round;stroke-miterlimit:2;"><g id="scroll-arrow"><animateTransform attributeName="transform" attributeType="XML" dur="1.5s" keyTimes="0;0.2;0.6;0.8;1" repeatCount="indefinite" type="translate" values="0 0;0 2;0 8;0 2;0 0;" calcMode="linear"></animateTransform><path d="M93.662,59.684l6.338,5.064l6.338,-5.064l4.054,0l-10.392,8.303l-10.392,-8.303l4.054,0Z" style="fill:#00a2d7;fill-opacity:0.61;"/><path d="M93.662,68.271l6.338,5.063l6.338,-5.063l4.054,0l-10.392,8.303l-10.392,-8.303l4.054,0Z" style="fill:#00a2d7;fill-opacity:0.61;"/><path d="M93.662,51.098l6.338,5.063l6.338,-5.063l4.054,0l-10.392,8.303l-10.392,-8.303l4.054,0Z" style="fill:#00a2d7;fill-opacity:0.61;"/></g><path id="tip-text" d="M27.772,30.897l0,2.731l-3.527,0l0,-2.731l3.527,0Zm1.395,4.077l0,-5.407l-6.3,0l0,6.545l1.378,0l0,-1.138l4.922,0Zm3.46,-8.77l-7.033,0c0.407,-0.747 0.829,-1.64 1.187,-2.469l-1.918,-0.309c-0.195,0.829 -0.585,1.901 -0.942,2.778l-4.433,0l0,12.149l1.492,0l0,-10.673l10.138,0l0,8.806c0,0.277 -0.097,0.358 -0.422,0.374c-0.309,0.016 -1.431,0.016 -2.502,-0.032c0.227,0.421 0.454,1.119 0.519,1.541c1.462,0 2.47,-0.033 3.103,-0.26c0.6,-0.259 0.811,-0.73 0.811,-1.607l0,-10.298Z" style="fill:#404040;fill-rule:nonzero;"/><path d="M51.715,26.171l0,-1.543l-14.344,0l0,1.543l6.027,0l0,12.166l1.608,0l0,-8.17c1.754,0.974 3.785,2.241 4.824,3.118l1.105,-1.38c-1.251,-0.975 -3.801,-2.421 -5.653,-3.314l-0.276,0.325l0,-2.745l6.709,0Z" style="fill:#404040;fill-rule:nonzero;"/><path d="M60.291,25.618c-0.649,-0.553 -1.949,-1.396 -2.859,-1.948l-0.942,1.006c0.942,0.617 2.226,1.512 2.827,2.079l0.974,-1.137Zm-1.007,4.191c-0.633,-0.488 -1.884,-1.217 -2.761,-1.688l-0.877,1.054c0.893,0.536 2.128,1.317 2.729,1.804l0.909,-1.17Zm-1.722,8.236c0.764,-1.477 1.609,-3.362 2.258,-4.971l-1.218,-0.91c-0.731,1.771 -1.706,3.786 -2.42,4.989l1.38,0.892Zm5.377,-4.776c1.202,0.162 2.713,0.569 3.525,0.926l0.471,-1.04c-0.828,-0.341 -2.355,-0.699 -3.525,-0.812l-0.471,0.926Zm-0.341,-1.56l4.727,0l0,2.389c-1.819,0.39 -3.622,0.747 -4.889,0.991c0.13,-0.796 0.162,-1.576 0.162,-2.243l0,-1.137Zm6.156,-1.168l-7.569,0l0,2.289c0,1.43 -0.13,3.396 -1.235,4.842c0.325,0.162 0.942,0.567 1.202,0.811c0.731,-0.957 1.089,-2.192 1.284,-3.394l0.454,1.154c1.251,-0.26 2.859,-0.65 4.435,-1.008l0,1.706c0,0.195 -0.065,0.26 -0.276,0.26c-0.211,0.016 -0.975,0.016 -1.706,-0.016c0.179,0.324 0.358,0.843 0.423,1.2c1.104,0 1.868,-0.016 2.355,-0.211c0.487,-0.194 0.633,-0.551 0.633,-1.233l0,-6.4Zm-6.107,-5.33l4.613,0l0,0.944l-2.989,0l0,2.21l-1.624,0l0,-3.154Zm4.613,3.154l-1.754,0l0,-1.237l1.754,0l0,1.237Zm1.413,0l0,-4.337l-7.391,0l0,4.337l-1.608,0l0,2.857l1.381,0l0,-1.674l7.846,0l0,1.674l1.445,0l0,-2.857l-1.673,0Z" style="fill:#404040;fill-rule:nonzero;"/><path d="M78.907,35.006l3.054,0l0,-1.102l-3.054,0l0,-0.831l3.021,0l0,-4.887l-3.021,0l0,-0.846l3.216,0l0,1.218l1.722,0c-0.13,2.957 -0.536,5.411 -1.868,7.244c-1.023,0.114 -2.063,0.211 -3.07,0.309l0,-1.105Zm-3.054,-2.922l0,-0.992l1.673,0l0,0.992l-1.673,0Zm4.792,-0.992l0,0.992l-1.738,0l0,-0.992l1.738,0Zm-1.738,-0.924l0,-0.992l1.738,0l0,0.992l-1.738,0Zm-3.054,-0.992l1.673,0l0,0.992l-1.673,0l0,-0.992Zm9.47,-2.014c0.016,-1.105 0.033,-2.275 0.033,-3.477l-1.446,0c0,1.219 0,2.372 -0.016,3.477l-1.706,0l0,-0.942l-3.281,0l0,-1.041c1.121,-0.113 2.193,-0.275 3.054,-0.454l-0.715,-1.136c-1.689,0.374 -4.565,0.666 -6.969,0.796c0.147,0.292 0.309,0.778 0.358,1.086c0.909,-0.032 1.9,-0.081 2.891,-0.162l0,0.911l-3.346,0l0,1.119l3.346,0l0,0.847l-2.908,0l0,4.887l2.908,0l0,0.831l-2.956,0l0,1.102l2.956,0l0,1.236c-1.283,0.113 -2.453,0.211 -3.395,0.276l0.195,1.283c1.738,-0.162 4.077,-0.406 6.416,-0.682c-0.097,0.081 -0.195,0.162 -0.292,0.227c0.357,0.244 0.861,0.78 1.088,1.121c2.794,-2.144 3.525,-5.588 3.736,-9.908l1.917,0c-0.13,5.587 -0.292,7.65 -0.65,8.105c-0.162,0.211 -0.308,0.26 -0.584,0.26c-0.293,0 -0.959,0 -1.706,-0.065c0.227,0.406 0.39,1.023 0.422,1.43c0.764,0.048 1.511,0.048 1.998,-0.017c0.504,-0.081 0.845,-0.211 1.154,-0.698c0.52,-0.699 0.666,-3.005 0.844,-9.714c0,-0.179 0.017,-0.698 0.017,-0.698l-3.363,0Z" style="fill:#404040;fill-rule:nonzero;"/><path d="M104.134,32.685l-6.498,0l0,-0.927l6.498,0l0,0.927Zm-6.498,3.931l0,-0.992l6.498,0l0,0.992l-6.498,0Zm0,-2.925l6.498,0l0,0.927l-6.498,0l0,-0.927Zm9.568,-4.045l0,-1.2l-8.268,0c0.146,-0.309 0.292,-0.651 0.422,-0.977l6.936,0l0,-1.184l-6.53,0c0.114,-0.342 0.227,-0.667 0.325,-1.008c2.258,-0.13 4.418,-0.341 6.091,-0.633l-0.909,-1.088c-2.632,0.488 -7.424,0.715 -11.355,0.731c0.146,0.308 0.276,0.811 0.293,1.152c1.348,0 2.777,-0.033 4.207,-0.081c-0.082,0.309 -0.163,0.618 -0.276,0.927l-4.013,0l0,1.184l3.606,0c-0.146,0.326 -0.292,0.668 -0.454,0.977l-4.305,0l0,1.2l3.655,0c-0.991,1.641 -2.339,3.072 -4.094,4.061c0.293,0.277 0.731,0.83 0.926,1.187c1.04,-0.601 1.95,-1.349 2.729,-2.176l0,5.7l1.446,0l0,-0.618l6.498,0l0,0.618l1.51,0l0,-7.828l-7.829,0c0.195,-0.309 0.357,-0.619 0.536,-0.944l8.853,0Z" style="fill:#404040;fill-rule:nonzero;"/><path d="M116.365,28.851l0,2.323l-2.81,0l0,-2.323l2.81,0Zm1.446,3.687l0,-5.052l-4.256,0l0,-1.364c1.738,-0.211 3.639,-0.552 4.971,-1.072l-0.975,-1.267c-1.3,0.552 -3.557,0.958 -5.49,1.202l0,5.718c0,2.111 -0.082,4.84 -1.121,6.773c0.341,0.163 0.974,0.666 1.234,0.959c0.926,-1.592 1.235,-3.882 1.332,-5.897l4.305,0Zm8.236,-3.655l-5.377,0l0,-2.729c1.787,-0.259 3.72,-0.649 5.117,-1.185l-1.024,-1.3c-1.348,0.585 -3.622,1.072 -5.62,1.365l0,5.198c0,2.274 -0.195,5.165 -2.242,7.163c0.341,0.195 0.959,0.731 1.202,1.024c2.193,-2.112 2.551,-5.556 2.567,-8.074l2.16,0l0,7.96l1.495,0l0,-7.96l1.722,0l0,-1.462Z" style="fill:#404040;fill-rule:nonzero;"/><path d="M140.893,31.256l-6.335,0l0,-1.399l6.335,0l0,1.399Zm-6.383,2.68c0.032,-0.39 0.048,-0.781 0.048,-1.138l0,-0.277l6.335,0l0,1.415l-6.383,0Zm9.73,-7.035l0,-1.412l-8.09,0c0.228,-0.552 0.406,-1.12 0.585,-1.673l-1.543,-0.357c-0.179,0.666 -0.406,1.348 -0.682,2.03l-4.451,0l0,1.412l3.817,0c-1.007,1.95 -2.388,3.753 -4.175,4.955c0.309,0.292 0.764,0.828 0.991,1.169c0.877,-0.618 1.657,-1.347 2.356,-2.176l0,1.916c0,1.512 -0.13,3.282 -1.495,4.533c0.293,0.211 0.894,0.844 1.089,1.185c0.958,-0.877 1.461,-2.062 1.705,-3.282l6.546,0l0,1.399c0,0.244 -0.081,0.325 -0.357,0.325c-0.276,0.016 -1.251,0.016 -2.209,-0.032c0.195,0.405 0.422,1.054 0.471,1.46c1.348,0 2.258,0 2.826,-0.244c0.585,-0.227 0.748,-0.681 0.748,-1.493l0,-8.089l-7.684,0c0.309,-0.52 0.585,-1.073 0.861,-1.626l8.691,0Z" style="fill:#404040;fill-rule:nonzero;"/><path d="M152.54,23.897c-0.991,2.387 -2.68,4.759 -4.451,6.221c0.39,0.309 1.072,0.942 1.332,1.251c1.787,-1.641 3.623,-4.305 4.776,-6.953l-1.657,-0.519Zm4.76,8.755c0.568,0.812 1.202,1.754 1.803,2.696l-6.806,0.407c1.624,-1.868 3.248,-4.224 4.58,-6.595l-1.754,-0.715c-1.3,2.713 -3.362,5.539 -4.028,6.254c-0.634,0.747 -1.073,1.234 -1.56,1.364c0.228,0.439 0.536,1.283 0.601,1.625c0.715,-0.277 1.689,-0.342 9.828,-0.943c0.357,0.585 0.633,1.105 0.861,1.576l1.526,-0.828c-0.763,-1.462 -2.29,-3.736 -3.589,-5.491l-1.462,0.65Zm-2.21,-8.788l0,1.543l2.827,0c0.893,2.307 2.388,4.581 4.223,5.962c0.276,-0.471 0.813,-1.154 1.17,-1.495c-1.933,-1.202 -3.493,-3.573 -4.24,-6.01l-3.98,0Z" style="fill:#404040;fill-rule:nonzero;"/><path d="M174.729,31.514l0,2.65l-4.71,0l0,-2.65l4.71,0Zm1.478,3.963l0,-5.261l-7.65,0l0,6.448l1.462,0l0,-1.187l6.188,0Zm1.008,-8.103l-9.6,0l0,1.33l9.6,0l0,-1.33Zm3.297,-2.908l-13.027,0l0,1.444l11.484,0l0,10.364c0,0.309 -0.098,0.39 -0.406,0.406c-0.309,0.017 -1.397,0.017 -2.437,-0.032c0.211,0.439 0.455,1.202 0.52,1.641c1.446,0.016 2.453,-0.017 3.07,-0.293c0.601,-0.243 0.796,-0.747 0.796,-1.706l0,-11.824Z" style="fill:#404040;fill-rule:nonzero;"/></svg>