<?xml version="1.0" encoding="UTF-8" standalone="no"?><!DOCTYPE svg PUBLIC "-//W3C//DTD SVG 1.1//EN" "http://www.w3.org/Graphics/SVG/1.1/DTD/svg11.dtd"><svg width="100%" height="100%" viewBox="0 0 100 100" version="1.1" xmlns="http://www.w3.org/2000/svg" xmlns:xlink="http://www.w3.org/1999/xlink" xml:space="preserve" xmlns:serif="http://www.serif.com/" style="fill-rule:evenodd;clip-rule:evenodd;stroke-linejoin:round;stroke-miterlimit:2;"><g id="scroll-arrow"><animateTransform attributeName="transform" attributeType="XML" dur="2s" keyTimes="0;0.2;0.6;0.8;1" repeatCount="indefinite" type="translate" values="0 0;0 2;0 10;0 2;0 0;" calcMode="linear"></animateTransform><path d="M43.662,54.397l6.338,5.064l6.338,-5.064l4.054,0l-10.392,8.303l-10.392,-8.303l4.054,0Z" style="fill:#00a2d7;fill-opacity:0.61;"/><path d="M43.662,62.984l6.338,5.063l6.338,-5.063l4.054,0l-10.392,8.303l-10.392,-8.303l4.054,0Z" style="fill:#00a2d7;fill-opacity:0.61;"/><path d="M43.662,45.811l6.338,5.063l6.338,-5.063l4.054,0l-10.392,8.303l-10.392,-8.303l4.054,0Z" style="fill:#00a2d7;fill-opacity:0.61;"/></g><path id="tip-text" d="M23.653,25.61l0,2.731l-3.527,0l0,-2.731l3.527,0Zm1.395,4.077l0,-5.407l-6.3,0l0,6.545l1.378,0l0,-1.138l4.922,0Zm3.46,-8.77l-7.033,0c0.407,-0.747 0.829,-1.64 1.187,-2.469l-1.918,-0.309c-0.195,0.829 -0.585,1.901 -0.942,2.778l-4.433,0l0,12.149l1.492,0l0,-10.673l10.138,0l0,8.806c0,0.277 -0.097,0.358 -0.422,0.374c-0.309,0.016 -1.431,0.016 -2.502,-0.032c0.227,0.421 0.454,1.119 0.519,1.541c1.462,0 2.47,-0.033 3.103,-0.26c0.6,-0.259 0.811,-0.73 0.811,-1.607l0,-10.298Z" style="fill:#404040;fill-rule:nonzero;"/><path d="M47.596,20.884l0,-1.543l-14.344,0l0,1.543l6.027,0l0,12.166l1.608,0l0,-8.17c1.754,0.974 3.785,2.241 4.824,3.118l1.105,-1.38c-1.251,-0.975 -3.801,-2.421 -5.653,-3.314l-0.276,0.325l0,-2.745l6.709,0Z" style="fill:#404040;fill-rule:nonzero;"/><path d="M56.172,20.331c-0.649,-0.553 -1.949,-1.396 -2.859,-1.948l-0.942,1.006c0.942,0.617 2.226,1.512 2.827,2.079l0.974,-1.137Zm-1.007,4.191c-0.633,-0.488 -1.884,-1.217 -2.761,-1.688l-0.877,1.054c0.893,0.536 2.128,1.317 2.729,1.804l0.909,-1.17Zm-1.722,8.235c0.764,-1.476 1.609,-3.361 2.258,-4.97l-1.218,-0.91c-0.731,1.771 -1.706,3.786 -2.42,4.989l1.38,0.891Zm5.377,-4.775c1.202,0.162 2.713,0.569 3.525,0.926l0.471,-1.04c-0.828,-0.341 -2.355,-0.699 -3.525,-0.812l-0.471,0.926Zm-0.341,-1.56l4.727,0l0,2.389c-1.819,0.39 -3.622,0.747 -4.889,0.991c0.129,-0.796 0.162,-1.576 0.162,-2.243l0,-1.137Zm6.156,-1.168l-7.569,0l0,2.289c0,1.43 -0.13,3.396 -1.235,4.842c0.325,0.162 0.942,0.567 1.202,0.81c0.731,-0.956 1.089,-2.191 1.284,-3.393l0.454,1.154c1.251,-0.26 2.859,-0.65 4.435,-1.008l0,1.706c0,0.195 -0.065,0.26 -0.276,0.26c-0.211,0.016 -0.975,0.016 -1.706,-0.016c0.179,0.324 0.358,0.843 0.423,1.2c1.104,0 1.868,-0.016 2.355,-0.211c0.487,-0.194 0.633,-0.551 0.633,-1.233l0,-6.4Zm-6.107,-5.33l4.613,0l0,0.944l-2.989,0l0,2.21l-1.624,0l0,-3.154Zm4.613,3.154l-1.754,0l0,-1.237l1.754,0l0,1.237Zm1.413,0l0,-4.337l-7.391,0l0,4.337l-1.608,0l0,2.856l1.381,0l0,-1.673l7.846,0l0,1.673l1.445,0l0,-2.856l-1.673,0Z" style="fill:#404040;fill-rule:nonzero;"/><path d="M74.788,29.719l3.054,0l0,-1.102l-3.054,0l0,-0.831l3.021,0l0,-4.887l-3.021,0l0,-0.846l3.216,0l0,1.218l1.722,0c-0.13,2.957 -0.536,5.411 -1.868,7.244c-1.023,0.114 -2.063,0.211 -3.07,0.309l0,-1.105Zm-3.054,-2.922l0,-0.992l1.673,0l0,0.992l-1.673,0Zm4.792,-0.992l0,0.992l-1.738,0l0,-0.992l1.738,0Zm-1.738,-0.924l0,-0.992l1.738,0l0,0.992l-1.738,0Zm-3.054,-0.992l1.673,0l0,0.992l-1.673,0l0,-0.992Zm9.47,-2.014c0.016,-1.105 0.033,-2.275 0.033,-3.477l-1.446,0c0,1.219 0,2.372 -0.016,3.477l-1.706,0l0,-0.942l-3.281,0l0,-1.041c1.121,-0.113 2.193,-0.275 3.054,-0.454l-0.715,-1.136c-1.689,0.374 -4.565,0.666 -6.969,0.796c0.146,0.292 0.309,0.778 0.358,1.086c0.909,-0.032 1.9,-0.081 2.891,-0.162l0,0.911l-3.346,0l0,1.119l3.346,0l0,0.847l-2.908,0l0,4.887l2.908,0l0,0.831l-2.956,0l0,1.102l2.956,0l0,1.236c-1.283,0.113 -2.453,0.211 -3.395,0.276l0.195,1.283c1.738,-0.162 4.077,-0.406 6.416,-0.682c-0.097,0.081 -0.195,0.162 -0.292,0.227c0.357,0.244 0.861,0.78 1.088,1.121c2.794,-2.144 3.525,-5.588 3.736,-9.908l1.917,0c-0.13,5.587 -0.292,7.65 -0.65,8.105c-0.162,0.211 -0.308,0.26 -0.584,0.26c-0.293,0 -0.959,0 -1.706,-0.065c0.227,0.406 0.39,1.023 0.422,1.43c0.764,0.048 1.511,0.048 1.998,-0.017c0.504,-0.081 0.845,-0.211 1.154,-0.698c0.519,-0.699 0.666,-3.005 0.844,-9.714c0,-0.179 0.017,-0.698 0.017,-0.698l-3.363,0Z" style="fill:#404040;fill-rule:nonzero;"/></svg>